<?xml version="1.0" standalone="no"?>
<!DOCTYPE svg PUBLIC "-//W3C//DTD SVG 20010904//EN"
 "http://www.w3.org/TR/2001/REC-SVG-20010904/DTD/svg10.dtd">
<svg version="1.0" xmlns="http://www.w3.org/2000/svg"
 width="3298.000000pt" height="3298.000000pt" viewBox="0 0 3298.000000 3298.000000"
 preserveAspectRatio="xMidYMid meet">
<metadata>
Created by potrace 1.11, written by Peter Selinger 2001-2013
</metadata>
<g transform="translate(0.000000,3298.000000) scale(0.100000,-0.100000)"
fill="#000000" stroke="none">
<path d="M22247 32884 c-1 -1 -44 -5 -95 -8 -51 -4 -101 -9 -111 -11 -10 -2
-42 -6 -71 -10 -29 -4 -62 -9 -74 -11 -12 -2 -37 -7 -56 -10 -28 -5 -181 -36
-295 -60 -11 -2 -42 -8 -70 -14 -83 -17 -87 -18 -165 -35 -77 -16 -279 -49
-362 -59 -145 -17 -213 -24 -323 -31 -44 -3 -108 -7 -142 -10 -35 -3 -93 -7
-130 -10 -38 -3 -86 -7 -108 -10 -22 -2 -71 -7 -110 -11 -38 -3 -77 -8 -86 -9
-9 -2 -40 -6 -70 -10 -30 -4 -85 -13 -124 -22 -38 -8 -81 -17 -94 -19 -14 -3
-28 -7 -31 -9 -4 -2 -20 -7 -37 -10 -71 -12 -226 -69 -338 -125 -184 -90 -333
-194 -634 -444 -254 -210 -398 -314 -516 -371 -91 -44 -254 -104 -350 -128
-81 -21 -357 -101 -435 -127 -427 -142 -606 -347 -748 -860 -12 -41 -23 -86
-26 -100 -2 -14 -16 -72 -29 -130 -22 -91 -35 -148 -43 -185 -1 -5 -12 -50
-24 -100 -12 -49 -24 -101 -26 -115 -3 -13 -45 -146 -94 -295 -76 -230 -143
-450 -155 -505 -2 -8 -15 -64 -29 -125 -28 -122 -33 -149 -41 -215 -3 -25 -7
-55 -10 -68 -21 -113 -22 -421 0 -542 2 -14 6 -45 9 -70 3 -25 8 -56 10 -69 3
-13 8 -49 12 -80 6 -56 9 -74 19 -121 3 -14 7 -42 10 -62 4 -34 11 -78 22
-133 2 -11 6 -36 9 -55 3 -19 7 -41 10 -49 2 -8 7 -30 10 -50 3 -20 15 -70 26
-111 11 -41 21 -82 23 -91 2 -9 13 -49 26 -90 12 -41 24 -78 25 -84 8 -33 62
-164 104 -250 152 -312 319 -446 775 -619 83 -32 158 -62 167 -67 10 -5 23 -9
29 -9 6 0 37 -11 68 -24 31 -13 79 -33 107 -45 205 -83 359 -178 447 -276 10
-11 37 -40 61 -65 23 -25 59 -67 81 -95 22 -27 45 -55 50 -62 14 -17 21 -27
95 -123 168 -222 258 -324 366 -418 213 -185 445 -237 814 -182 67 10 79 12
166 30 28 6 61 13 75 15 13 3 35 7 49 10 93 21 283 56 320 61 25 2 72 8 105
13 62 9 310 7 355 -3 14 -4 55 -8 92 -11 36 -3 76 -8 87 -10 11 -2 51 -6 88
-10 37 -3 86 -8 108 -10 22 -3 74 -8 115 -11 41 -3 93 -7 115 -9 22 -3 74 -7
115 -10 41 -3 93 -8 115 -10 22 -2 85 -6 140 -10 55 -3 120 -8 145 -10 25 -2
106 -7 180 -11 74 -3 144 -8 155 -10 10 -2 37 -6 58 -9 66 -10 205 -54 316
-99 96 -40 168 -73 406 -186 209 -100 383 -159 520 -176 135 -18 328 -2 470
38 22 6 45 12 51 14 23 4 193 58 365 114 281 92 386 114 554 114 118 0 159 -4
260 -28 235 -55 469 -143 744 -280 131 -65 199 -100 489 -253 136 -71 231
-141 337 -247 209 -210 325 -436 543 -1056 79 -223 127 -412 150 -579 15 -116
6 -571 -13 -601 -2 -3 -6 -37 -10 -75 -4 -39 -9 -78 -10 -87 -2 -9 -6 -52 -10
-95 -3 -43 -8 -89 -10 -103 -2 -14 -7 -68 -10 -120 -4 -52 -8 -111 -10 -130
-2 -19 -7 -64 -10 -100 -3 -36 -8 -81 -10 -100 -2 -19 -7 -62 -10 -95 -4 -33
-8 -67 -10 -75 -2 -8 -7 -35 -10 -60 -3 -25 -8 -52 -10 -60 -2 -8 -7 -31 -10
-50 -19 -113 -67 -262 -121 -377 -131 -276 -331 -420 -755 -547 -84 -25 -363
-95 -404 -101 -45 -6 -271 -67 -367 -99 -57 -18 -155 -57 -218 -86 -188 -85
-467 -183 -586 -204 -13 -3 -32 -7 -42 -10 -9 -3 -28 -7 -42 -10 -14 -3 -36
-8 -50 -11 -98 -23 -541 -90 -800 -121 -84 -10 -216 -35 -295 -56 -22 -5 -50
-12 -62 -14 -13 -2 -125 -34 -250 -70 -305 -88 -431 -120 -588 -149 -112 -21
-375 -27 -485 -12 -30 4 -73 9 -95 11 -132 13 -277 25 -379 31 -144 9 -276 20
-421 36 -49 6 -106 12 -125 14 -32 4 -162 26 -235 40 -154 30 -353 101 -493
176 -81 43 -267 161 -282 178 -3 3 -34 29 -70 56 -36 28 -72 57 -81 65 -9 8
-44 40 -79 70 -72 62 -82 72 -240 220 -63 60 -128 120 -145 135 -16 15 -48 44
-70 64 -22 20 -78 69 -125 108 -47 38 -164 149 -261 244 -194 192 -280 274
-353 334 -27 22 -54 45 -60 50 -74 68 -278 200 -401 259 -143 69 -391 148
-539 171 -21 4 -47 8 -57 10 -67 13 -173 20 -294 19 -264 -3 -453 -75 -544
-208 -82 -119 -108 -416 -60 -681 6 -33 12 -69 14 -80 3 -20 32 -146 39 -175
49 -189 173 -484 285 -677 17 -30 106 -165 124 -188 4 -5 37 -50 74 -100 144
-194 233 -295 458 -521 237 -238 435 -402 544 -450 78 -35 170 -61 269 -78
109 -19 163 -24 412 -41 211 -15 292 -23 417 -46 100 -18 225 -53 278 -79 11
-5 97 -44 190 -86 94 -41 188 -84 210 -94 151 -68 424 -176 560 -222 88 -29
248 -79 265 -83 8 -2 44 -11 80 -20 36 -9 72 -18 80 -20 8 -2 76 -20 150 -39
159 -43 518 -133 575 -146 91 -19 302 -59 335 -64 19 -2 58 -8 85 -11 28 -4
61 -8 74 -11 13 -2 61 -6 105 -9 74 -6 169 -18 221 -29 111 -23 342 -86 390
-107 26 -11 306 -97 337 -103 12 -3 39 -10 58 -15 19 -6 60 -16 90 -21 30 -6
66 -13 80 -15 85 -19 252 -23 440 -11 63 4 169 9 235 11 66 2 201 7 300 10 99
3 207 8 240 10 102 6 229 16 260 20 17 2 53 7 80 10 266 32 399 77 574 192 82
54 220 164 287 228 17 16 110 105 205 197 190 182 202 193 304 277 118 98 301
205 485 285 90 40 146 64 208 92 29 13 55 24 57 24 12 0 235 100 338 151 328
164 518 347 651 630 24 52 51 110 59 129 18 41 97 270 156 455 54 167 93 269
143 375 39 82 76 151 285 520 178 316 292 566 354 775 24 83 25 88 46 185 24
114 23 507 -2 600 -2 8 -6 32 -9 53 -14 92 -18 116 -31 182 -25 124 -64 339
-70 380 -4 22 -8 51 -10 65 -20 130 -27 258 -30 600 -4 426 -13 546 -56 725
-77 329 -229 559 -574 870 -55 50 -102 92 -105 95 -3 3 -59 52 -125 110 -269
234 -390 366 -639 698 -276 368 -437 516 -726 669 -52 28 -146 80 -209 117
-62 36 -116 66 -119 66 -3 0 -13 6 -21 14 -9 7 -45 29 -81 48 -36 19 -90 49
-120 65 -217 120 -448 223 -615 274 -32 10 -170 48 -195 54 -8 2 -71 18 -140
35 -69 17 -143 35 -165 40 -22 4 -73 15 -112 24 -40 9 -85 18 -100 21 -16 3
-39 7 -53 10 -14 3 -52 10 -85 16 -33 5 -71 12 -85 15 -23 4 -123 20 -180 29
-22 3 -73 10 -160 21 -14 1 -52 6 -85 9 -33 4 -71 8 -85 10 -168 26 -567 26
-699 0 -11 -2 -51 -7 -88 -10 -37 -4 -70 -9 -73 -10 -3 -2 -30 -6 -60 -10 -30
-3 -62 -8 -70 -10 -8 -3 -35 -7 -60 -10 -25 -3 -56 -7 -70 -10 -41 -7 -118
-18 -220 -30 -25 -3 -62 -7 -84 -10 -68 -8 -225 -15 -461 -20 -126 -3 -248 -7
-270 -10 -22 -2 -81 -6 -130 -10 -50 -3 -101 -7 -115 -9 -14 -3 -65 -7 -115
-11 -49 -3 -108 -8 -130 -10 -156 -15 -492 -21 -585 -10 -78 8 -356 17 -705
20 -413 5 -423 5 -665 42 -61 9 -230 63 -283 90 -151 76 -269 207 -371 410
-63 125 -79 162 -171 403 -127 330 -151 381 -272 583 -129 214 -220 436 -259
632 -28 140 -26 379 5 483 5 18 9 33 9 35 -4 8 30 95 64 165 84 175 219 311
380 386 97 46 231 92 323 112 11 2 29 6 40 9 16 3 121 25 290 60 353 72 390
85 813 295 178 88 325 160 327 160 3 0 30 12 62 26 126 58 356 136 442 150 14
2 37 7 51 9 14 3 39 8 55 10 149 25 344 81 440 125 11 5 72 30 135 55 63 26
129 53 145 60 131 60 397 143 514 161 126 19 308 7 376 -25 11 -5 50 -23 86
-39 102 -46 338 -213 463 -327 54 -50 238 -192 306 -237 145 -96 282 -148 435
-166 80 -9 414 -8 595 3 453 26 615 -8 930 -198 146 -87 481 -338 595 -444 30
-28 254 -215 284 -238 14 -11 48 -40 74 -65 205 -192 438 -291 681 -292 475 0
917 372 1032 869 27 116 24 311 -6 423 -43 163 -142 331 -262 447 -217 209
-276 272 -418 448 -35 44 -67 82 -70 85 -3 3 -25 30 -49 60 -25 30 -49 60 -55
65 -6 6 -26 28 -44 50 -77 91 -243 251 -328 316 -170 128 -325 196 -574 250
-69 16 -78 17 -185 34 -134 21 -142 23 -200 30 -48 6 -132 17 -220 30 -22 3
-62 10 -90 15 -27 5 -66 12 -85 15 -60 10 -263 63 -300 78 -30 13 -127 41
-180 52 -8 2 -35 8 -60 13 -111 25 -288 39 -580 47 -356 10 -511 21 -655 50
-113 23 -118 24 -165 35 -49 11 -51 12 -440 129 -236 71 -395 115 -455 127
-11 2 -31 6 -45 9 -59 13 -154 28 -260 41 -48 6 -278 12 -283 8z"/>
<path d="M11627 32775 c-1 -2 -54 -5 -117 -9 -63 -4 -131 -8 -150 -11 -19 -2
-66 -7 -105 -10 -38 -4 -88 -9 -110 -11 -72 -7 -208 -15 -335 -19 -69 -3 -152
-7 -185 -10 -33 -2 -220 -7 -415 -10 -464 -6 -586 -13 -790 -41 -192 -27 -664
-142 -1010 -246 -159 -47 -534 -170 -575 -188 -11 -5 -96 -36 -190 -70 -167
-61 -441 -168 -500 -195 -38 -17 -127 -56 -185 -81 -52 -22 -331 -161 -405
-202 -220 -120 -464 -292 -740 -522 -109 -90 -294 -248 -316 -269 -9 -9 -40
-36 -70 -61 -74 -62 -157 -138 -193 -179 -17 -19 -46 -50 -63 -70 -69 -76
-197 -267 -353 -526 -144 -239 -205 -336 -232 -370 -5 -5 -25 -32 -45 -60
-109 -148 -247 -260 -578 -470 -291 -184 -434 -299 -531 -429 -68 -90 -133
-234 -203 -446 -34 -106 -102 -354 -115 -424 -10 -51 -98 -462 -121 -566 -15
-63 -28 -122 -30 -130 -1 -8 -8 -35 -15 -60 -14 -51 -19 -280 -8 -385 8 -75
39 -240 94 -500 11 -56 13 -64 39 -212 25 -140 25 -391 0 -663 -26 -283 -26
-955 -1 -1087 3 -12 7 -53 11 -90 3 -37 8 -79 10 -93 2 -14 7 -54 10 -90 4
-36 9 -76 10 -90 2 -14 7 -54 10 -90 4 -36 9 -72 10 -81 2 -9 6 -40 10 -70 3
-30 8 -65 10 -79 3 -14 7 -38 9 -55 8 -57 18 -120 22 -140 3 -11 6 -33 8 -50
12 -80 69 -343 99 -455 45 -162 64 -248 83 -365 2 -16 6 -41 9 -55 6 -32 12
-83 20 -145 6 -49 13 -106 20 -155 2 -14 9 -61 15 -106 6 -44 12 -89 14 -100
2 -10 7 -39 11 -64 9 -56 13 -78 20 -110 3 -14 7 -35 9 -47 17 -89 72 -253
128 -378 17 -38 36 -83 43 -100 32 -75 78 -219 140 -436 76 -268 113 -389 158
-509 103 -278 247 -487 602 -870 138 -148 656 -657 725 -711 41 -33 80 -64 87
-69 7 -6 14 -10 17 -10 3 0 25 -13 49 -30 70 -47 320 -172 497 -248 188 -81
452 -215 491 -248 8 -8 18 -14 22 -14 12 0 209 -143 372 -270 266 -208 487
-370 504 -370 5 0 11 -4 13 -8 5 -13 170 -109 288 -168 109 -54 249 -103 340
-120 25 -4 47 -8 50 -9 3 -1 32 -5 65 -9 33 -4 75 -9 93 -12 49 -6 206 -13
417 -19 330 -8 460 -20 615 -57 47 -11 93 -21 103 -23 47 -10 216 -66 459
-151 406 -142 594 -188 824 -199 175 -9 279 -16 304 -20 14 -2 59 -7 100 -10
41 -4 82 -8 90 -10 8 -2 44 -6 80 -9 36 -4 75 -8 86 -10 11 -2 53 -7 94 -10
41 -4 89 -8 105 -11 122 -15 370 -21 515 -11 180 12 226 21 400 82 3 1 16 5
29 9 37 12 266 131 327 170 30 19 58 35 63 35 4 0 19 8 32 19 54 41 403 235
412 229 2 -2 11 2 19 9 35 29 413 152 549 178 9 2 88 22 175 45 88 23 166 43
174 45 204 43 691 209 800 272 159 92 340 274 451 453 67 107 138 260 160 348
5 17 13 49 19 70 49 187 23 413 -63 552 -12 19 -29 48 -37 63 -24 45 -90 119
-148 167 -70 60 -139 97 -240 131 -137 47 -193 54 -407 53 -152 -1 -230 -9
-380 -39 -189 -38 -473 -143 -596 -220 -43 -28 -124 -58 -259 -99 -94 -28
-306 -82 -360 -91 -19 -3 -55 -11 -80 -16 -43 -10 -273 -51 -352 -63 -117 -18
-332 -48 -440 -61 -63 -8 -122 -16 -148 -20 -103 -17 -348 -22 -490 -11 -123
10 -327 38 -515 72 -16 3 -43 7 -60 10 -16 2 -65 10 -110 18 -44 8 -96 17
-116 20 -20 3 -42 7 -50 10 -8 3 -36 7 -64 10 -27 3 -61 8 -75 10 -14 3 -52 7
-85 11 -33 3 -73 8 -90 10 -29 4 -136 13 -225 20 -145 12 -191 15 -245 20
-144 13 -241 22 -310 31 -22 3 -58 7 -80 10 -22 2 -51 7 -65 9 -14 2 -45 7
-70 10 -25 3 -56 8 -70 10 -14 3 -36 7 -50 10 -213 40 -307 68 -715 210 -121
42 -272 94 -335 116 -405 140 -668 270 -901 445 -53 39 -106 77 -120 84 -13 7
-29 18 -35 24 -7 6 -56 38 -109 71 -400 248 -643 430 -825 618 -221 229 -319
401 -400 696 -29 108 -85 374 -95 451 -3 23 -7 45 -9 49 -2 3 -7 22 -10 41 -3
19 -10 60 -16 90 -6 30 -13 66 -16 80 -17 87 -63 250 -115 405 -34 98 -63 191
-65 205 -3 14 -7 33 -10 42 -11 38 -20 98 -39 283 -2 22 -7 130 -10 240 -15
526 -22 636 -51 785 -2 14 -6 36 -9 50 -6 31 -41 143 -59 190 -8 19 -24 60
-36 90 -12 30 -82 177 -155 325 -178 361 -209 435 -242 575 -8 36 -17 74 -20
85 -9 31 -10 295 -2 340 4 22 10 67 13 100 3 32 13 102 22 155 9 52 17 104 19
115 6 42 96 397 121 477 91 294 203 618 244 703 27 55 74 141 106 190 57 88
243 327 325 415 474 515 538 607 735 1048 74 166 199 419 218 442 7 8 15 22
18 30 8 21 119 168 160 210 137 143 350 259 633 345 97 29 280 78 335 90 96
20 371 95 450 122 168 58 326 130 510 232 30 17 62 34 70 38 8 4 35 19 60 33
272 159 544 283 730 334 126 34 175 40 300 40 155 -1 331 -45 520 -131 30 -14
75 -33 100 -43 25 -10 83 -36 130 -58 355 -166 462 -199 785 -247 50 -8 321
-53 395 -66 94 -16 311 -66 410 -93 52 -15 102 -28 110 -30 31 -8 239 -85 345
-128 61 -25 133 -50 160 -57 28 -7 57 -15 65 -17 50 -12 99 -23 125 -27 17 -3
75 -13 130 -22 98 -16 115 -19 205 -30 25 -3 52 -8 60 -10 8 -2 38 -6 65 -10
28 -3 57 -8 65 -10 8 -2 31 -6 50 -9 19 -3 46 -8 60 -11 14 -3 36 -8 50 -11
59 -11 180 -48 250 -76 134 -53 210 -102 311 -201 78 -76 113 -102 190 -140
202 -102 420 -95 644 21 63 33 86 47 175 110 84 59 232 209 312 316 68 91 129
213 154 306 9 36 18 113 20 171 3 89 0 124 -21 205 -46 183 -181 414 -295 506
-157 127 -348 243 -760 460 -167 89 -243 131 -315 175 -314 193 -716 391
-1115 548 -102 41 -273 110 -380 155 -265 111 -401 164 -539 209 -124 42 -337
96 -411 105 -25 3 -67 8 -95 11 -49 6 -293 14 -298 10z"/>
<path d="M10582 15834 c-131 -35 -245 -130 -472 -394 -12 -14 -44 -52 -73 -85
-151 -176 -326 -336 -448 -409 -116 -69 -247 -111 -404 -131 -101 -12 -144
-15 -355 -20 -350 -9 -460 -17 -592 -45 l-88 -19 -112 -113 c-393 -394 -970
-740 -1381 -829 -161 -34 -233 -36 -902 -25 -159 3 -319 0 -355 -5 -36 -5 -81
-11 -100 -14 -250 -37 -465 -190 -578 -410 -92 -178 -126 -324 -126 -540 0
-106 7 -172 29 -275 3 -14 7 -34 9 -45 3 -11 14 -51 26 -90 20 -64 32 -93 77
-195 9 -19 35 -64 59 -100 120 -184 286 -272 509 -272 82 0 107 2 185 17 14 3
40 7 59 10 19 3 78 18 130 32 86 24 114 27 261 27 148 1 239 -8 413 -39 15 -3
39 -7 55 -10 244 -44 347 -57 486 -59 116 -2 205 13 364 63 132 41 426 128
522 154 182 49 621 186 695 217 11 4 36 14 55 21 72 26 174 74 285 134 27 15
148 93 268 173 119 81 259 173 310 205 91 58 286 161 292 155 2 -2 6 -30 10
-63 10 -97 35 -213 67 -315 26 -81 131 -351 173 -445 49 -107 115 -336 130
-450 7 -51 7 -517 0 -680 -13 -320 -17 -453 -20 -725 -5 -337 -7 -372 -39
-525 -13 -62 -74 -255 -136 -435 -66 -191 -122 -376 -135 -445 -25 -129 -32
-215 -29 -330 2 -71 5 -141 7 -155 14 -87 20 -125 38 -210 11 -52 40 -174 65
-270 54 -210 86 -337 100 -405 12 -53 35 -186 41 -240 14 -114 7 -420 -12
-545 -2 -14 -7 -49 -10 -79 -4 -30 -9 -63 -11 -75 -2 -12 -7 -39 -10 -61 -2
-22 -13 -89 -24 -150 -10 -60 -22 -130 -25 -155 -3 -25 -10 -70 -15 -100 -6
-30 -12 -75 -15 -100 -2 -25 -8 -79 -12 -120 -4 -41 -8 -223 -7 -405 1 -298 3
-422 19 -920 3 -82 7 -274 10 -425 3 -151 7 -306 10 -345 2 -38 7 -128 10
-200 4 -71 8 -149 10 -173 2 -24 6 -91 10 -150 3 -59 8 -129 10 -157 5 -60 15
-291 20 -439 l3 -107 -176 6 c-98 3 -202 7 -232 9 -30 2 -104 7 -165 10 -60 4
-126 9 -145 11 -19 2 -80 7 -135 10 -55 4 -116 8 -135 10 -19 2 -87 6 -150 10
-63 4 -140 8 -170 11 -30 2 -154 6 -275 9 -212 5 -309 10 -405 21 -78 9 -233
31 -270 39 -14 3 -61 12 -105 19 -44 8 -129 24 -190 36 -60 12 -150 28 -200
36 -49 8 -101 17 -115 19 -14 3 -47 8 -75 11 -27 3 -61 8 -75 10 -201 34 -524
20 -748 -32 -37 -9 -74 -17 -82 -19 -33 -7 -152 -39 -265 -72 -66 -19 -127
-36 -135 -38 -8 -2 -85 -22 -170 -43 -158 -41 -178 -45 -287 -62 -95 -15 -169
-21 -283 -25 -128 -3 -168 -9 -292 -41 -105 -26 -118 -31 -223 -81 -205 -97
-348 -219 -460 -393 -40 -62 -75 -130 -79 -154 -2 -6 -11 -36 -20 -66 -12 -36
-19 -97 -22 -175 -13 -435 257 -761 736 -888 92 -25 183 -37 312 -42 289 -11
365 -23 748 -117 91 -22 172 -41 180 -43 8 -2 38 -9 65 -15 47 -11 114 -23
195 -36 19 -3 46 -7 60 -10 40 -6 146 -14 280 -19 69 -3 141 -7 160 -10 177
-29 250 -43 415 -81 438 -103 581 -126 790 -127 114 -1 385 9 485 17 19 2 78
7 130 11 52 4 111 8 130 10 19 2 82 6 140 10 58 4 123 10 145 12 22 3 461 6
975 7 838 3 1002 6 1090 21 14 3 39 7 55 9 94 15 197 37 475 100 85 19 169 37
185 40 17 3 73 13 125 22 201 34 485 25 664 -22 34 -9 70 -18 81 -20 11 -2 58
-15 105 -29 47 -14 92 -27 100 -29 8 -2 69 -21 135 -41 155 -47 389 -102 474
-111 295 -30 441 8 957 251 158 75 340 142 434 160 14 3 41 8 60 12 62 11 468
6 935 -13 50 -2 230 -5 400 -8 300 -4 342 -1 504 29 125 24 333 119 452 207
179 133 304 326 336 523 1 11 3 68 3 126 2 360 -216 775 -525 1002 -89 65 -96
70 -175 108 -185 90 -319 107 -675 85 -182 -11 -323 -23 -375 -31 -14 -2 -63
-7 -110 -10 -47 -3 -96 -8 -110 -10 -28 -4 -152 -14 -250 -20 -36 -3 -148 -7
-250 -10 -215 -6 -352 -16 -435 -31 -10 -2 -37 -6 -60 -10 -42 -6 -188 -31
-340 -59 -161 -29 -295 -50 -385 -60 -30 -3 -73 -8 -95 -11 -79 -9 -509 -4
-870 11 -234 9 -430 15 -638 20 -110 2 -200 5 -202 7 -1 2 -5 53 -9 113 -3 61
-8 124 -10 140 -3 17 -7 50 -11 75 -7 61 -55 356 -70 430 -3 14 -10 52 -15 85
-6 33 -15 80 -20 105 -5 25 -12 61 -15 80 -2 19 -7 46 -9 60 -5 27 -11 67 -21
145 -4 28 -9 61 -11 75 -22 142 -22 529 0 647 2 10 7 47 11 83 4 36 8 72 10
80 4 23 25 161 30 200 4 31 12 84 20 130 1 8 6 40 10 70 4 30 9 63 11 74 2 10
6 44 9 75 4 31 8 67 10 80 6 36 16 205 20 356 5 146 7 160 40 300 25 108 69
240 163 490 61 165 116 327 127 380 35 161 44 237 40 355 -2 69 -11 157 -20
195 -9 39 -18 79 -20 91 -12 53 -69 225 -130 389 -63 169 -131 361 -140 395
-2 8 -11 40 -19 70 -35 123 -48 228 -49 375 -1 184 7 328 38 675 11 123 15
171 21 250 3 41 7 95 9 120 3 25 7 135 10 245 7 266 15 473 20 510 2 17 7 57
10 90 4 33 8 71 10 85 2 14 7 50 10 80 3 30 8 62 10 70 2 8 7 40 10 70 3 30 8
62 10 70 2 8 7 40 10 70 3 30 8 66 10 80 2 14 6 48 10 75 3 28 7 66 10 85 19
151 24 449 11 615 -13 170 -17 214 -21 234 -2 12 -6 48 -9 80 -3 33 -8 74 -10
93 -3 18 -10 76 -17 128 -6 52 -12 102 -14 110 -2 13 -7 50 -20 180 -4 34 -10
98 -20 211 -2 30 -7 136 -10 235 -3 98 -7 195 -10 214 -2 19 -7 67 -11 105 -3
39 -8 79 -10 90 -2 11 -6 43 -9 70 -3 28 -10 75 -15 105 -11 62 -36 225 -45
285 -4 22 -8 50 -10 62 -7 45 -25 170 -31 218 -11 92 -12 109 -18 240 -9 179
-16 274 -21 299 -3 12 -7 32 -9 46 -29 172 -128 413 -233 568 -63 92 -152 195
-221 252 -29 25 -58 50 -65 56 -23 20 -143 86 -191 106 -120 47 -288 61 -394
32z"/>
<path d="M25527 15703 c-1 0 -40 -4 -87 -7 -225 -15 -303 -38 -670 -199 -127
-56 -273 -101 -365 -113 -27 -3 -59 -8 -70 -10 -11 -3 -96 -7 -190 -9 -186 -5
-366 -14 -405 -20 -14 -2 -47 -6 -75 -10 -41 -4 -190 -32 -270 -50 -78 -17
-228 -45 -270 -50 -27 -4 -57 -8 -65 -10 -33 -9 -234 -18 -390 -17 -315 1
-441 38 -809 237 -227 122 -392 162 -691 164 -290 3 -644 16 -710 26 -113 17
-829 26 -945 12 -108 -13 -272 -50 -308 -69 -10 -5 -26 -11 -35 -13 -10 -1
-63 -23 -119 -49 -323 -145 -478 -180 -788 -181 -279 0 -424 25 -715 122 -74
24 -142 46 -150 48 -8 2 -40 11 -70 19 -61 17 -76 20 -182 35 -190 29 -412 29
-523 0 -57 -15 -122 -38 -183 -65 -29 -13 -55 -24 -57 -24 -2 0 -43 -23 -90
-51 -101 -59 -254 -181 -342 -271 -149 -153 -289 -384 -334 -553 -30 -111 -30
-298 -1 -407 108 -399 429 -763 822 -931 47 -20 96 -38 110 -41 219 -49 363
-51 568 -10 129 26 194 51 408 158 269 134 365 166 548 183 161 16 537 4 691
-22 17 -2 50 -7 75 -10 25 -3 56 -7 70 -10 14 -3 41 -8 60 -11 19 -3 60 -9 90
-14 30 -5 75 -12 100 -15 25 -3 61 -8 80 -10 181 -23 818 -22 1145 0 239 17
773 24 885 12 191 -20 288 -51 530 -170 307 -150 407 -176 685 -182 278 -6
434 27 649 136 67 34 168 85 226 114 215 109 348 135 670 129 124 -2 236 -5
250 -8 14 -2 50 -7 80 -10 30 -4 62 -9 70 -11 8 -2 29 -7 45 -9 17 -3 105 -23
195 -45 148 -35 198 -46 320 -66 125 -20 539 -26 790 -10 172 10 399 12 470 3
130 -17 390 -80 491 -119 l27 -10 -132 -187 c-72 -103 -139 -198 -149 -212
-10 -14 -61 -86 -113 -160 -52 -74 -100 -142 -107 -150 -7 -9 -34 -49 -62 -90
-27 -41 -53 -77 -56 -80 -3 -3 -29 -41 -59 -84 -73 -110 -238 -327 -361 -476
-359 -435 -521 -654 -619 -835 -62 -114 -159 -313 -217 -445 -46 -103 -179
-360 -229 -441 -91 -147 -162 -246 -559 -779 -82 -110 -193 -261 -245 -334
-90 -126 -97 -133 -120 -124 -92 36 -265 78 -380 93 -89 12 -215 24 -325 31
-76 4 -122 7 -365 19 -58 2 -125 7 -150 10 -25 2 -74 7 -110 10 -36 3 -76 7
-90 9 -14 3 -47 7 -75 11 -27 3 -63 8 -80 10 -32 6 -90 12 -190 21 -33 2 -70
7 -82 9 -110 24 -706 24 -843 1 -14 -3 -45 -7 -70 -10 -68 -9 -118 -15 -190
-25 -36 -5 -229 -9 -430 -9 -465 -1 -575 -11 -742 -72 -121 -44 -250 -132
-465 -315 -103 -88 -145 -127 -238 -220 -180 -180 -270 -290 -366 -447 -171
-283 -218 -489 -158 -708 17 -65 88 -215 107 -230 4 -3 19 -21 33 -40 59 -78
183 -186 314 -272 153 -99 488 -240 651 -272 11 -2 51 -12 89 -21 39 -9 85
-18 104 -21 18 -3 41 -7 50 -9 9 -2 44 -6 76 -10 33 -4 71 -9 85 -11 44 -7
223 -6 285 1 49 6 144 25 190 39 138 41 272 139 349 254 44 66 109 206 99 215
-6 7 113 104 172 140 123 74 287 142 394 163 7 1 34 7 60 13 153 35 486 33
653 -4 13 -2 37 -6 53 -9 36 -5 258 -52 298 -63 l27 -8 -34 -50 c-78 -116
-181 -344 -274 -605 -180 -505 -239 -642 -356 -820 -135 -208 -267 -323 -711
-625 -178 -121 -178 -121 -285 -204 -132 -103 -263 -237 -350 -361 -41 -58
-77 -107 -80 -110 -3 -3 -32 -39 -65 -80 -61 -78 -210 -252 -281 -330 -51 -55
-80 -88 -119 -132 -16 -18 -64 -72 -106 -118 -194 -219 -364 -437 -461 -592
-62 -100 -198 -364 -258 -503 -23 -55 -57 -131 -75 -170 -18 -38 -47 -104 -65
-145 -64 -147 -180 -367 -260 -495 -45 -71 -92 -150 -105 -175 -73 -143 -103
-398 -70 -595 23 -137 25 -147 61 -253 100 -302 270 -521 490 -631 122 -61
219 -85 349 -85 160 -1 228 14 373 80 202 93 428 300 607 557 96 138 250 279
510 467 512 371 594 469 876 1050 348 713 417 817 755 1127 85 78 109 99 164
145 79 66 206 184 279 258 228 232 329 402 472 800 129 357 150 411 219 555
119 249 246 403 600 725 163 149 246 234 334 344 81 101 81 102 116 94 54 -11
208 -2 275 15 79 21 161 55 325 134 361 174 484 197 775 148 53 -9 135 -27
300 -68 99 -25 196 -47 215 -51 19 -3 46 -8 60 -11 131 -26 310 -24 425 6 211
53 593 286 870 529 67 59 327 321 396 398 394 449 517 973 352 1497 -55 175
-153 336 -281 463 -105 105 -111 110 -209 166 -238 137 -526 156 -918 60 -126
-31 -327 -123 -407 -186 -21 -16 -38 -27 -38 -24 0 3 28 46 63 94 98 136 180
265 241 375 20 37 46 84 58 105 11 20 52 98 91 172 38 74 103 200 145 280 110
213 180 332 328 555 107 163 354 559 354 569 0 1 45 76 100 167 54 90 111 184
126 209 15 25 85 133 155 240 181 278 221 362 386 800 140 373 201 512 295
668 48 80 52 84 126 119 358 170 592 396 684 663 19 56 31 139 31 220 1 273
-198 587 -498 787 -113 75 -311 160 -415 178 -19 3 -42 8 -50 10 -33 9 -129
17 -197 17 -106 0 -181 -11 -285 -38 -140 -38 -200 -44 -399 -45 -163 -1 -213
4 -399 43 -226 47 -331 67 -385 73 -27 3 -63 8 -80 11 -16 2 -127 6 -245 9
-228 5 -412 13 -445 20 -11 2 -47 7 -80 10 -59 5 -86 9 -155 21 -19 4 -44 8
-55 9 -11 2 -56 10 -100 18 -73 15 -153 27 -273 41 -77 10 -459 25 -465 19z
m965 -6926 c-47 -62 -79 -133 -103 -227 -11 -46 -27 -96 -34 -111 -17 -32 -63
-55 -129 -64 l-49 -8 33 49 c35 52 226 311 244 331 6 6 22 27 36 46 14 20 27
33 29 31 3 -2 -10 -23 -27 -47z"/>
</g>
</svg>
