<?xml version="1.0" encoding="utf-8"?>
<!-- Generator: Adobe Illustrator 24.3.0, SVG Export Plug-In . SVG Version: 6.00 Build 0)  -->
<svg version="1.1" xmlns="http://www.w3.org/2000/svg" xmlns:xlink="http://www.w3.org/1999/xlink" x="0px" y="0px"
	 viewBox="0 0 1000 1000" style="enable-background:new 0 0 1000 1000;" xml:space="preserve">
<style type="text/css">
	.st0{display:none;}
	.st1{display:inline;}
	.st2{display:inline;fill:none;stroke:#000000;stroke-miterlimit:10;}
	.st3{fill:none;stroke:#000000;stroke-miterlimit:10;}
</style>
<g id="original" class="st0">
	<g class="st1">
		<g>
			<path d="M477.2,154.3c-22-17.6-46.8-30.8-74.2-37.6c-27.1-6.7-54.8-7.3-82.2-2.4c-49.8,9-94.1,41.2-121.7,83.1
				c-31.5,47.9-38.1,111.4-19.3,165.4c16.7,48,51.4,89.7,96.5,113.4c57.7,30.3,127.2,30.1,185.4,1.4c11.8-5.8,15.9-23.4,9-34.2
				c-7.8-12-21.6-15.2-34.2-9c-1.5,0.7-3,1.5-4.5,2.2c-0.5,0.2-5.2,2.9-1.6,0.8c3.5-2-1,0.4-1.7,0.7c-1.6,0.6-3.1,1.2-4.7,1.8
				c-5.8,2.1-11.7,3.8-17.7,5.3c-1.4,0.4-16.4,3.6-16.5,3.2c1.1-0.1,2.2-0.3,3.3-0.4c-1.1,0.1-2.2,0.3-3.3,0.4
				c-1.1,0.1-2.2,0.2-3.3,0.3c-3.3,0.3-6.7,0.5-10,0.6c-5.9,0.2-11.7,0.1-17.6-0.2c-3.1-0.2-6.1-0.5-9.2-0.8c-4-0.4,1.7,0,1.7,0.3
				c0,0.1-6.1-1-6.6-1.1c-11.6-2.1-22.8-5.5-33.8-9.7c-5.5-2.1,5,2.4,0.1,0c-0.9-0.4-1.8-0.8-2.7-1.2c-2.3-1.1-4.5-2.2-6.7-3.3
				c-5.1-2.7-10-5.6-14.8-8.7c-2.3-1.5-4.5-3.1-6.8-4.7c-0.6-0.4-1.6-1.4-2.4-1.8c0.9,0.7,1.8,1.4,2.7,2.1c-0.8-0.6-1.6-1.2-2.3-1.9
				c-4.3-3.5-8.4-7.1-12.3-10.9c-3.6-3.5-7-7.1-10.3-10.9c-1.8-2.1-3.5-4.2-5.3-6.3c-2.2-2.7,3.8,5.1,0.7,0.9
				c-1-1.4-2.1-2.8-3.1-4.2c-6.2-8.8-11.6-18.1-16.1-27.8c-0.5-1.1-1-2.3-1.5-3.4c-1.4-3.2,2.4,6,0.5,1.1c-0.9-2.3-1.8-4.7-2.6-7
				c-2-5.8-3.7-11.8-5.1-17.8c-0.7-3.2-1.4-6.4-1.9-9.7c-0.2-1.4-0.8-3-0.7-4.4c-0.2,6.6,0.2,1.3,0-0.5c-0.7-6.5-1-13.1-0.9-19.7
				c0.1-6,0.5-11.9,1.2-17.9c0.6-6.2-1.1,5.7,0.1-0.5c0.2-1.2,0.4-2.4,0.6-3.5c0.6-3.5,1.4-7,2.3-10.5c1.5-5.9,3.3-11.8,5.5-17.5
				c0.4-1.1,1.1-2.3,1.3-3.4c-1.3,6.2-1.2,2.7-0.2,0.6c1.2-2.7,2.5-5.3,3.9-7.9c2.3-4.4,4.7-8.6,7.4-12.7c1.3-2.1,2.7-4.1,4.1-6.1
				c0.9-1.2,1.7-2.4,2.6-3.6c2.8-3.8-3.5,4.3-0.3,0.4c6.8-8.1,14-15.8,22.1-22.6c0.9-0.8,1.9-1.6,2.8-2.4c1.9-1.5,5-2.4-0.4,0.3
				c2.1-1,4-3,6-4.3c4.5-3.1,9.1-5.9,13.8-8.5c4.2-2.3,9.3-3.8,13.2-6.5c-5.1,3.5-2.8,1.2-0.5,0.3c1.1-0.5,2.3-0.9,3.4-1.3
				c2.8-1,5.6-2,8.4-2.8c6-1.8,12-3.3,18.2-4.3c1.3-0.2,2.6-0.4,3.9-0.6c5.1-0.8-6.1,0.7,0.4,0c3.1-0.3,6.3-0.6,9.4-0.7
				c6.3-0.3,12.6-0.2,18.9,0.2c1.3,0.1,2.6,0.2,3.9,0.3c0.9,0.1,7.5,1.1,3,0.3c-4.5-0.9,0.7,0.1,1.4,0.2c1.8,0.3,3.6,0.6,5.4,1
				c6.2,1.2,12.3,2.7,18.4,4.6c3,0.9,6,2,9,3.1c1.2,0.5,2.5,1,3.7,1.4c4.7,1.8-5.2-2.3,0.6,0.3c5.7,2.6,11.3,5.6,16.7,8.8
				c2.7,1.6,5.4,3.3,7.9,5.1c1.1,0.7,2.2,1.5,3.2,2.3c0.9,0.6,1.7,1.2,2.5,1.9c-3-2.3-3.4-2.6-1.3-1c5.4,4.3,10.5,7.3,17.7,7.3
				c6.1,0,13.5-2.7,17.7-7.3C485.5,180.6,488.1,163,477.2,154.3L477.2,154.3z"/>
		</g>
	</g>
	<g class="st1">
		<g>
			<path d="M774.4,156.9c-28.5-22.1-60.3-38.2-96-44.4c-35.2-6.1-72.8-6.3-106.9,5.7c-34.4,12.1-64.3,35.4-75.3,71.3
				c-4.9,15.9-5.3,34.5,0.1,50.3c6.3,18.7,18.5,33.2,34.7,44.2c28.6,19.4,66.1,22.8,99.7,23.6c18.4,0.4,36.8,0.1,55.1,2.1
				c0.9,0.1,1.8,0.2,2.7,0.3c3.5,0.3-4.8-0.8-1.3-0.2c2,0.3,4.1,0.6,6.1,1c4.6,0.8,9.2,1.9,13.7,3.2c2,0.6,3.9,1.2,5.9,1.8
				c1.1,0.4,2.2,0.8,3.3,1.2c0.9,0.3,4.3,1.8,0.7,0.2c-3.7-1.6,1.6,0.8,2.6,1.3c1.8,0.9,3.6,1.8,5.4,2.8c3.3,1.8,6.4,3.9,9.5,6.1
				c4.9,3.5-3-2.6,0.2,0.2c1.7,1.4,3.3,2.9,5,4.4c2.5,2.3,4.8,4.8,7,7.3c0.6,0.7,1.2,1.5,1.8,2.2c1.8,2-1.8-2.4-1.7-2.3
				c1.1,1.8,2.5,3.4,3.7,5.2c1.9,2.9,3.7,6,5.2,9.1c0.5,0.9,2.8,6.2,1,2c-1.8-4.1,0.7,2.2,1.1,3.4c1,3,1.8,6.1,2.4,9.2
				c0.1,0.3,0.5,2.6,0.5,2.7c-0.1,0-0.6-5.8-0.4-3.3c0.2,2.2,0.4,4.3,0.5,6.5c0.1,3.4-0.1,6.8-0.4,10.2c-0.3,4.2,0.2-2,0.3-2.3
				c-0.3,0.7-0.4,2.2-0.5,2.9c-0.4,1.9-0.8,3.8-1.3,5.7c-0.5,1.9-1.1,3.8-1.7,5.6c-0.3,1-2.6,6.5-0.8,2.6c1.7-3.8-0.7,1.4-1.2,2.5
				c-0.9,1.8-1.8,3.6-2.8,5.3c-1.9,3.3-4.1,6.4-6.2,9.6c-1.8,2.7,3.2-3.9,1.1-1.4c-0.5,0.6-1,1.2-1.5,1.8c-1.5,1.8-3.1,3.5-4.7,5.2
				c-2.5,2.7-5.2,5.2-8,7.6c-0.8,0.7-1.6,1.4-2.5,2c-2.5,2.2,4-2.9,1.2-1c-1.7,1.2-3.4,2.5-5.2,3.6c-3.3,2.2-6.7,4.2-10.2,6.1
				c-1.6,0.9-3.3,1.7-5,2.5c-1.7,0.8-8.9,3.2-2.1,1.1c-7.9,2.4-15.4,5.6-23.5,7.5c-3.8,0.9-7.6,1.6-11.4,2.3c0.3,0-3.3,0.5-3.3,0.5
				c0-0.2,6.5-0.7,1.7-0.3c-2.2,0.2-4.5,0.4-6.7,0.6c-8.4,0.6-16.8,0.6-25.2-0.1c-2.2-0.2-4.4-0.4-6.6-0.6c-1.6-0.2-4.4-1.1,1.8,0.3
				c-0.8-0.2-1.6-0.2-2.4-0.4c-4.3-0.7-8.6-1.5-12.8-2.5c-7.9-1.9-15.6-4.3-23.1-7.2c-5.8-2.3,3.4,1.6-0.7-0.2
				c-1.9-0.9-3.9-1.8-5.8-2.7c-3.8-1.8-7.5-3.8-11.1-6c-3.1-1.8-6.2-3.8-9.2-5.9c-1.5-1-3-2.1-4.4-3.1c-0.8-0.6-3.7-2.5-0.5-0.4
				c3.4,2.2-0.3-0.3-1.1-0.9c-5.8-4.8-11.2-10.1-16.2-15.8c-8.6-9.9-26.6-9.5-35.4,0c-9.7,10.5-9.2,24.8,0,35.4
				c47.3,54.2,130.1,73.5,197.8,52c34.9-11.1,67.2-33.1,85.1-65.8c17.8-32.5,19.1-70.4,2-103.4c-16.3-31.6-48-53.9-82.1-62.3
				c-36.3-9-73.6-4.8-110.5-8.3c-2.1-0.2-4.2-0.4-6.3-0.7c-4.5-0.5,5.9,0.9-0.4-0.1c-4.1-0.6-8.2-1.4-12.3-2.3
				c-3.5-0.8-7-1.7-10.4-2.8c-1.7-0.5-3.4-1.1-5-1.7c-0.9-0.3-1.9-0.7-2.8-1c-4.9-1.7,3.9,1.8,1.2,0.5c-3.3-1.6-6.6-3.1-9.7-5
				c-1.4-0.9-2.8-1.8-4.2-2.7c-0.6-0.4-1.1-0.9-1.7-1.2c5.6,3.3,2.2,1.8,0.6,0.4c-1.2-1.1-2.4-2.2-3.6-3.4c-1-1-2.1-3-3.3-3.7
				c0.3,0.2,3.6,5.1,1.4,1.7c-0.4-0.6-0.8-1.1-1.1-1.7c-1.1-1.7-2.1-3.5-3-5.3c-0.4-0.8-0.7-1.7-1.1-2.4c0-0.1,1.8,5.3,1.3,2.9
				c-0.3-1.5-1-2.9-1.4-4.4c-0.5-1.7-0.8-3.4-1.1-5.1c-0.2-0.9-0.5-3.4,0.1,0.7c0.6,4.6,0.1,0.5,0.1-0.6c-0.2-3.3,0.2-6.6,0.2-9.9
				c0.1-2.8-0.4,3.9-0.5,3.4c-0.1-0.7,0.3-1.9,0.5-2.6c0.4-1.8,0.8-3.5,1.3-5.2c0.5-1.7,1.1-3.4,1.7-5.1c1.4-4-2.6,5.6-0.1,0.3
				c1.6-3.3,3.4-6.5,5.5-9.6c0.4-0.6,0.8-1.1,1.2-1.7c2.3-3.3-1,1.5-1.4,1.7c1.2-0.9,2.2-2.6,3.2-3.7c2.6-2.8,5.5-5.4,8.5-7.9
				c2.4-2.1-4.2,3-1.5,1.2c0.6-0.4,1.2-0.9,1.8-1.3c1.6-1.1,3.3-2.2,5-3.3c3.5-2.1,7-4,10.7-5.8c0.7-0.3,1.4-0.6,2.1-1
				c2.9-1.4-4.8,1.9-1.7,0.7c1.7-0.6,3.4-1.3,5.1-1.9c3.9-1.4,8-2.6,12-3.7c3.6-0.9,7.2-1.7,10.9-2.4c2.1-0.4,4.2-0.7,6.3-1.1
				c0.8-0.1,3.6-0.6-0.1,0c-4.2,0.6,0.6,0,1.5-0.1c8.1-0.8,16.2-1.1,24.4-1c4.1,0.1,8.1,0.3,12.1,0.6c1.9,0.2,3.9,0.3,5.8,0.5
				c1.1,0.1,2.2,0.3,3.3,0.4c4.7,0.5-4.1-0.6-0.9-0.1c8,1.3,15.9,2.8,23.7,4.9c3.8,1,7.6,2.2,11.3,3.4c1.7,0.6,3.4,1.2,5.2,1.8
				c1.7,0.6,8.8,4,2,0.7c7.1,3.5,14.2,6.7,21,10.7c3.2,1.9,6.4,3.9,9.5,6c1.8,1.2,3.6,2.5,5.4,3.8c1.3,0.9,7.2,5.4,1.6,1.1
				c5.5,4.3,10.4,7.3,17.7,7.3c6.1,0,13.5-2.7,17.7-7.3C782.6,183.4,785.4,165.5,774.4,156.9L774.4,156.9z"/>
		</g>
	</g>
	<g class="st1">
		<g>
			<g>
				<path d="M241.9,620.7c45.5-12.9,89.7-29.9,132.3-50.3c11.8-5.7,15.9-23.5,9-34.2c-7.8-12.1-21.6-15-34.2-9
					c-9.9,4.7-19.8,9.3-29.9,13.6c-0.9,0.4-1.7,0.7-2.6,1.1c0.8-0.4,1.7-0.7,2.5-1.1c-1,0.6-2.4,1-3.5,1.4c-2.6,1.1-5.2,2.1-7.8,3.2
					c-5.2,2.1-10.5,4.1-15.8,6.1c-20.8,7.8-41.9,14.8-63.3,20.8c-12.6,3.6-21.6,17.8-17.5,30.8C215.3,616.1,228.4,624.6,241.9,620.7
					L241.9,620.7z"/>
			</g>
		</g>
		<g>
			<g>
				<path d="M337.2,549c0.8,79.2,1.7,158.3,2.5,237.5c0.2,22.6,0.5,45.2,0.7,67.9c0.1,13.1,11.4,25.6,25,25c13.4-0.6,25.1-11,25-25
					c-0.8-79.2-1.7-158.3-2.5-237.5c-0.2-22.6-0.5-45.2-0.7-67.9c-0.1-13.1-11.4-25.6-25-25C348.8,524.6,337,535,337.2,549
					L337.2,549z"/>
			</g>
		</g>
		<g>
			<g>
				<path d="M222,887.3c70.6,0.1,141.2,0.2,211.7,0.2c20,0,40,0,59.9,0.1c13.1,0,25.6-11.5,25-25c-0.6-13.6-11-25-25-25
					c-70.6-0.1-141.2-0.2-211.7-0.2c-20,0-40,0-59.9-0.1c-13.1,0-25.6,11.5-25,25C197.6,875.9,208,887.3,222,887.3L222,887.3z"/>
			</g>
		</g>
	</g>
	<g class="st1">
		<g>
			<g>
				<path d="M507,579.3c75.8,0,151.6,0,227.4,0c21.5,0,43,0,64.6,0c13.1,0,25.6-11.5,25-25c-0.6-13.5-11-25-25-25
					c-75.8,0-151.6,0-227.4,0c-21.5,0-43,0-64.6,0c-13.1,0-25.6,11.5-25,25C482.6,567.9,493,579.3,507,579.3L507,579.3z"/>
			</g>
		</g>
		<g>
			<g>
				<path d="M773.9,540.2C716.4,623.4,659,706.6,601.6,789.9c-16.2,23.5-32.5,47.1-48.7,70.6c-7.4,10.8-2.4,28.2,9,34.2
					c12.7,6.7,26.3,2.6,34.2-9c57.4-83.2,114.9-166.5,172.3-249.7c16.2-23.5,32.5-47.1,48.7-70.6c7.4-10.8,2.4-28.2-9-34.2
					C795.3,524.5,781.8,528.7,773.9,540.2L773.9,540.2z"/>
			</g>
		</g>
		<g>
			<g>
				<path d="M599.5,731.9c0.1-0.6,0.4-1.1,0.5-1.7c0.6-2.8-2.8,5-1.1,2.7c0.6-0.8,3.1-4.5,0.4-1c-2.7,3.5,0.6-0.3,1.4-1.2
					c0.6-0.6,2.6-2-0.5,0.3c-3.3,2.5-0.6,0.5,0.2,0c1.3-0.9,2.7-1.7,4.2-2.5c0.6-0.3,1.3-0.6,1.9-0.9c2.3-1.2-2.8,1.1-2.7,1.1
					c3.6-0.7,7.1-2.4,10.7-3.1c0.7-0.1,1.5-0.2,2.2-0.4c0.1,0-5.6,0.5-2.9,0.4c1.8-0.1,3.5-0.3,5.2-0.3c1.9,0,3.7,0,5.6,0.1
					c0.9,0,1.9,0.1,2.8,0.2c0.9,0.1,1.9,0.2,2.8,0.3c-1-0.1-2-0.3-3-0.4c3.3,1.5,8.3,1.5,11.8,2.3c4.2,1,8.3,2.2,12.5,3.5
					c33.1,10.4,69,25.9,103.7,12.1c21.6-8.6,38.3-24.1,40.2-48.3c1-13.1-12.2-25.6-25-25c-14.4,0.6-23.9,11-25,25
					c0-0.1,1.5-5.5,0.5-3.7c-0.2,0.4-0.4,1.3-0.4,1.7c-0.8,4.1,1-3.1,1.2-2.6c0.1,0.3-0.9,1.3-0.9,1.6c0,0.5-0.9,1.1-1,1.6
					c0.1-0.2,3.6-3.8,1.9-2.6c-0.7,0.5-5.5,4.8-1.9,2.1c3.4-2.6-0.6,0.3-1.5,0.8c-1.5,0.9-3,1.6-4.5,2.4c-3.9,2,4.7-1.5,0.4-0.3
					c-2,0.6-3.9,1.2-5.9,1.7c-1.5,0.3-3.1,0.4-4.5,0.9c0,0,5.5-0.4,2.8-0.4c-1.2,0-2.4,0.2-3.6,0.2c-4.4,0.2-8.6-0.2-13-0.5
					c-2.9-0.2,2,0.2,2.1,0.3c-0.3-0.3-2.3-0.4-2.7-0.5c-2.1-0.4-4.3-0.8-6.4-1.3c-4.2-1-8.4-2.1-12.5-3.4
					c-32.9-10-66.6-25.1-101.4-13.9c-19.2,6.1-37.3,19.1-42.6,39.5c-3.3,12.6,4.2,27.7,17.5,30.8C581.8,752.4,596,745.5,599.5,731.9
					L599.5,731.9z"/>
			</g>
		</g>
	</g>
</g>
<g id="outlined" class="st0">
	<path class="st2" d="M431.1,436.9c7.8-5.4,31.1-10,39.6,6.5c7,10.8,2.8,28.4-9,34.2C163.3,602.3,36.9,137.5,361.7,110.5
		c39.5,0,79.9,13.3,115.6,43.8c25.2,32-19.9,53.9-34,36.3c-67.8-50.3-149.4-33.9-195.1,23.8c-53.6,67.7-9.6,176,30.8,204.2
		C321.4,453.5,386.5,453.5,431.1,436.9z"/>
	<path class="st2" d="M635.8,453.8c-27.8-3.5-53.4-15.5-70.2-28.4c-9.7-8.2-41.2-34-52.6-16.7c-17.6,36.8,72.4,116.8,197.8,87.4
		C832,455.2,846,296.5,715.9,264.5c-59.5-16.2-143.2,9.5-171.5-37.9c-9.9-15.1-0.9-29.1,7.7-38.7c45-47.4,139.7-33.3,187.3,4.7
		c22.5,22.5,58.3-13.9,34.9-35.8C697.7,92.7,538,80.3,496.1,189.4c-11.7,35.2,3.6,74.9,34.8,94.5c76.3,51.6,246.8-14.3,229.6,97.8
		C751.4,440.3,690.5,460.5,635.8,453.8z"/>
	<g class="st1">
		<path class="st3" d="M493.7,887.7c-90.6-0.1-181.1-0.2-271.7-0.3c-14,0-24.4-11.4-25-25c-0.6-13.5,11.9-25,25-25
			c39.4,0.1,78.8,0.1,118.3,0.1c-0.9-83.5-1.8-167-2.7-250.5c-31.2,13.2-63.1,24.5-95.7,33.8c-13.5,3.8-26.6-4.7-30.8-17.5
			c-4.2-12.9,4.9-27.2,17.5-30.8c30.7-8.7,71.7-24.4,70.9-24c23-7,44.5-20.9,59.2-24.1c14.7-3.1,28.4,10.3,28.5,24.6
			c1,96.2,2,192.4,3.1,288.5c34.5,0,68.9,0.1,103.4,0.1c14,0,24.4,11.4,25,25C519.3,876.1,506.7,887.7,493.7,887.7z"/>
	</g>
	<g class="st1">
		<path class="st3" d="M809,577.1c-27.9,40.5-55.9,81-83.8,121.4c7.2-0.1,15.6-1.5,20.6-7.1c23.7-59.6,92.3,16.2,9.3,51.9
			c-20.3,8.1-41,6.1-61.4,1c-32.5,47.2-65.1,94.3-97.6,141.5c-8,11.5-21.5,15.7-34.2,9c-11.3-6-16.4-23.4-9-34.2
			c30.3-43.9,60.5-87.8,90.8-131.6c-14.2-3.5-32.1-7.2-44.2,3c-8.5,31.2-57,17.8-48.2-13.3c16.4-50.6,81.1-49.1,122-32.6
			c24.6-35.6,49.1-71.1,73.6-106.7H507c-14,0-24.4-11.4-25-25c-0.6-13.5,11.9-25,25-25h280.6C816.4,518.7,840.2,563.6,809,577.1z"/>
	</g>
</g>
<g id="Layer_3">
	<g>
		<path d="M431.5,437.8c7.8-5.4,35.6-13.8,44.1,2.8c7,10.8-3,29.3-14.8,35.1c-11.4,4.8-22.7,6.8-33.6,9.9
			c-11.9,3.4-21.8,13.7-33,15.2c-12.2,1.7-24.5-1.5-35.9-1.8c-12.2-0.3-22.9-6.7-34.1-9.1c-11.8-2.5-24.8,0.3-35.5-4.3
			c-11-4.7-19.8-13.4-29.4-20c-9.8-6.7-23.3-9.5-31.6-17.8c-8.3-8.4-18-17.2-24.7-26.8c-6.7-9.7-7.8-23.6-12.8-34.2
			c-5-10.7-4.1-23.4-7.3-34.7c-3.2-11.4-4.3-22.4-5.6-34.1c-1.3-11.8-0.3-22.6,0.4-34.3c0.7-11.8-6.1-24.4-3.2-35.8
			c2.9-11.4,4.4-24.1,9.5-34.8c5-10.5,20.7-14.5,28-24c7.1-9.1,11-20.4,20.2-28.3c8.7-7.4,17.2-15.4,28-21.4
			c9.9-5.5,20.8-9.7,32.5-13.8c10.6-3.8,21.8-7,34-9.5c11-2.2,22.8-0.9,35.1-1.9c10.4,0,20.8-2.7,31.2-0.8
			c10.2,1.9,19.6,6.7,29.6,10.6c9.6,3.7,18.7,8.1,28,13.7c8.7,5.3,18.8,9.2,27.1,16.3c11.4,14.5,5.7,24.8-2.3,32.4
			c-9.7,9.2-20.9,10.3-28.7,0.7c-10.2-7.6-26.2-5.5-36.8-10.1c-11.5-5-22.3-6.4-33.9-8.2c-12.2-1.9-23.9-12.3-35.8-10.9
			c-12.1,1.5-22.7,10.3-33.9,14.9c-11.1,4.6-25.4,5-35.2,12.5c-9.5,7.3-11.7,22.4-19.4,32.1c-8.1,10.2-18.1,18.2-22.1,29.8
			c-4.1,11.9-8.2,24.4-8.7,37c-0.5,12.5,10.5,23.9,12.7,36.2c2.3,12.6-0.4,25.7,4.1,37c4.9,12.3,4.3,27.6,10.7,37.4
			c7.9,12,21.6,18.7,30.1,24.7c10.4,8.5,23.6,11.6,36.1,16.2c12.5,4.6,25.1,4.9,38.4,6.1c13.4,1.3,26.4,5.6,39.3,4
			C406.1,443.9,419.8,442.2,431.5,437.8z"/>
	</g>
	<g>
		<path d="M635.7,454.6c-13-1.7-27.4-1-38.8-5.6c-12.9-5.2-22-17.2-31-24c-4.8-4-13.5-14.8-23.7-20.1c-10.7-5.6-30.1-8.8-35.9,0
			c-4.4,9.2,0.2,27.7,8,39.8c5.5,8.5,14.6,19,25.1,27c8.6,6.5,24.8,2.4,36.3,7.7c10.1,4.6,19.9,9.2,31.8,12.2
			c10.9,2.7,21.5,6.1,33.7,7c11.2,0.8,23.1,8.3,35.2,7.3c11.2-0.9,24.4-0.1,36.3-2.9c11.8-4,19.9-17.1,29.7-23.1
			c10.5-6.5,24.4-9.1,32.4-17.4c8.5-8.8,9.6-23.4,15.2-33.6c5.9-10.7,12.5-20.6,15-32c2.6-11.8-2-23.3-3.1-35.1
			c-1.1-11.9,1.2-24-3.8-34.8c-4.8-10.5-15.2-16.8-23.9-25.6c-7.9-8-13.2-19.9-24.5-25.7c-9.8-5.2-20.4-12.7-32.8-15.8
			c-11.3-3.1-24.2-5.5-36.7-6.4c-12-0.8-24.6,3.4-36.7,3.2c-12.5-0.2-24.9,2.5-36.5,1.5c-13-1.1-27.3,1.1-37.7-3.1
			c-11.5-4.6-13-21.2-19.5-32.2c-9.9-15.1-10.5-29.2-1.9-38.8c7.8-8.2,22.9-7,33.2-11.7c10-4.6,19.3-10.7,30.7-12.3
			c10.9-1.6,22.7-10.5,34.1-9.7c11.2,0.8,20.5,15.8,31.3,18.6c11.1,2.9,24.9-2.2,34.8,2.5c10.7,5,19.4,13.7,27.8,20.4
			c11.2,11.2,25.4,8.7,34.2-0.2c8.9-9,11.7-23.9,0-34.8c-8.9-7.4-15.4-20.4-26.2-26.3c-10.3-5.7-24.7-4.3-36.1-8.4
			c-11.2-4-23.9-1.5-35.6-3.9c-11.7-2.4-22.6-7.7-34.5-8.3c-12.1-0.6-23.3,3.6-35,5.1c-12.1,1.5-23.6,0.9-34.7,4.8
			c-11.4,4-18.9,12.9-28.6,19.6c-9.7,6.7-26.6,5.8-34.1,15.4c-7,9-7.1,23.2-11.6,34.9c-3.9,11.7-7.4,23.3-5.8,35.1
			c1.7,11.9,3.3,25.6,9.8,35.7c6.4,10,22,11.3,32.3,17.8c9.4,6.3,15,22.2,26.7,25.6c10.8,3.1,24.6-4.4,36.5-2.9
			c11.4,1.4,23,2.3,34.7,2.9c11.8,0.6,23.1,11,34.4,11.6c12.2,0.7,24.9-8.5,35.8-6.9c12.7,1.9,23.5,8.6,32.9,13.3
			c10.9,5.5,15.2,14.6,19.4,26.2c3.3,9.1,7.4,18.9,5.2,33.1c-2.2,14.4-0.9,31.3-8.6,41.3c-8.1,10.6-26.9,9.8-39.2,15.7
			c-11.7,5.6-23.6,6.9-37.1,8.7C661.8,449,648.9,456.2,635.7,454.6z"/>
	</g>
	<g>
		<g>
			<g>
				<path d="M493.7,884.7c-11.3,0-22.6-3.6-34-3.6c-11.3,0-22.7,13.4-34,13.4c-11.3,0-22.6-12.1-33.9-12.1
					c-11.3,0-22.7,10.9-34,10.9c-11.3,0-22.6-5-34-5c-11.3,0-22.6-6.5-33.9-6.5c-11.3,0-22.6,1.6-34,1.6c-11.3,0-22.6,10.5-34,10.4
					c-14,0-28-17.7-28.6-31.3c-0.6-13.5,15.6-28.1,28.6-28.1c13.1,0,26.3-3,39.4-3c13.1,0,26.3,5.3,39.4,5.3s26.4,0.9,39.5,0.9
					c-0.1-11.9,4.9-24,4.8-36s-9.3-23.8-9.4-35.7s0.7-23.9,0.6-35.8c-0.1-11.9-2.9-23.8-3.1-35.8c-0.1-11.9,2.8-23.9,2.7-35.8
					c-0.1-11.9-3.3-23.8-3.4-35.8c-0.1-11.9,6.7-26.1,6.6-38c-10.4,4.4-21.8,12.5-32.3,16.5c-10.6,4-22,5.6-32.7,9.1
					c-10.7,3.5-21.6,6.3-32.5,9.4c-13.5,3.8-33.2-1.5-37.4-14.3c-4.2-12.9,11.1-31.8,23.7-35.4c11.4-3.2,26.1-1.3,37.6-5.3
					c19.6-6.7,33-21.4,32.5-21.2c10.3-3.1,23.7,1.1,32.9-3.2c11.3-5.3,19.5-14.6,27.6-16.4c14.7-3.1,32,10.6,32,24.9
					c0.1,12-1.9,24.1-1.8,36.1c0.1,12-7.4,24.1-7.2,36.1c0.1,12,9.8,23.9,10,36c0.1,12-2.7,24.1-2.5,36.1c0.1,12-7.3,24.1-7.1,36.1
					c0.1,12,14.3,23.9,14.5,35.9c0.1,12-0.2,24,0,36.1c0.1,12-9.9,27.6-9.7,39.7c11.5,0,26.6,2.3,38.1,2.3c11.5,0,23-7.8,34.5-7.8
					c11.5,0,23-3.7,34.5-3.7c14,0,18.6,17.5,19.2,31C513.5,876.4,506.7,884.7,493.7,884.7z"/>
			</g>
		</g>
	</g>
	<g>
		<g>
			<g>
				<path d="M813.3,582.9c-7,10.1-23.8,10.6-30.8,20.8c-7,10.1-11.4,22-18.3,32.2c-7,10.1-10.1,22.9-17.1,33
					c-7,10.1-21.8,19.8-28.8,29.9c7.2-0.1,19.9-3.1,24.8-8.8c6.3-15.8,18.5-13.7,27.5-13.8c11,0,17.6,3.2,20.2,16
					c2,9.7,5.9,23-3.9,34c-6.3,7-19.1,9.6-32.4,15.3c-10.1,4-19.5,0.8-29.7,0.7c-10.3-0.1-21.1,3.7-31.3,1.1
					c-6.5,9.4-13.7,19.2-20.2,28.6s-6.6,23.3-13.1,32.7s-16.8,16.3-23.3,25.7c-6.5,9.4-11.5,19.9-18,29.3s-11.1,20.2-17.6,29.6
					c-8,11.5-26.5,12.4-39.3,5.6c-11.3-6-20.9-26.6-13.4-37.4c7.6-11,16.1-21.3,23.7-32.2c7.6-11,16-21.4,23.6-32.3
					c7.6-11,23.2-16.4,30.8-27.4c7.6-11,8.2-25,15.8-35.9c-14.2-3.5-26.1-5.1-38.3,5.2c-4.2,15.6-22.6,16.1-34.7,12.7
					c-12.1-3.3-20.9-12.8-16.5-28.4c4.1-12.5,6.2-26.8,15.1-33.5c9.2-7,23.7-8.2,35.7-10.1c11.4-1.8,24.5-5.2,36.3-3.6
					c12.1,1.7,21.3,3.4,31.5,7.5c6.1-8.9,16-9.9,22.2-18.8c6.1-8.9,13.9-16.7,20-25.6s5.3-22.6,11.4-31.5
					c6.1-8.9,15.2-13.3,21.4-22.2c-16.3-5.2-16.5,3.7-33.6,3.7c-17.1,0-17.1-4.6-34.3-4.6c-17.1,0-17.1-3.1-34.3-3.1
					c-17.1,0-17.1-2.7-34.3-2.7c-17.1,0-17.1,7.4-34.3,7.4c-17.1,0-17.1-3.8-34.3-3.8s-17.1-6.1-34.3-6.1c-14,0-25-4.2-25.6-17.7
					c-0.6-13.5,12.5-17.9,25.6-17.9c17.5,0,17.5-12.4,35.1-12.4c17.5,0,17.5,8,35.1,8c17.5,0,17.5-4.5,35.1-4.5
					c17.5,0,17.5,6.4,35.1,6.4c17.5,0,17.5,2.4,35.1,2.4c17.5,0,17.5-5.6,35.1-5.6c17.5,0,17.5-4.1,35.1-4.1
					c17.5,0,17.5,3.1,34.9,1.2c14.3-5.3,27.8,4.5,33.5,16C826.7,555.6,829,576.1,813.3,582.9z"/>
			</g>
		</g>
	</g>
</g>
<g id="Layer_4" class="st0">
	<g class="st1">
		<path d="M431.2,437.2c7.8-5.4,32.3-11.1,40.8,5.5c7,10.8,3.4,33.5-8.3,39.3c-11.4,4.8-24,6-34.9,9.1c-11.9,3.4-24,3.7-35.2,5.3
			c-12.2,1.7-24.1,8.4-35.4,8.1c-12.2-0.3-24.1-5.7-35.3-8.1c-11.8-2.5-24.6-3.4-35.2-8c-11-4.7-16.1-19.7-25.8-26.3
			c-9.8-6.7-22.1-9.5-30.4-17.8c-8.3-8.4-11.5-20.5-18.3-30.2c-6.7-9.7-23.4-13.9-28.4-24.6c-5-10.7-0.6-25.4-3.8-36.8
			c-3.2-11.4-7-22.4-8.4-34.1c-1.3-11.8-7.9-23.8-7.1-35.6c0.7-11.8,4.3-24.1,7.1-35.5c2.9-11.4,5.2-24.2,10.3-34.9
			c5-10.5,20.4-15.1,27.7-24.6c7.1-9.1,11.8-20.1,21-28c8.7-7.4,16.9-16.5,27.6-22.5c9.9-5.5,21.6-8.5,33.3-12.7
			c10.6-3.8,22-6.7,34.2-9.1c11-2.2,22.6-5,35-6c10.4,0,20.4,4.8,30.9,6.7c10.2,1.9,20.1,3.8,30.1,7.6c9.6,3.7,18.1,9,27.4,14.6
			c8.7,5.3,15.6,11.6,23.9,18.7c11.4,14.5,10.3,22.1,2.3,29.7c-9.7,9.2-20.2,8-27.9-1.6c-10.2-7.6-23.9-12.6-34.6-17.3
			c-11.5-5-25.7,0.2-37.4-1.6c-12.2-1.9-23.9-7.8-35.8-6.4c-12.1,1.5-26.3-0.1-37.5,4.5c-11.1,4.6-22.3,12.7-32.1,20.2
			c-9.5,7.3-11,23.1-18.7,32.8c-8.1,10.2-25.2,15.6-29.2,27.2c-4.1,11.9,0.1,26.8-0.4,39.3c-0.5,12.5,4.3,24.6,6.6,36.9
			c2.3,12.6,8.3,23.2,12.7,34.5c4.9,12.3,3.5,27,9.9,36.7c7.9,12,21.3,16.8,29.8,22.8c10.4,8.5,18.8,20.2,31.3,24.8
			c12.5,4.6,25.5,13.2,38.8,14.5c13.4,1.3,27.6-7,40.5-8.7C406.1,444,419.5,441.6,431.2,437.2z"/>
	</g>
	<g class="st1">
		<path d="M635,460.5c-13-1.7-22.1-18.3-33.5-22.9c-12.9-5.2-28.2-3.8-37.2-10.6c-4.8-4-13-14.5-23.3-19.8
			c-10.7-5.6-28.3-10.8-34.2-2c-4.4,9.2,2.6,25.4,10.4,37.6c5.5,8.5,18.7,11.7,29.2,19.7c8.6,6.5,14.6,18.7,26,23.9
			c10.1,4.6,22.2,5.6,34.2,8.6c10.9,2.7,22.3,2.7,34.6,3.6c11.2,0.8,23.1,9.1,35.3,8.1c11.2-0.9,22.4-7.4,34.3-10.2
			c11.8-4,24.9-5.5,34.6-11.5c10.5-6.5,18.7-16.7,26.7-24.9c8.5-8.8,10.7-21.7,16.3-31.8c5.9-10.7,17.9-18.9,20.4-30.3
			c2.6-11.8,3.8-25.1,2.7-36.8c-1.1-11.9-6.6-24-11.6-34.8c-4.8-10.5-15.1-18-23.7-26.8c-7.9-8-17-14.7-28.2-20.6
			c-9.8-5.2-19-14.7-31.5-17.8c-11.3-3.1-24.6,3.1-37,2.3c-12-0.8-24,1.4-36.1,1.2c-12.5-0.2-25.1-2-36.6-3
			c-13-1.1-25.2-6.8-35.6-11c-11.5-4.6-17.2-15.1-23.7-26.1c-9.9-15.1-6.8-29.5,1.8-39c7.8-8.2,19.4-13,29.7-17.7
			c10-4.6,22.2-1,33.6-2.6c10.9-1.6,21.9-13.5,33.3-12.7c11.2,0.8,22.3,7.5,33.1,10.3c11.1,2.9,24,2.5,33.9,7.1
			c10.7,5,22.2,11.5,30.5,18.2c11.2,11.2,26.3,16.9,35.1,7.9c8.9-9,6.8-27.7-4.8-38.6c-8.9-7.4-16.1-18.9-26.8-24.8
			c-10.3-5.7-25.3-1.4-36.8-5.5c-11.2-4-21.4-10-33.2-12.4c-11.7-2.4-22.9-12.7-34.8-13.2c-12.1-0.6-24.4,6.4-36.1,7.8
			c-12.1,1.5-24.5,2.2-35.6,6.1c-11.4,4-18.7,15.4-28.5,22.1c-9.7,6.7-21.8,10.5-29.3,20.2c-7,9-9.6,20.9-14.1,32.6
			c-3.9,11.7-0.2,21.9,1.5,33.7c1.7,11.9,2.6,21.9,9.1,32.1c6.4,10,15.3,15,25.6,21.5c9.4,6.3,17.6,11.6,29.3,14.9
			c10.8,3.1,20.2,15.9,32.1,17.3c11.4,1.4,24.2-10.6,35.9-9.9c11.8,0.6,22.8,15.4,34.2,16c12.2,0.7,25-8.8,35.8-7.2
			c12.7,1.9,20.1,15.4,29.5,20.1c10.9,5.5,22.3,6.7,26.5,18.3c3.3,9.1,11.6,21.5,9.4,35.7c-2.2,14.4-15.4,25.1-23.1,35
			c-8.1,10.6-18.8,18.2-31,24.1c-11.7,5.6-23.6,16-37.1,17.7C663.4,461.4,648.2,462.1,635,460.5z"/>
	</g>
	<g class="st1">
		<g>
			<g>
				<path d="M493.7,882.1c-11.3,0-22.6,9.1-34,9.1s-22.6,1.8-34,1.8c-11.3,0-22.6-10.9-33.9-10.9c-11.3,0-22.6,9.3-34,9.3
					c-11.3,0-22.6-8.1-33.9-8.2c-11.3,0-22.6,8.7-34,8.7c-11.3,0-22.6-8-33.9-8c-11.3,0-22.6,5.2-34,5.2c-14,0-26.2-13.1-26.8-26.7
					c-0.6-13.5,13.7-18.8,26.8-18.8c13.1,0,26.3-3,39.4-3c13.1,0,26.3-1.9,39.4-1.9c13.1,0,26.4-1.1,39.6-1.1
					c-0.1-11.9-3.7-24-3.8-35.9c-0.1-11.9-3.3-23.8-3.4-35.8s0.2-23.9,0.1-35.8c-0.1-11.9,3-23.9,2.9-35.8c-0.1-11.9,9.1-24,9-35.9
					c-0.1-11.9-1.9-23.8-2-35.8s-7.5-20.9-7.6-32.8c-10.4,4.4-18,7.8-28.5,11.8c-10.6,4-20.8,9.1-31.6,12.6
					c-10.7,3.5-22.6,3.4-33.5,6.4c-13.5,3.8-21.1-6.4-25.3-19.2c-4.2-12.9-1.7-29.3,10.9-32.8c11.4-3.2,26.4-0.2,37.9-4.2
					c19.6-6.7,33-21.6,32.4-21.4c10.3-3.1,24,1.9,33.2-2.4c11.3-5.3,20.3-10.6,28.4-12.4c14.7-3.1,31,6.3,31,20.7
					c0.1,12,1.8,24,2,36c0.1,12-9.8,24.2-9.7,36.2c0.1,12,4.9,24,5,36c0.1,12-3.1,24.1-3,36.1c0.1,12,8,24,8.2,36
					s-2.9,24.1-2.8,36.1s0.1,24,0.2,36.1c0.1,12,3.9,20,4,32.1c11.5,0,18.8,0.6,30.3,0.6c11.5,0,23,1.8,34.5,1.8
					c11.5,0,23,6.1,34.5,6.1c14,0,17.8,7.4,18.4,21C512.6,876.4,506.7,882.1,493.7,882.1z"/>
			</g>
		</g>
	</g>
	<g class="st1">
		<g>
			<g>
				<path d="M806.9,574.3c-7,10.1-11,23.6-18,33.7s-8.8,23.8-15.7,34c-7,10.1-14.2,20.1-21.2,30.2c-7,10.1-21.3,16.3-28.3,26.4
					c7.2-0.1,11.5-4.4,16.5-10.1c6.3-15.8,21.4-15.7,30.3-15.7c11,0,19.8,6.2,22.4,19c2,9.7-0.8,19.4-10.6,30.4
					c-6.3,7-15.1,12.5-28.4,18.2c-10.1,4-19.1,10.9-29.3,10.8c-10.3-0.1-21.3-6-31.6-8.6c-6.5,9.4-17.5,17.1-24,26.5
					c-6.5,9.4-7.3,22.8-13.8,32.3c-6.5,9.4-18.9,14.8-25.4,24.3c-6.5,9.4-10.6,20.5-17.1,30s-13.5,18.5-20,28
					c-8,11.5-18.1,17.9-30.8,11.2c-11.3-6-20.2-26-12.8-36.8c7.6-11,24.9-15.2,32.5-26.2s6.7-27.8,14.2-38.7s19.9-18.7,27.5-29.6
					c7.6-11,8.5-21.5,16-32.5c-14.2-3.5-21.8-5.5-34,4.7c-4.2,15.6-23.2,12.4-35.3,9.1c-12.1-3.3-20-9.6-15.6-25.2
					c4.1-12.5,6.6-24.7,15.4-31.4c9.2-7,20.8-16,32.9-18c11.4-1.8,25.1,1.6,36.9,3.3c12.1,1.7,25,13.8,35.3,18
					c6.1-8.9,10.3-23.5,16.4-32.4c6.1-8.9,6.7-21.6,12.8-30.5s21.5-11.4,27.6-20.3s7.9-16.3,14-25.2c-16.3-5.2-16-6.8-33.1-6.8
					c-17.1,0-17.1,7.7-34.3,7.7c-17.1,0-17.1,2.4-34.3,2.4c-17.1,0-17.1-13.3-34.3-13.3c-17.1,0-17.1,5.7-34.3,5.7
					c-17.1,0-17.1-5.2-34.3-5.2s-17.1,9.1-34.3,9.1c-14,0-22.1-14.8-22.7-28.4c-0.6-13.5,9.6-21.2,22.7-21.2
					c17.5,0,17.5-1.3,35.1-1.3c17.5,0,17.5-9.5,35.1-9.5c17.5,0,17.5,14.2,35.1,14.2c17.5,0,17.5-11.2,35.1-11.2
					c17.5,0,17.5-2.2,35.1-2.2c17.5,0,17.5,3,35.1,3c17.5,0,17.5,2.8,35.1,2.8c17.5,0,18.1,6.5,35.5,4.7c14.3-5.3,33.1-3.9,38.7,7.6
					C832.5,552.7,822.6,567.6,806.9,574.3z"/>
			</g>
		</g>
	</g>
</g>
<g id="Layer_5" class="st0">
	<g class="st1">
		<path d="M432.6,439.9c7.8-5.4,32.3-14.6,40.8,2c7,10.8-2.7,23.7-14.5,29.5c-11.4,4.8-19.1,16.8-30,19.9
			c-11.9,3.4-24.7-1.3-35.9,0.3c-12.2,1.7-23.2,6.5-34.6,6.2c-12.2-0.3-23-5.2-34.2-7.6c-11.8-2.5-21.5-7.6-32.1-12.2
			c-11-4.7-22.7-6.3-32.3-12.9c-9.8-6.7-23.2-9.4-31.5-17.7c-8.3-8.4-14.7-19.2-21.5-28.9c-6.7-9.7-10.1-21.6-15.1-32.3
			c-5-10.7-3.5-23.3-6.7-34.6c-3.2-11.4-19.2-20.4-20.5-32.1c-1.3-11.8,7.3-24.3,8-36.1c0.7-11.8-5.5-25.2-2.6-36.6
			c2.9-11.4,11.7-21.7,16.9-32.4c5-10.5,12.7-19.9,20-29.4c7.1-9.1,13.7-19.4,23-27.2c8.7-7.4,21-10.2,31.7-16.2
			c9.9-5.5,19.1-13.3,30.8-17.5c10.6-3.8,22.7-3.9,34.8-6.4c11-2.2,22-13.2,34.3-14.2c10.4,0,21.5,6.7,32,8.6
			c10.2,1.9,19.6,7.2,29.6,11.1c9.6,3.7,19.5,7.1,28.8,12.7c8.7,5.3,14.8,13.7,23.1,20.8c11.4,14.5,8.9,22.5,0.9,30.1
			c-9.7,9.2-20.8,9.5-28.5-0.1c-10.2-7.6-27.1-4-37.8-8.6c-11.5-5-21.2-11.1-32.9-12.9c-12.2-1.9-23.6-1.5-35.5-0.1
			c-12.1,1.5-22.7,5.1-33.9,9.8c-11.1,4.6-25.3,4.2-35,11.7c-9.5,7.3-19.1,16-26.8,25.8c-8.1,10.2-6.3,25.2-10.3,36.8
			c-4.1,11.9-3.3,23-3.8,35.6c-0.5,12.5-11.4,25.6-9.1,37.9c2.3,12.6,4.3,26.2,8.8,37.6c4.9,12.3,20.4,18.8,26.8,28.6
			c7.9,12,12.5,24.5,21.1,30.5c10.4,8.5,20.8,18.8,33.3,23.5c12.5,4.6,27.5,0.1,40.8,1.3c13.4,1.3,25.9-1.6,38.9-3.3
			C405.4,438.8,420.8,444.3,432.6,439.9z"/>
	</g>
	<g class="st1">
		<path d="M635.9,453.2c-13-1.7-22.7-11.8-34.1-16.3c-12.9-5.2-25-7.4-33.9-14.2c-4.8-4-15.9-11.3-26.2-16.7
			c-10.7-5.6-18.1-3.3-23.9,5.5c-4.4,9.2-13.2,22.4-5.4,34.5c5.5,8.5,20.6,12.4,31.1,20.4c8.6,6.5,19.2,11,30.7,16.3
			c10.1,4.6,21.3,6.1,33.3,9.1c10.9,2.7,21.7,3,34,3.9c11.2,0.8,21.8-0.7,34-1.7c11.2-0.9,23.3,4.6,35.2,1.8
			c11.8-4,23.8-6.9,33.5-12.9c10.5-6.5,16-18.4,24-26.7c8.5-8.8,20.4-14.7,26-24.8c5.9-10.7,15.7-21.3,18.3-32.7
			c2.6-11.8-3.7-25.5-4.7-37.2c-1.1-11.9-11.4-20.3-16.4-31.2c-4.8-10.5-5.4-22.9-14.1-31.7c-7.9-8-14.8-19.6-26-25.5
			c-9.8-5.2-24.6,0.7-37-2.3c-11.3-3.1-21.3-17.9-33.8-18.8c-12-0.8-24.8,13.7-36.9,13.5c-12.5-0.2-25.1-2.4-36.7-3.4
			c-13-1.1-22.1-14.9-32.5-19c-11.5-4.6-18.8-8.4-25.3-19.4c-9.9-15.1-6.1-26.7,2.5-36.2c7.8-8.2,20.1-8.8,30.4-13.5
			c10-4.6,17.9-17.3,29.3-18.9c10.9-1.6,23.1,0,34.5,0.8c11.2,0.8,21.6,7.6,32.5,10.4c11.1,2.9,22.3,4.7,32.2,9.3
			c10.7,5,25,5.7,33.3,12.4c11.2,11.2,20.7,11.8,29.5,2.8c8.9-9,11.7-21.7,0-32.6c-8.9-7.4-20.6-10.2-31.4-16.2
			c-10.3-5.7-17.3-18.8-28.7-22.9c-11.2-4-23.2-7.3-35-9.7c-11.7-2.4-24.4,1.7-36.3,1.1c-12.1-0.6-24.6-7.6-36.3-6.1
			c-12.1,1.5-23.5,8.2-34.6,12.1c-11.4,4-23,8.7-32.7,15.4c-9.7,6.7-12,20.7-19.5,30.4c-7,9-17.3,15.6-21.8,27.4
			c-3.9,11.7-6.7,23.7-5.1,35.5c1.7,11.9,4.1,25.1,10.6,35.3c6.4,10,17.4,17.7,27.7,24.3c9.4,6.3,19,15.9,30.7,19.2
			c10.8,3.1,23.1,7.1,35.1,8.5c11.4,1.4,23.7,1.7,35.5,2.3c11.8,0.6,24.3-12.1,35.7-11.5c12.3,0.7,24.8,0.3,35.6,2
			c12.7,1.9,23.8,10.6,33.1,15.4c10.9,5.5,21.3,13.7,25.5,25.3c3.3,9.1,4.7,22,2.6,36.2c-2.2,14.4-7.9,28.6-15.6,38.5
			c-8.1,10.6-20.8,19.1-33,25c-11.7,5.6-26.4,4.6-39.9,6.3C662.4,453.8,649.1,454.8,635.9,453.2z"/>
	</g>
	<g class="st1">
		<g>
			<g>
				<path d="M493.7,889.1c-11.3,0-22.6,4.6-34,4.6c-11.3,0-22.6,1-34,1c-11.3,0-22.6-13.2-33.9-13.2c-11.3,0-22.6,3.7-34,3.7
					c-11.3,0-22.6,4-34,4c-11.3,0-22.6,1.7-34,1.7c-11.3,0-22.6-10.7-33.9-10.7c-11.3,0-22.7,14-34,14c-14,0-30.1-18.1-30.7-31.7
					c-0.6-13.5,17.6-18.7,30.7-18.7c13.1,0,26.3-2.4,39.4-2.4c13.1,0,26.3,1.8,39.4,1.8c13.1,0,21.8-10.8,34.9-10.8
					c-0.1-11.9,1-18.9,0.9-30.8s2.2-23.9,2.1-35.8s-3.7-23.8-3.8-35.7c-0.1-11.9,3.3-23.9,3.2-35.8s-2.6-23.8-2.8-35.8
					c-0.1-11.9-3.5-23.8-3.7-35.7c-0.1-11.9,8.5-27.3,8.3-39.3c-10.4,4.4-24.4,9.2-34.9,13.1c-10.6,4-19.7,11.8-30.4,15.4
					c-10.7,3.5-20.1,12-30.9,15.1c-13.5,3.8-29-10.9-33.1-23.7c-4.2-12.9,3.5-34.3,16-37.8c11.4-3.2,26.8,1.7,38.4-2.3
					c19.6-6.7,34.3-17.3,33.8-17c10.3-3.1,23.4-0.3,32.7-4.7c11.3-5.3,18.3-19.1,26.4-20.9c14.7-3.1,26.2,13.9,26.3,28.3
					c0.1,12,5.1,24,5.3,36c0.1,12-8.5,24.1-8.4,36.2c0.1,12,11.3,23.9,11.4,35.9c0.1,12,2.3,24,2.4,36c0.1,12-4.3,24.1-4.1,36.1
					c0.1,12,5.6,24,5.8,36c0.1,12-0.8,24.1-0.7,36.1c0.1,12-6.4,24.8-6.3,36.9c11.5,0,23.7-4.8,35.2-4.8s23,2.6,34.5,2.6
					c11.5,0,23,1,34.5,1c14,0,26.9,11.9,27.5,25.4C521.8,876,506.7,889.1,493.7,889.1z"/>
			</g>
		</g>
	</g>
	<g class="st1">
		<g>
			<g>
				<path d="M811.7,580.8c-7,10.1-18.4,15.4-25.4,25.5s-12.2,21.5-19.1,31.6c-7,10.1-12,21.6-18.9,31.7c-7,10.1-11.3,18.7-18.3,28.8
					c7.2-0.1,7.6-3.1,12.5-8.7c6.3-15.8,19-27.6,27.9-27.7c11,0,16.6,17.6,19.2,30.4c2,9.7,2.6,19-7.2,29.9
					c-6.3,7-14.1,15.3-27.4,21c-10.1,4-20.3,0.7-30.5,0.6c-10.3-0.1-19.7,5.3-29.9,2.7c-6.5,9.4-12.6,17.5-19.1,26.9
					s-14.7,17.7-21.2,27.2s-11.9,19.6-18.4,29.1s-11.1,20.2-17.6,29.6c-6.5,9.4-19.7,14.3-26.2,23.7c-8,11.5-17.9,18.9-30.7,12.2
					c-11.3-6-20.4-27-13-37.8c7.6-11,14.4-22.5,21.9-33.4c7.6-11,21.2-17.8,28.7-28.7s15.7-21.6,23.2-32.6s16.6-24.3,24.2-35.3
					c-14.2-3.5-30.6-3.1-42.8,7.2c-4.2,15.6-22.2,15-34.3,11.7c-12.1-3.3-16.8-10.4-12.4-26c4.1-12.5,7.1-21.1,16-27.8
					c9.2-7,19.2-10.2,31.2-12.1c11.4-1.8,23.2-6.7,35-5.1c12.1,1.7,22.7,3,33,7.2c6.1-8.9,14.9-13.2,21.1-22.1
					c6.1-8.9,9.8-19.5,15.9-28.4s18.9-13.2,25.1-22.1c6.1-8.9,6.3-21.5,12.5-30.4c-16.3-5.2-17,2.5-34.2,2.5c-17.1,0-17.1,1-34.3,1
					c-17.1,0-17.1-8.2-34.3-8.2c-17.1,0-17.1,6.6-34.3,6.6c-17.1,0-17.1-0.7-34.3-0.7c-17.1,0-17.1-7.2-34.3-7.2
					s-17.1,10.9-34.3,10.9c-14,0-27.6-16.6-28.2-30.2c-0.6-13.5,15.1-24,28.2-24c17.5,0,17.5-2.6,35.1-2.6c17.5,0,17.5,5.3,35.1,5.3
					c17.5,0,17.5-4.3,35.1-4.3c17.5,0,17.5-0.6,35.1-0.6c17.5,0,17.5,4.9,35.1,4.9c17.5,0,17.5-0.9,35.1-0.9c17.5,0,17.5,0,35.1,0
					c17.5,0,17.3-4.7,34.7-6.6c14.3-5.3,30.1,5.6,35.8,17.1C828.8,554.5,827.4,574.1,811.7,580.8z"/>
			</g>
		</g>
	</g>
</g>
</svg>
