<svg id="Layer_7" data-name="Layer 7" xmlns="http://www.w3.org/2000/svg" viewBox="0 0 1000 1000"><title>CS18_Logo</title><path d="M451.61,24.35c-1.05-.59-2.12-1.17-3.2-1.72-27.61-14.11-63.74-12.2-90.87,1.92-39.39,20.49-67.09,61.57-87.81,98.2-25.64,45.33-41,95.32-51.48,145.61-5.3,25.32-9.38,50.86-12.87,76.47-3.36,24.69-6.09,47.51,2.93,71.58A84.26,84.26,0,0,0,224.12,443c37.06,41.51,109.74,42.68,153.37,10.71,33.2-24.33,53.62-62.06,66.95-99.11,13.82-38.41-13.27-37.8-48.08-42.08-5.55-.68-9.14,1.57-11.22,4.87a13.65,13.65,0,0,0-6.5,6.87,170.56,170.56,0,0,1-23.17,39.64c-7,8.89-20.65,28-33.56,27.14-18.75-1.19-31.29-18-35.08-34.51-4.71-20.57,1.89-41.61,7.17-61.48a638.42,638.42,0,0,1,20.15-62.44c11.37-30.07,22.58-61.44,37-90.85,5.6-11.46,12-22.26,27.07-22.28,35.31,0,27.57,38.79,27.47,60.88-.05,10.83-7,33.24,11.71,33.24h38.86c22.59,0,23.37-26.76,25.89-41.59,3.09-18.2,6.36-36.43,7.59-54.85C492,82.15,486.05,43.85,451.61,24.35Zm10,89.17c-6.39,5.53-10.71-6.41-11.31-10.93-.89-6.61,0-13.24-.6-19.83-.85-9.69-5.84-18.37-15.1-22.15-3.11-1.26-6.89-1.12-9.54-3.31-4.2-3.46-3.95-8.77.08-12.24,8.33-7.2,20,2.08,26,8.07a50,50,0,0,1,3.95,4.4,51.87,51.87,0,0,1,9.71,19.72C467.18,86.79,470.07,106.21,461.62,113.52Z"/><path d="M773.07,71.83C766,57.64,753.84,46.2,734.19,39.47c-43-14.73-92.36-7.14-125.71,22.78-29.11,26.12-45.35,63.37-54.31,99.76a291.33,291.33,0,0,0-6.31,34.5c-2,16.09-4.66,33.3.14,49.17,5.67,18.75,21.49,24.37,37.87,33.3,16.87,9.2,30.93,22.41,44.63,35.33,11.3,10.65,26.15,24,25.91,40.48-.28,18.92-13.38,49-29.35,61-5.45,4.09-13.12,4.45-19.93,3.13a47.18,47.18,0,0,1-23.29-11.83,15.08,15.08,0,0,1-4.47-6.37c-.81-2.76-.2-5.7.45-8.5,3.85-16.61,9.69-32.45,15.15-48.6,3.72-11,7.66-25.14-6.43-31-14.36-6-33.2-9.34-48.8-9-22.24.46-25.63,41-29.09,55.54-6.43,27-11.41,57.9,1.84,83.85,5.28,10.35,13.7,18.21,23.21,24.79,26.54,24.77,69.82,32.75,109.72,24.8,23.22-4.62,39.13-18.91,55.2-34.68,3.87-3.8,7.77-7.63,10.83-12a84.57,84.57,0,0,0,5.73-10.21c15-29.92,36.21-68,26.66-102-4-14.31-13.91-26.54-25-36.92-14.94-13.94-31.33-26.87-47.34-39.69-23.3-18.63-40-36.62-41.25-66.3-.71-16.63,2.06-34.43,13.52-47.67,14.25-16.47,53-26.19,57.76,2.69,3.09,18.64-7.25,39-15,55.61-13.39,28.79,54,19.42,68,19.42a13.6,13.6,0,0,0,2.2-.43c5.4,0,10.34-2.7,11.32-9.48C773.7,171.28,792.68,111.06,773.07,71.83Zm-11.81,39.44c-.1,5.69.1,12.15-3.06,17.14a5,5,0,0,1-4.08,2.49c-2.47-.06-5-2.47-6-4.59-2-4.14-1.72-8.73-2-13.19a73,73,0,0,0-3.52-19.79c-2.06-5.84-5.92-12.52-12.29-14.17C728.26,78.62,726,78.7,724,78c-7.56-2.42-2.43-9.41,2.77-10.66a24.78,24.78,0,0,1,13.89,1.17,30.94,30.94,0,0,1,15.57,12.82C761.45,90.05,761.42,101.44,761.26,111.27Z"/><path d="M459,889.83c-2.43-6-7-9.89-14.49-9.89l-59.28,0c2.73-44.43,17.14-87.87,25.33-131.53,7.61-40.63,15.1-81.3,21.47-122.15,3.24-20.74,6.19-41.53,8.72-62.37,1.77-14.63,5.83-35-6.92-46.18-14.92-13-32.61-4.19-47.65,3.73-29.33,15.45-57.1,33.73-83.53,53.71q-20.19,15.27-39.4,31.78c-10.19,8.71-34.5,25.21-30.92,41.14s10.78,29.46,21.14,42c16.35,19.81,91.83-46,92-45.8a12.93,12.93,0,0,0,1.17,2.05q-30.15,116.4-57.07,233.57H284c-22.54,0-46.28-7.17-68.85-9.3-2.53-.23-5.19-.43-7.5.63-8.52,3.91-11.25,15.25-11.85,23.65-1.26,17.81-2.19,35.63-3.41,53.46-.62,9.07,6.13,13.38,13.14,13.25.49,0,.84.27,1.36.27,31.29-.1,62.53,1.91,93.8,2.72,22.17.58,44.32-1,66.49-1.39,21.94-.39,43.35,5.35,65.17,5.58C457.29,969,465.11,905,459,889.83ZM414.94,537.62c3.31.1,5.48,2.11,6.87,5,3.86,8,3.28,17.46,1.64,25.94-1.51,7.82-1.95,19.22-8.64,24.74-2.33,1.92-6,2.25-7.47-.91a9.43,9.43,0,0,1-.57-4.19c.17-5.48,1.59-10.8,2.07-16.21.5-5.65.93-11.31,1.41-17,.27-3.24-5.14-1-6.65-.82-2.87.29-6.27-.44-7.67-3.24C391.62,542.35,409,537.45,414.94,537.62Z"/><path d="M768.89,667.76c18.66-48.91,6.45-128.11-53.38-141.27A113,113,0,0,0,689,524.11c-20.36.41-39.87,5.49-58.14,13.83-82.43,37.62-108.06,159-49,225.55-41.6,37.92-72.32,90.65-67.42,146.34,1.91,21.77,10.47,41.94,27.27,56.27,18.47,15.76,48.55,22.36,72.24,23,55.89,1.55,117.29-36.37,124.37-95,5.57-46.16-17.21-93.5-45.52-128.56C724.63,738.26,753.35,708.46,768.89,667.76ZM662.94,879.57c-2.1,12.26-9.09,23.49-23.3,32-17.36,10.44-39.86,10.15-53.43-8.22-25.14-34,35.87-76.5,52.11-93C653.56,829.83,666.89,856.53,662.94,879.57Zm37.45-239.78a189,189,0,0,1-31.2,60.63A173.18,173.18,0,0,1,651.34,720c-7.42-10.4-14.32-21-19-32-11.76-27.57-3.25-71.47,20.65-90.74,10.58-8.52,29.74-12.64,42.37-6.84C714.44,599.16,705,624.89,700.39,639.79Zm11.55-79.38a5.84,5.84,0,0,1-.4-2.2c-.08-4.43,3.82-6.88,7.9-7.28,11.12-1.07,20.46,8.7,25.46,17,5.92,9.88,10.37,22,10.91,33.41.14,3,.87,6-1.21,8.22-3.62,3.78-9,1-11.22-2.84-2.76-4.69-3-10.77-4.51-15.91a44.46,44.46,0,0,0-19.54-25.44C717.06,564,713.1,563,711.94,560.41Z"/><path d="M224.89,565.73a4.36,4.36,0,0,0-1.94-.63c-22.12-1.92-45.51-3.77-47.59-31.11-.83-10.94-.21-22.16.37-33.27a96.59,96.59,0,0,0,1.15-14.15c0-5.12-7.21-5.5-8.44-1.22a4.08,4.08,0,0,0-.83,2.35c-.14,4.64-.55,9.74-1,15-6.76,35.21-35.21,61.63-72.72,64.71-4.9.4-5.48,7.23-1.68,8.48A4.35,4.35,0,0,0,94.56,577c19.47,2.42,39.33,12,45.17,32.27,4.26,14.75,2.17,32.6,2.48,47.8a4.35,4.35,0,0,0,.25,1.13c.3,4,.3,3.92,2.39,8.9,1.47,3.5,7.57,4.73,8.38,0,10.63-62,34.5-79.1,73.53-92.93C231.83,572.37,229.84,564.5,224.89,565.73ZM151,643.58c.29-17.3.43-35.92-9.16-50.11-7.14-10.57-17.4-17.09-28.85-21a87.79,87.79,0,0,0,52.8-42c.5,8.42,2.06,16.44,5.77,23.15,7.52,13.63,23,17.27,37.85,18.92C178.53,581.32,158.09,604.89,151,643.58Z"/><path d="M893,345.94a3.6,3.6,0,0,0-3.94-2.65c-38.88,2.59-40.26-43.62-38.88-70.77a3.73,3.73,0,0,0-1.32-3.21c-1.85-2.82-7.61-2-8.09,2.46-3.54,32.94-24.59,63.47-59.54,66.81a4.7,4.7,0,0,0-3.78,6.54,4,4,0,0,0,4.07,3.63C798.66,349,817,359.3,822,376.47c4,13.83,1.49,29,2.35,43.2a4.11,4.11,0,0,0,.87,2.3c-.09.55-.21,1.11-.29,1.65-.85,5.48,7.53,7.83,8.38,2.31,5.1-33.14,20.6-68.12,57.41-73.75C894.1,351.65,894.49,348.26,893,345.94Zm-60.23,47.81c-.27-12.08-1.84-24-9.3-33.76-6-7.81-14.87-13.56-24.47-16.83,20.28-7.34,35-23.22,43.23-43,2.39,21.08,9.83,41.9,28.19,49.15C852.26,358,840.18,374.7,832.78,393.75Z"/></svg>