<svg id="Layer_3" data-name="Layer 3" xmlns="http://www.w3.org/2000/svg" viewBox="0 0 280.16 306.47"><defs><style>.cls-1{fill:#414042;}.cls-2{fill:#3e3e3f;}.cls-3{fill:#c2b483;}.cls-4{fill:#292728;}.cls-5{fill:#4f4f51;}.cls-6{fill:#46c8f5;}.cls-7{fill:#3dacd2;}.cls-8{fill:#3caad0;}.cls-9{fill:#3292b3;}.cls-10,.cls-11,.cls-12,.cls-13{fill:none;stroke:#3caad0;stroke-miterlimit:10;}.cls-10,.cls-11,.cls-12{stroke-width:2px;}.cls-11{stroke-dasharray:3.09 3.09;}.cls-12,.cls-13{stroke-dasharray:3;}.cls-14{fill:#333132;}</style></defs><title>blueno</title><path class="cls-1" d="M215.38,113.72a18.09,18.09,0,0,0-6.8,1c-5.33,1.9-9.7,5.8-9.9,11.91a12.14,12.14,0,0,0,8.8,12.2,10.49,10.49,0,0,0,1.36.25A14.58,14.58,0,0,0,220.58,135c3-2.9,4.12-6.65,4.48-10.64C225.58,118.63,221.46,114,215.38,113.72Z" transform="translate(-41.03 -24.6)"/><path class="cls-2" d="M234,299.87c-1.17-2-3.5-3.48-5.16-5-2-1.85-4-3.77-6.26-5.42a21.13,21.13,0,0,0-5.45-2.92,2.57,2.57,0,0,0-.66-.46c-6.32-2.93-14.47-4.86-21.46-3.69-8.2,1.37-16.29,4.71-23.77,8.3-1.55-.6-3.54.11-3.3,2.17a28.69,28.69,0,0,1-.41,9.47,2.44,2.44,0,0,0,.2,1.67,2,2,0,0,0-.41.53c-.57,1.09-.38,2.86.9,3.42a14.21,14.21,0,0,0,3.29,1,2.35,2.35,0,0,0,.37.14l.14,0,.13,0a3.09,3.09,0,0,0,.35.07c13.77,1.35,27.55.61,41.3-.59C217.89,308.3,239.29,308.75,234,299.87Z" transform="translate(-41.03 -24.6)"/><path class="cls-3" d="M226.88,105.84c-1.54-5.34-7.55-6.34-12.26-7a122.72,122.72,0,0,0-17.87-1.14c-5.32,0-11.67-.25-16.75,1.49a8.19,8.19,0,0,0-2.13,1.08c-3.86,1.37-5.34,5.2-4.72,9.06,1.8,11.08,10.27,15.89,20.76,17.14,9.45,1.12,21.94-.7,28.88-8C225.63,115.55,228.07,110,226.88,105.84Z" transform="translate(-41.03 -24.6)"/><path class="cls-4" d="M254.7,115.93c-8.38-3.74-17.18-8.44-26.24-9.06-.62,0-1.12.49-1.51.79-1,.26-.11.34-.25,1.69-.46,4.47-4,9.07-6.52,11.31,0,0,1.31,3.78,1.56,4.74.64,2.51-1,7.72-3.52,9s2.25,2.85-.2,4.77c-5.72,4.47,2,4,3.91,4.09a99.58,99.58,0,0,0,31-3.39,19.42,19.42,0,0,0,9.28-6.22C268.78,125.89,261.68,119,254.7,115.93Z" transform="translate(-41.03 -24.6)"/><path class="cls-2" d="M264.42,117.43a142.29,142.29,0,0,0-4.3-22c-.39-1.42-.8-2.83-1.24-4.23a96,96,0,0,0-6.42-15.73,52.21,52.21,0,0,0-11-14.69c-5.05-4.57-11.32-7.29-16.77-11.3-6-4.4-9.93-11.24-17.31-13.65a25.79,25.79,0,0,0-2.75-.71V27.52a2.33,2.33,0,0,0-1.75-2.3,28.59,28.59,0,0,0-4-.45,29.83,29.83,0,0,0-9,.42c-1.49.28-3,.64-4.44,1a18.47,18.47,0,0,0-4,1.31c-1.63.89-1.45,2.69-1.29,4.29a23,23,0,0,0,1.32,5c-.2-.6-8.31,3.76-9,4.24a35.67,35.67,0,0,0-7.08,7c-4.4,5.38-8.16,11.27-12.78,16.47-4.38,4.94-8.84,10.07-11.26,16.32-4.2,10.84-6.66,26.23-7.63,37.83-.23,2.78,1.69,2.2,5,.67,19-8.88,38.28-11.2,59-11.22,12.58,0,25.71.11,38.08,2.59,11.09,2.23,22.4,7.31,29.06,16.81.1-1,0-3.57,0-4.6C264.78,121.12,264.61,119.27,264.42,117.43Z" transform="translate(-41.03 -24.6)"/><path class="cls-5" d="M136.21,128.68a18.05,18.05,0,0,0-6.8,1c-5.34,1.91-9.7,5.81-9.9,11.92a12.13,12.13,0,0,0,8.79,12.19,10.67,10.67,0,0,0,1.37.26A14.59,14.59,0,0,0,141.41,150c3.05-2.91,4.11-6.66,4.47-10.64C146.4,133.59,142.29,128.93,136.21,128.68Z" transform="translate(-41.03 -24.6)"/><path class="cls-6" d="M319.79,275.85c-2.39-8.42-6.54-14.2-14.87-17.36s-17.58-4-26.44-4.11c-18.48-.21-41.57,4.71-57.14-8.23-.61-.5-1.89-.89-2.22-1.56s0-2.69.1-3.54,1.19-9.27,1.35-9.18c1,.55,2,1,3.1,1.57,3,1.4,5.25,3.65,7.83,5.64A122.11,122.11,0,0,0,247,249.59c12.67,6.94,26.42,1,33.67-10.76,3.19-5.18,5.26-11.72,4.62-17.84-.45-4.23-2.77-7.56-6-10.24C274.92,207,270,204,265.27,200.68s-9.44-6.55-14.48-9.43c-7.57-4.32-15.4-8.16-23-12.42a49.29,49.29,0,0,1-10-7c-2.75-2.57-5.54-5.4-9.16-6.69,2.38.85,5.78-11.7,6.22-13.1.66-2.11,6-16.15,3.34-17.65-.2-.11.18-.1,0,0-.91.52-2.75.48-3.67.61a8.9,8.9,0,0,1-3.69-.48c-4.17-1.35-5.76-4.18-6.42-8.24,0,.14-7.15.39-7.74.35a27.91,27.91,0,0,1-8.15-1.86c-5.51-2.15-13.2-7.88-14.4-14.1,0,0-10,.67-12.17,1.07a179.33,179.33,0,0,0-21.43,5.69c-.9.35-5.41,2.84-5.41,2.82-.54-2.64.48-12.14,1.27-18.17a87.45,87.45,0,0,1,4.1-17.82c.3-.83,3.62-8.93,3.62-8.93-1.63-.63-5.67.38-7.35.62-6.84,1-13.12,2.68-18.61,7a14.7,14.7,0,0,0-3.75,4.45c.32-.56-7.29-3.26-8-3.43a26.09,26.09,0,0,0-24.5,7.26,61,61,0,0,0-7.05,10c-4.74,7.76-9.58,15.89-9.67,25.24-.07,7.7,3.27,15,10.75,17.93,3.86,1.52,9,2.49,12.93.79,1.19-.51,2.21-1.86,3.32-2.26l.35-.12c1.09-.41,4.34,13,5,14.33,1.06,2,2.09,3.29,1.88,5.63h0c-6.23.34-12.1.69-18.28,0-5.56-.63-11.45-1.22-16.51,1.17-3.26,1.54-5.85,4.19-8.37,6.78-8,8.26-13.68,17.71-14.88,29.36-1.19,11.48,1.09,23,2.24,34.35.89,8.79.86,18.57,4.94,26.63,3.88,7.67,12.31,12.7,20.64,14.19a21.67,21.67,0,0,0,17.72-4.64,50.33,50.33,0,0,0-2.81,4.59C77.44,287.65,74,304,80.62,317.07c7.4,14.63,23.64,15,38,13.26a136.66,136.66,0,0,0,22.68-5.08c6.51-2,13.21-4.22,18.78-8.26,6.25-4.52,9.92-5,10.85-12.83.28-2.28-.73-9.41-1.06-11.71,3.74-.08,9.33-2.57,12.68-4.31,3.77-2,6.76-4.88,11.17-4.38,3.63.42,6.6.56,9.49-.64a7.67,7.67,0,0,0,4.23,1.65A34,34,0,0,1,232,299c2.68,3.84,3.83,7.46,9.07,8.09,18,2.17,36.47,3.19,54.48.89,8-1,16.36-2.27,21.49-9.24C322,292.08,322,283.52,319.79,275.85ZM144.31,144.76a11.6,11.6,0,0,1-.51,1.07c-2.25,4.28-6.7,7.78-11.58,8-7.29.4-13.26-6.53-12.15-13.68C121.52,130.86,134,126,141.6,131,145.88,134,146.26,140.23,144.31,144.76Z" transform="translate(-41.03 -24.6)"/><path class="cls-7" d="M99.4,162.84s31.75,29.79,65,24.35,44.21-22,44.21-22,8.66,50.18-29.4,64.12-71.36-2.38-79.86-11.56c0,0,7.71-23.79-3.79-54.71Z" transform="translate(-41.03 -24.6)"/><path class="cls-1" d="M137,128.74l-1.76.27s-.31,11-9.46,23.16l-.33.46a11,11,0,0,0,4.26,1.46A14.59,14.59,0,0,0,141.41,150a13.06,13.06,0,0,0,1.93-2.32l2.46-7.62c0-.24.06-.47.08-.7A9.61,9.61,0,0,0,137,128.74Z" transform="translate(-41.03 -24.6)"/><path class="cls-8" d="M218.22,134.44c.18-.1-.2-.11,0,0Z" transform="translate(-41.03 -24.6)"/><path class="cls-8" d="M205.72,170.73l4.08-6c2.21-2.25,4.71-11.46,5.08-12.65.66-2.11,6-16.15,3.34-17.65-.05,0-.74.28-.85.3a9,9,0,0,1-1,.14,15.16,15.16,0,0,1-2.33.2,10.07,10.07,0,0,1-6.84-2.65,10.44,10.44,0,0,1-2.64-5.67c0-.14-.05-.28-.08-.43,0,.14-7.15.39-7.74.35a27.91,27.91,0,0,1-8.15-1.86c-5.51-2.15-14.2-9.27-15.4-15.49,0,0-8.44,1-10.63,1.35-5,.92-17.26,5-22,6.8-.9.35-5.41,2.84-5.41,2.82a44.94,44.94,0,0,1,.06,8.71,12.44,12.44,0,0,1,6.4,2c4.28,3,4.66,9.19,2.71,13.72a11.6,11.6,0,0,1-.51,1.07c-2.25,4.28-6.7,7.78-11.58,8a11.1,11.1,0,0,1-6.48-1.7c-5.35,5.65-13.61,10-26.3,10.67h0S150.53,222.18,205.72,170.73Z" transform="translate(-41.03 -24.6)"/><path class="cls-9" d="M208.66,165.19s-10.9,16.57-44.21,22-65-24.35-65-24.35l-3.79.2a103.07,103.07,0,0,1,4.14,14.17h0s22,31.15,63.06,21.57,46.65-18.45,46.67-19.49A80.66,80.66,0,0,0,208.66,165.19Z" transform="translate(-41.03 -24.6)"/><path class="cls-8" d="M227.29,230.6c-3.9-1.85-9.44-20.11-9.44-20.11,3.9,12.72,2.72,21.38,2.72,21.38,1,.55,2,1,3.1,1.57,3,1.4,5.25,3.65,7.83,5.64A122.11,122.11,0,0,0,247,249.59c11.26,6.17,23.38,2.15,31-7.08,1.34-1.68-10.92,5.84-10.92,5.84C255.61,254.89,231.19,232.45,227.29,230.6Z" transform="translate(-41.03 -24.6)"/><path class="cls-8" d="M75.93,144.47c3.86,1.52,9,2.49,12.93.79,1.19-.51,2.21-1.86,3.32-2.26,4.71-6.43,7.22-16.08,7.22-16.08-4.48,8.26-9.1,11.88-20.29,11.08S66.6,118.06,66.59,117.86a30.67,30.67,0,0,0-1.41,8.68C65.11,134.24,68.45,141.52,75.93,144.47Z" transform="translate(-41.03 -24.6)"/><path class="cls-10" d="M106.4,85.05s-.42.31-1.18.92" transform="translate(-41.03 -24.6)"/><path class="cls-11" d="M102.88,88C95.52,94.6,79,112.4,76.18,140.42" transform="translate(-41.03 -24.6)"/><path class="cls-10" d="M76,142c0,.49-.08,1-.11,1.49" transform="translate(-41.03 -24.6)"/><path class="cls-7" d="M94.3,246.75C89.16,260.8,82,265.74,70,267.52s-26.12-30.31-26.12-30.31h0c.68,8,1,16.67,4.69,23.9,3.88,7.67,12.31,12.7,20.64,14.19A21.14,21.14,0,0,0,80,274.49a33.69,33.69,0,0,0,6.89-3.83C93.54,265.3,94.3,246.75,94.3,246.75Z" transform="translate(-41.03 -24.6)"/><path class="cls-7" d="M63.62,190.31a128.45,128.45,0,0,0,12.61,14.07c3.47,3.37,18.48,15.55,23,13.07a2.77,2.77,0,0,0,.47-.32c2.56-2.21,3.44-9.61,3.93-12.78a55.38,55.38,0,0,0,.4-12.54,74.78,74.78,0,0,0-4.75-20.53c-.41-1.08-2.37-7.9-3.69-8.24a88.75,88.75,0,0,1-14.48-.22c-5.56-.63-11.45-1.22-16.51,1.17a22.47,22.47,0,0,0-8.37,6.78c-2.65,3.32,0,8.5,1.86,11.53A95.61,95.61,0,0,0,63.62,190.31Z" transform="translate(-41.03 -24.6)"/><path class="cls-9" d="M102.06,180s4.55,4.57,3.08-5.39c-.79-5.34-4.31-9.23-7.41-11.7-4.21.23-12.46.08-16.61-.11-.86,0,5.72,7.45,12.13,12.5A33.37,33.37,0,0,0,102.06,180Z" transform="translate(-41.03 -24.6)"/><path class="cls-7" d="M93.3,252.55c-5.15,11.89-6.4,18.11-6.4,18.11,8.29-8.91,19.12-9,30.13-6.35C106.34,259.05,93.3,252.55,93.3,252.55Z" transform="translate(-41.03 -24.6)"/><path class="cls-7" d="M219.25,244.78a.8.8,0,0,1-.13-.19s-21.89,29.34-38,32.85c-8.66,1.88-20.36.13-30.27-2.06a37,37,0,0,1,19,17.07c3.74-.08,9.33-2.57,12.68-4.31,3.77-2,6.76-4.88,11.17-4.38,3.63.42,6.6.56,9.49-.64C222.36,253.21,219.92,245.93,219.25,244.78Z" transform="translate(-41.03 -24.6)"/><path class="cls-12" d="M103.26,329.87c4.9-.35,9.89-1,14.09-3.51,8.42-5.08,12.07-15,13.44-24.3s2.19-22.57-3.21-30.6c-2.71-4-8-6.29-12.54-7.67a32.06,32.06,0,0,0-17,0,20,20,0,0,0-11.14,6.87" transform="translate(-41.03 -24.6)"/><path class="cls-7" d="M163.13,309a23.59,23.59,0,0,1-5.47,3.8c-8.52,4.56-18.39,6.81-27.81,8.67-2.52.5-5.34.62-7.79,1.37l-.28.1c-1.57.63-3,2-4.42,2.91a51.91,51.91,0,0,1-5.41,2.89,31.58,31.58,0,0,1-5.4,2.33,83.63,83.63,0,0,0,12.06-.72,136.66,136.66,0,0,0,22.68-5.08c6.51-2,13.21-4.22,18.78-8.26,6.25-4.52,9.92-5,10.85-12.83a26.19,26.19,0,0,0-.19-4.74C170.39,300.71,168.81,303.42,163.13,309Z" transform="translate(-41.03 -24.6)"/><polygon class="cls-7" points="129.59 273.73 129.59 273.73 129.59 273.73 129.59 273.73"/><path class="cls-13" d="M105.3,331.9" transform="translate(-41.03 -24.6)"/><path class="cls-12" d="M306.16,305c-10.91,3.78-20.75-7.09-18.21-27.86s17-17.64,17-17.64" transform="translate(-41.03 -24.6)"/><path class="cls-7" d="M290.58,298.32c-40.39,1.52-81.07-25.54-81.07-25.54-9.83,2.8-9.85,7.86-8.68,11a12.06,12.06,0,0,0,2.37-.69,7.67,7.67,0,0,0,4.23,1.65A34,34,0,0,1,232,299c2.68,3.84,3.83,7.46,9.07,8.09,18,2.17,36.47,3.19,54.48.89a74.15,74.15,0,0,0,9.21-1.6l-8.72-1.78Z" transform="translate(-41.03 -24.6)"/><path class="cls-2" d="M126.79,142.12c-3.22,0-3.23,5,0,5S130,142.12,126.79,142.12Z" transform="translate(-41.03 -24.6)"/><path class="cls-14" d="M212.3,125.06c-3.21,0-3.22,5,0,5S215.53,125.06,212.3,125.06Z" transform="translate(-41.03 -24.6)"/><path class="cls-14" d="M220.33,121.09c-2.2.89-1.88,4.83,1,4.83.19,0,.49.11.52,0C222.13,124.25,220.62,121,220.33,121.09Z" transform="translate(-41.03 -24.6)"/><path class="cls-14" d="M138.08,136.74c-3.21,0-3.22,5,0,5S141.31,136.74,138.08,136.74Z" transform="translate(-41.03 -24.6)"/><path class="cls-5" d="M264.85,123c-.07-1.85-.24-3.7-.43-5.54a142.29,142.29,0,0,0-4.3-22c-.39-1.42-.8-2.83-1.24-4.23a96,96,0,0,0-6.42-15.73,52.21,52.21,0,0,0-11-14.69c-5.05-4.57-11.32-7.29-16.77-11.3-6-4.4-9.93-11.24-17.31-13.65a25.79,25.79,0,0,0-2.75-.71V27.52a2.37,2.37,0,0,0-2.61-2.4,3,3,0,0,0-.62-.09c-1.32,0-3.07-.49-4.39-.41,1.51,0,1.69,12.22,1.69,12.22,3.86.24,5.62,3.32,11.21,11.62s7.22,7.59,21.68,16.12,20.23,51.76,20.23,51.76a28,28,0,0,1,13.05,11.23C265,126.54,264.89,124,264.85,123Z" transform="translate(-41.03 -24.6)"/></svg>