<?xml version="1.0" encoding="utf-8"?>
<!-- Generator: Adobe Illustrator 24.3.0, SVG Export Plug-In . SVG Version: 6.00 Build 0)  -->
<svg version="1.0" id="cit" xmlns="http://www.w3.org/2000/svg" xmlns:xlink="http://www.w3.org/1999/xlink" x="0px" y="0px"
	 viewBox="0 0 288.7 152.4" style="enable-background:new 0 0 288.7 152.4;" xml:space="preserve">
<style type="text/css">
	.st0{fill:#F4826F;}
	.st1{fill:#FDBF5F;}
	.st2{fill:#FFF0A9;}
	.st3{fill:#18A2A4;}
	.st4{fill:#4292CF;}
	.st5{fill:#62C8D5;}
	.st6{fill:#1A78B7;}
	.st7{fill:#FFFFFF;}
	.st8{fill:none;stroke:#FDBF5F;stroke-width:2;stroke-miterlimit:10;}
	.st9{fill:none;stroke:#F4826F;stroke-width:2;stroke-miterlimit:10;}
	.st10{fill:none;stroke:#18A2A4;stroke-miterlimit:10;}
	.st11{fill:none;stroke:#15BAB9;stroke-miterlimit:10;}
	.st12{fill:none;stroke:#1A78B7;stroke-miterlimit:10;}
	.st13{fill:none;stroke:#FFFFFF;stroke-width:2;stroke-miterlimit:10;}
</style>
<g id="Layer_11">
	<g id="_Group_">
		<polygon class="st0" points="41.2,71.5 41.2,72.5 38.6,73.1 38.6,72.2 		"/>
		<polygon class="st1" points="220.4,136.5 245.4,133 252.3,132.1 274,129.1 280.3,128.2 288.7,127 288.7,130.6 214.8,145.8 
			214.8,137.3 		"/>
		<polygon class="st2" points="288.7,126.5 288.7,127 280.3,128.2 280.3,127.4 287,126.7 		"/>
		<polygon class="st1" points="288.7,118.8 288.7,126.5 287,126.7 287,118.8 		"/>
		<polygon class="st2" points="287,118.8 280.3,118.9 280.3,117.6 280.3,117.6 288.7,117.6 288.7,118.8 		"/>
		<path class="st1" d="M220.4,101.7l25,1.9l6.8,0.5l21.8,1.7l6.2,0.5l8.4,0.6v10.7H274h-21.8h-6.8h-25h-5.6v-16.4L220.4,101.7z
			 M264.6,112.1v-2l-2.7-0.1v2.1L264.6,112.1z M234.9,111.3v-2.6l-2.7-0.2v2.7L234.9,111.3z"/>
		<polygon class="st2" points="287,105.8 288.7,105.9 288.7,106.9 280.3,106.3 280.3,105.1 		"/>
		<polygon class="st1" points="288.7,96.1 288.7,105.9 287,105.8 287,95.8 		"/>
		<polygon class="st2" points="287,95.8 280.3,94.8 280.3,93.6 288.7,95 288.7,96.1 		"/>
		<polygon class="st1" points="288.7,93.3 288.7,95 280.3,93.6 280.3,91.9 		"/>
		<polygon class="st1" points="288.7,91.7 288.7,93.3 280.3,91.9 280.3,90.3 		"/>
		<polygon class="st1" points="288.7,90.5 288.7,91.7 280.3,90.3 280.3,89.1 		"/>
		<path class="st1" d="M274,88l-9.5-1.7v-9.7l11.2,2.6l2.6,0.6l10.2,2.4v8.4l-8.4-1.5L274,88z M278.4,85.3v-2.2l-2.6-0.6v2.2
			L278.4,85.3z"/>
		<polygon class="st1" points="288.6,81.4 288.6,82.2 278.4,79.8 278.4,78.9 		"/>
		<polygon class="st2" points="281.3,78.4 282.2,78.6 285.4,79.4 286.1,79.6 288.6,80.2 288.6,81.4 278.4,78.9 278.4,77.7 		"/>
		<polygon class="st3" points="288.6,72 288.6,80.2 286.1,79.6 286.1,71.3 		"/>
		<polygon class="st2" points="282.2,70.2 281.3,70 278.4,69.2 278.4,68.2 288.6,70.9 288.6,72 286.1,71.3 285.4,71.1 		"/>
		<polygon class="st1" points="288.6,70.1 288.6,70.9 278.4,68.2 278.4,67.3 		"/>
		<polygon class="st1" points="288.6,62.2 288.6,70.1 278.4,67.3 278.4,58.8 		"/>
		<polygon class="st2" points="285.3,59.8 288.6,60.9 288.6,62.2 278.4,58.8 278.4,57.5 282.7,58.9 		"/>
		<polygon class="st3" points="288.6,52 288.6,60.9 285.3,59.8 285.3,50.8 		"/>
		<polygon class="st2" points="288.6,51.1 288.6,52 285.3,50.8 285.3,49.9 		"/>
		<polygon class="st1" points="288.6,50.1 288.6,51.1 285.3,49.9 285.3,48.8 		"/>
		<polygon class="st1" points="288.6,47.5 288.6,50.1 285.3,48.8 285.3,46.2 		"/>
		<polygon class="st1" points="288.6,46.4 288.6,47.5 285.3,46.2 285.3,45 		"/>
		<polygon class="st2" points="288.6,43 288.6,46.4 285.3,45 285.3,41.5 		"/>
		<polygon class="st2" points="288.6,42 288.6,43 285.3,41.5 285.3,40.5 285.3,40.5 		"/>
		<polygon class="st3" points="287,118.8 287,126.7 280.3,127.4 280.3,118.9 		"/>
		<polygon class="st3" points="287,95.8 287,105.8 280.3,105.1 280.3,94.8 		"/>
		<polygon class="st1" points="286.1,71.3 286.1,79.6 285.4,79.4 285.4,79.3 285.4,71.1 		"/>
		<polygon class="st3" points="285.4,71.1 285.4,79.3 285.4,79.4 282.2,78.6 282.2,70.2 		"/>
		<polygon class="st1" points="285.3,40.5 285.3,40.5 285.3,41.5 282.7,40.4 282.7,39.3 		"/>
		<polygon class="st1" points="285.3,50.8 285.3,59.8 282.7,58.9 282.7,58.9 282.7,49.8 		"/>
		<polygon class="st2" points="285.3,49.9 285.3,50.8 282.7,49.8 282.7,48.9 		"/>
		<polygon class="st1" points="285.3,48.8 285.3,49.9 282.7,48.9 282.7,47.8 		"/>
		<polygon class="st2" points="285.3,46.2 285.3,48.8 282.7,47.8 282.7,45.1 		"/>
		<polygon class="st2" points="285.3,45 285.3,46.2 282.7,45.1 282.7,44 		"/>
		<polygon class="st2" points="285.3,41.5 285.3,45 282.7,44 282.7,40.4 		"/>
		<polygon class="st3" points="282.7,58.9 282.7,58.9 278.4,57.5 278.4,48.2 282.7,49.8 		"/>
		<polygon class="st2" points="282.7,48.9 282.7,49.8 278.4,48.2 278.4,47.3 		"/>
		<polygon class="st1" points="282.7,47.8 282.7,48.9 278.4,47.3 278.4,46.2 		"/>
		<polygon class="st1" points="282.7,45.1 282.7,47.8 278.4,46.2 278.4,43.4 		"/>
		<polygon class="st1" points="282.7,44 282.7,45.1 278.4,43.4 278.4,42.3 		"/>
		<polygon class="st2" points="282.7,40.4 282.7,44 278.4,42.3 278.4,38.6 		"/>
		<polygon class="st2" points="282.7,39.3 282.7,40.4 278.4,38.6 278.4,37.5 278.4,31.4 278.5,31.4 278.5,37.5 		"/>
		<polygon class="st1" points="282.2,70.2 282.2,78.6 281.3,78.4 281.3,70 		"/>
		<polygon class="st3" points="281.3,70 281.3,78.4 278.4,77.7 278.4,69.2 		"/>
		<polygon class="st1" points="280.3,127.4 280.3,128.2 274,129.1 274,128.1 		"/>
		<polygon class="st1" points="280.3,118.9 280.3,127.4 274,128.1 274,119 		"/>
		<polygon class="st1" points="280.3,117.6 280.3,118.9 274,119 274,117.6 274,117.6 280.3,117.6 		"/>
		<polygon class="st1" points="280.3,105.1 280.3,106.3 274,105.8 274,105.8 274,104.5 		"/>
		<polygon class="st1" points="280.3,94.8 280.3,105.1 274,104.5 274,93.8 		"/>
		<polygon class="st1" points="280.3,93.6 280.3,94.8 274,93.8 274,92.6 		"/>
		<polygon class="st1" points="280.3,91.9 280.3,93.6 274,92.6 274,90.9 		"/>
		<polygon class="st1" points="280.3,90.3 280.3,91.9 274,90.9 274,89.2 		"/>
		<polygon class="st2" points="280.3,89.1 280.3,90.3 274,89.2 274,87.9 		"/>
		<polygon class="st1" points="278.5,17.6 278.5,18.7 278.4,18.7 278.4,17.5 		"/>
		<polygon class="st1" points="278.5,18.7 278.5,22.6 278.4,22.6 278.4,18.7 		"/>
		<polygon class="st1" points="278.5,22.6 278.5,25.9 278.4,25.9 278.4,22.6 		"/>
		<polygon class="st1" points="278.5,25.9 278.5,29.9 278.4,29.9 278.4,25.9 		"/>
		<polygon class="st1" points="278.5,29.9 278.5,31.4 278.4,31.4 278.4,29.9 		"/>
		<polygon class="st2" points="278.4,83.1 278.4,85.3 275.8,84.8 275.8,82.6 		"/>
		<polygon class="st1" points="278.4,78.9 278.4,79.8 275.8,79.2 275.8,78.3 		"/>
		<polygon class="st2" points="278.4,77.7 278.4,78.9 275.8,78.3 275.8,77.1 		"/>
		<polygon class="st1" points="278.4,69.2 278.4,77.7 275.8,77.1 275.8,68.5 		"/>
		<polygon class="st2" points="278.4,68.2 278.4,69.2 275.8,68.5 275.8,67.5 		"/>
		<polygon class="st1" points="278.4,67.3 278.4,68.2 275.8,67.5 275.8,66.6 		"/>
		<polygon class="st2" points="278.4,58.8 278.4,67.3 275.8,66.6 275.8,57.9 		"/>
		<polygon class="st1" points="278.4,57.5 278.4,58.8 275.8,57.9 275.8,56.6 		"/>
		<polygon class="st2" points="278.4,48.2 278.4,57.5 275.8,56.6 275.8,47.3 		"/>
		<polygon class="st1" points="278.4,47.3 278.4,48.2 275.8,47.3 275.8,46.3 		"/>
		<polygon class="st2" points="278.4,46.2 278.4,47.3 275.8,46.3 275.8,45.2 		"/>
		<polygon class="st2" points="278.4,43.4 278.4,46.2 275.8,45.2 275.8,42.3 		"/>
		<polygon class="st1" points="278.4,42.3 278.4,43.4 275.8,42.3 275.8,41.2 		"/>
		<polygon class="st2" points="278.4,38.6 278.4,42.3 275.8,41.2 275.8,37.4 		"/>
		<polygon class="st1" points="278.4,37.5 278.4,38.6 275.8,37.4 275.8,36.4 278.4,37.5 		"/>
		<polygon class="st2" points="278.4,31.4 278.4,37.5 278.4,37.5 275.8,36.4 275.8,30.2 		"/>
		<polygon class="st1" points="278.4,29.9 278.4,31.4 275.8,30.2 275.8,28.6 		"/>
		<polygon class="st2" points="278.4,25.9 278.4,29.9 275.8,28.6 275.8,24.6 		"/>
		<polygon class="st1" points="278.4,22.6 278.4,25.9 275.8,24.6 275.8,21.3 		"/>
		<polygon class="st2" points="278.4,18.7 278.4,22.6 275.8,21.3 275.8,17.4 		"/>
		<polygon class="st1" points="278.4,17.5 278.4,18.7 275.8,17.4 275.8,16.1 		"/>
		<polygon class="st1" points="275.8,78.3 275.8,79.2 264.5,76.6 264.5,75.6 		"/>
		<polygon class="st2" points="271.9,76.1 272.9,76.4 275.8,77.1 275.8,78.3 264.5,75.6 264.5,74.4 267.7,75.1 268.8,75.4 		"/>
		<polygon class="st3" points="275.8,68.5 275.8,77.1 272.9,76.4 272.9,67.8 272.9,67.8 		"/>
		<polygon class="st2" points="268.8,66.7 267.7,66.4 264.5,65.5 264.5,64.5 275.8,67.5 275.8,68.5 272.9,67.8 271.9,67.5 		"/>
		<polygon class="st1" points="275.8,66.6 275.8,67.5 264.5,64.5 264.5,63.5 		"/>
		<polygon class="st1" points="275.8,57.9 275.8,66.6 264.5,63.5 264.5,54.1 		"/>
		<polygon class="st2" points="271.8,55.2 275.8,56.6 275.8,57.9 264.5,54.1 264.5,52.8 269.2,54.4 		"/>
		<polygon class="st3" points="275.8,47.3 275.8,56.6 271.8,55.2 271.8,45.8 		"/>
		<polygon class="st2" points="275.8,46.3 275.8,47.3 271.8,45.8 271.8,44.9 		"/>
		<polygon class="st1" points="275.8,45.2 275.8,46.3 271.8,44.9 271.8,43.7 		"/>
		<polygon class="st1" points="275.8,42.3 275.8,45.2 271.8,43.7 271.8,40.7 		"/>
		<polygon class="st1" points="275.8,41.2 275.8,42.3 271.8,40.7 271.8,39.6 		"/>
		<polygon class="st2" points="275.8,37.4 275.8,41.2 271.8,39.6 271.8,35.7 		"/>
		<polygon class="st2" points="275.8,36.4 275.8,37.4 271.8,35.7 271.8,34.7 		"/>
		<polygon class="st3" points="275.8,30.2 275.8,36.4 271.8,34.7 271.8,28.3 		"/>
		<polygon class="st1" points="275.8,28.6 275.8,30.2 271.8,28.3 271.8,26.8 		"/>
		<polygon class="st2" points="275.8,24.6 275.8,28.6 271.8,26.8 271.8,22.7 		"/>
		<polygon class="st2" points="275.8,21.3 275.8,24.6 271.8,22.7 271.8,19.3 		"/>
		<polygon class="st2" points="275.8,17.4 275.8,21.3 271.8,19.3 271.8,15.4 		"/>
		<polygon class="st1" points="275.8,16.1 275.8,17.4 271.8,15.4 271.8,14.1 271.8,14 		"/>
		<polygon class="st2" points="266.6,129 274,128.1 274,129.1 252.3,132.1 252.3,130.6 260,129.7 		"/>
		<polygon class="st3" points="274,119 274,128.1 266.6,129 266.6,119.1 		"/>
		<polygon class="st2" points="260,119.2 252.3,119.4 252.3,117.6 274,117.6 274,117.6 274,119 266.6,119.1 		"/>
		<polygon class="st2" points="266.6,103.8 274,104.5 274,105.8 274,105.8 252.2,104.1 252.2,104.1 252.2,102.4 260,103.2 		"/>
		<polygon class="st3" points="274,93.8 274,104.5 266.6,103.8 266.6,92.8 266.6,92.7 		"/>
		<polygon class="st2" points="274,92.6 274,93.8 266.6,92.7 260,91.7 252.2,90.5 252.2,89 		"/>
		<polygon class="st1" points="261.9,89 264.5,89.4 274,90.9 274,92.6 252.2,89 252.2,87.4 		"/>
		<polygon class="st1" points="274,89.2 274,90.9 264.5,89.4 264.5,89.3 264.5,87.6 		"/>
		<polygon class="st1" points="274,87.9 274,89.2 264.5,87.6 264.5,86.3 		"/>
		<polygon class="st1" points="272.9,67.8 272.9,67.8 272.9,76.4 271.9,76.1 271.9,67.5 271.9,67.5 		"/>
		<polygon class="st3" points="271.9,67.5 271.9,67.5 271.9,76.1 268.8,75.4 268.8,66.7 		"/>
		<polygon class="st1" points="269.2,12.6 271.8,14 271.8,14.1 271.8,15.4 269.2,14 269.2,12.8 		"/>
		<polygon class="st1" points="271.8,45.8 271.8,55.2 269.2,54.4 269.2,44.9 		"/>
		<polygon class="st2" points="271.8,44.9 271.8,45.8 269.2,44.9 269.2,43.9 		"/>
		<polygon class="st1" points="271.8,43.7 271.8,44.9 269.2,43.9 269.2,42.7 		"/>
		<polygon class="st2" points="271.8,40.7 271.8,43.7 269.2,42.7 269.2,39.6 		"/>
		<polygon class="st2" points="271.8,39.6 271.8,40.7 269.2,39.6 269.2,38.5 		"/>
		<polygon class="st2" points="271.8,35.7 271.8,39.6 269.2,38.5 269.2,34.6 		"/>
		<polygon class="st1" points="271.8,34.7 271.8,35.7 269.2,34.6 269.2,33.5 		"/>
		<polygon class="st2" points="271.8,28.3 271.8,34.7 269.2,33.5 269.2,27.1 		"/>
		<polygon class="st1" points="271.8,26.8 271.8,28.3 269.2,27.1 269.2,25.6 		"/>
		<polygon class="st2" points="271.8,22.7 271.8,26.8 269.2,25.6 269.2,21.5 		"/>
		<polygon class="st1" points="271.8,19.3 271.8,22.7 269.2,21.5 269.2,18 		"/>
		<polygon class="st2" points="271.8,15.4 271.8,19.3 269.2,18 269.2,14 		"/>
		<polygon class="st1" points="264.6,10.2 269.2,12.6 269.2,12.8 269.2,14 264.5,11.7 264.5,10.2 		"/>
		<polygon class="st3" points="269.2,44.9 269.2,54.4 264.5,52.8 264.5,43.2 		"/>
		<polygon class="st2" points="269.2,43.9 269.2,44.9 264.5,43.2 264.5,42.2 		"/>
		<polygon class="st1" points="269.2,42.7 269.2,43.9 264.5,42.2 264.5,41 		"/>
		<polygon class="st1" points="269.2,39.6 269.2,42.7 264.5,41 264.5,37.8 		"/>
		<polygon class="st1" points="269.2,38.5 269.2,39.6 264.5,37.8 264.5,36.6 		"/>
		<polygon class="st2" points="269.2,34.6 269.2,38.5 264.5,36.6 264.5,32.6 		"/>
		<polygon class="st2" points="269.2,33.5 269.2,34.6 264.5,32.6 264.5,31.5 		"/>
		<polygon class="st3" points="269.2,27.1 269.2,33.5 264.5,31.5 264.5,25 		"/>
		<polygon class="st1" points="269.2,25.6 269.2,27.1 264.5,25 264.5,23.4 		"/>
		<polygon class="st2" points="269.2,21.5 269.2,25.6 264.5,23.4 264.5,19.3 		"/>
		<polygon class="st2" points="269.2,18 269.2,21.5 264.5,19.3 264.5,15.8 		"/>
		<polygon class="st2" points="269.2,14 269.2,18 264.5,15.8 264.5,11.7 		"/>
		<polygon class="st1" points="268.8,66.7 268.8,75.4 267.7,75.1 267.7,66.4 267.7,66.4 		"/>
		<polygon class="st3" points="267.7,66.4 267.7,66.4 267.7,75.1 264.5,74.4 264.5,65.5 		"/>
		<polygon class="st1" points="260,91.7 266.6,92.7 266.6,92.8 266.6,103.8 260,103.2 260,91.8 		"/>
		<polygon class="st1" points="266.6,119.1 266.6,129 260,129.7 260,119.2 		"/>
		<polygon class="st1" points="262,8.8 264.6,10.2 264.5,10.2 264.5,11.7 261.9,10.4 261.9,8.9 		"/>
		<polygon class="st2" points="264.6,110.1 264.6,112.1 261.9,112 261.9,109.9 		"/>
		<polygon class="st2" points="264.5,87.6 264.5,89.3 264.5,89.4 261.9,89 261.9,87.2 		"/>
		<polygon class="st2" points="264.5,86.3 264.5,87.6 261.9,87.2 261.9,85.8 		"/>
		<polygon class="st2" points="264.5,76.6 264.5,86.3 261.9,85.8 261.9,75.9 		"/>
		<polygon class="st2" points="264.5,75.6 264.5,76.6 261.9,75.9 261.9,75 		"/>
		<polygon class="st1" points="264.5,74.4 264.5,75.6 261.9,75 261.9,73.7 		"/>
		<polygon class="st2" points="264.5,65.5 264.5,74.4 261.9,73.7 261.9,64.8 		"/>
		<polygon class="st1" points="264.5,64.5 264.5,65.5 261.9,64.8 261.9,63.8 		"/>
		<polygon class="st2" points="264.5,63.5 264.5,64.5 261.9,63.8 261.9,62.8 		"/>
		<polygon class="st2" points="264.5,54.1 264.5,63.5 261.9,62.8 261.9,53.2 		"/>
		<polygon class="st1" points="264.5,52.8 264.5,54.1 261.9,53.2 261.9,51.9 		"/>
		<polygon class="st2" points="264.5,43.2 264.5,52.8 261.9,51.9 261.9,42.3 		"/>
		<polygon class="st1" points="264.5,42.2 264.5,43.2 261.9,42.3 261.9,41.2 		"/>
		<polygon class="st2" points="264.5,41 264.5,42.2 261.9,41.2 261.9,40 		"/>
		<polygon class="st2" points="264.5,37.8 264.5,41 261.9,40 261.9,36.7 		"/>
		<polygon class="st1" points="264.5,36.6 264.5,37.8 261.9,36.7 261.9,35.6 		"/>
		<polygon class="st2" points="264.5,32.6 264.5,36.6 261.9,35.6 261.9,31.5 		"/>
		<polygon class="st1" points="264.5,31.5 264.5,32.6 261.9,31.5 261.9,30.4 		"/>
		<polygon class="st2" points="264.5,25 264.5,31.5 261.9,30.4 261.9,23.7 		"/>
		<polygon class="st1" points="264.5,23.4 264.5,25 261.9,23.7 261.9,22.2 		"/>
		<polygon class="st2" points="264.5,19.3 264.5,23.4 261.9,22.2 261.9,18 		"/>
		<polygon class="st1" points="264.5,15.8 264.5,19.3 261.9,18 261.9,14.5 		"/>
		<polygon class="st2" points="264.5,11.7 264.5,15.8 261.9,14.5 261.9,10.4 		"/>
		<polygon class="st1" points="262,8.8 261.9,8.9 261.9,10.4 257.4,8.1 257.4,6.4 257.5,6.4 		"/>
		<polygon class="st1" points="261.9,87.2 261.9,89 252.2,87.4 252.2,85.5 		"/>
		<polygon class="st1" points="261.9,85.8 261.9,87.2 252.2,85.5 252.2,84.1 252.3,84.1 		"/>
		<path class="st1" d="M245.4,82.9L234.9,81V69.6l12.6,2.9l2.6,0.6l11.8,2.8v9.9l-9.7-1.7L245.4,82.9z M250.1,79.5v-2.4l-2.6-0.6V79
			L250.1,79.5z"/>
		<polygon class="st1" points="261.9,75 261.9,75.9 250.1,73.2 250.1,72.2 		"/>
		<polygon class="st2" points="258.7,72.9 261.9,73.7 261.9,75 250.1,72.2 250.1,70.9 253,71.6 254.1,71.8 257.4,72.6 		"/>
		<polygon class="st3" points="261.9,64.8 261.9,73.7 258.7,72.9 258.7,64 		"/>
		<polygon class="st2" points="257.4,63.6 254.1,62.8 253,62.5 250.1,61.7 250.1,60.6 261.9,63.8 261.9,64.8 258.7,64 		"/>
		<polygon class="st1" points="261.9,62.8 261.9,63.8 250.1,60.6 250.1,59.6 		"/>
		<polygon class="st1" points="261.9,53.2 261.9,62.8 250.1,59.6 250.1,49.2 		"/>
		<polygon class="st2" points="257.4,50.4 261.9,51.9 261.9,53.2 250.1,49.2 250.1,47.9 254.8,49.5 		"/>
		<polygon class="st3" points="261.9,42.3 261.9,51.9 257.4,50.4 257.4,40.6 		"/>
		<polygon class="st2" points="261.9,41.2 261.9,42.3 257.4,40.6 257.4,39.5 		"/>
		<polygon class="st1" points="261.9,40 261.9,41.2 257.4,39.5 257.4,38.3 		"/>
		<polygon class="st1" points="261.9,36.7 261.9,40 257.4,38.3 257.4,34.9 		"/>
		<polygon class="st1" points="261.9,35.6 261.9,36.7 257.4,34.9 257.4,33.8 		"/>
		<polygon class="st2" points="261.9,31.5 261.9,35.6 257.4,33.8 257.4,29.5 		"/>
		<polygon class="st2" points="261.9,30.4 261.9,31.5 257.4,29.5 257.4,28.4 		"/>
		<polygon class="st3" points="261.9,23.7 261.9,30.4 257.4,28.4 257.4,21.6 		"/>
		<polygon class="st1" points="261.9,22.2 261.9,23.7 257.4,21.6 257.4,20.1 		"/>
		<polygon class="st2" points="261.9,18 261.9,22.2 257.4,20.1 257.4,15.9 		"/>
		<polygon class="st2" points="261.9,14.5 261.9,18 257.4,15.9 257.4,12.3 		"/>
		<polygon class="st2" points="261.9,10.4 261.9,14.5 257.4,12.3 257.4,8.1 		"/>
		<polygon class="st3" points="260,119.2 260,129.7 252.3,130.6 252.3,119.4 		"/>
		<polygon class="st3" points="260,91.7 260,91.8 260,103.2 252.2,102.4 252.2,90.5 		"/>
		<polygon class="st1" points="258.7,64 258.7,72.9 257.4,72.6 257.4,72.6 257.4,63.6 		"/>
		<polygon class="st1" points="254.9,5 257.5,6.4 257.4,6.4 257.4,8.1 254.8,6.8 254.8,5.1 		"/>
		<polygon class="st1" points="257.4,40.6 257.4,50.4 254.8,49.5 254.8,39.7 		"/>
		<polygon class="st2" points="257.4,39.5 257.4,40.6 254.8,39.7 254.8,38.5 		"/>
		<polygon class="st1" points="257.4,38.3 257.4,39.5 254.8,38.5 254.8,37.3 		"/>
		<polygon class="st2" points="257.4,34.9 257.4,38.3 254.8,37.3 254.8,33.8 		"/>
		<polygon class="st2" points="257.4,33.8 257.4,34.9 254.8,33.8 254.8,32.7 		"/>
		<polygon class="st2" points="257.4,29.5 257.4,33.8 254.8,32.7 254.8,28.4 		"/>
		<polygon class="st1" points="257.4,28.4 257.4,29.5 254.8,28.4 254.8,27.2 		"/>
		<polygon class="st2" points="257.4,21.6 257.4,28.4 254.8,27.2 254.8,20.4 		"/>
		<polygon class="st1" points="257.4,20.1 257.4,21.6 254.8,20.4 254.8,18.9 		"/>
		<polygon class="st2" points="257.4,15.9 257.4,20.1 254.8,18.9 254.8,14.6 		"/>
		<polygon class="st1" points="257.4,12.3 257.4,15.9 254.8,14.6 254.8,11 		"/>
		<polygon class="st2" points="257.4,8.1 257.4,12.3 254.8,11 254.8,6.8 		"/>
		<polygon class="st3" points="257.4,63.6 257.4,72.6 257.4,72.6 254.1,71.8 254.1,71.8 254.1,62.8 		"/>
		<polygon class="st1" points="254.9,5 254.8,5.1 254.8,6.8 250.1,4.4 250.1,2.4 		"/>
		<polygon class="st3" points="254.8,39.7 254.8,49.5 250.1,47.9 250.1,38 		"/>
		<polygon class="st2" points="254.8,38.5 254.8,39.7 250.1,38 250.1,36.8 		"/>
		<polygon class="st1" points="254.8,37.3 254.8,38.5 250.1,36.8 250.1,35.5 		"/>
		<polygon class="st1" points="254.8,33.8 254.8,37.3 250.1,35.5 250.1,31.9 		"/>
		<polygon class="st1" points="254.8,32.7 254.8,33.8 250.1,31.9 250.1,30.8 		"/>
		<polygon class="st2" points="254.8,28.4 254.8,32.7 250.1,30.8 250.1,26.4 		"/>
		<polygon class="st2" points="254.8,27.2 254.8,28.4 250.1,26.4 250.1,25.2 		"/>
		<polygon class="st3" points="254.8,20.4 254.8,27.2 250.1,25.2 250.1,18.2 		"/>
		<polygon class="st1" points="254.8,18.9 254.8,20.4 250.1,18.2 250.1,16.7 		"/>
		<polygon class="st2" points="254.8,14.6 254.8,18.9 250.1,16.7 250.1,12.4 		"/>
		<polygon class="st2" points="254.8,11 254.8,14.6 250.1,12.4 250.1,8.6 		"/>
		<polygon class="st2" points="254.8,6.8 254.8,11 250.1,8.6 250.1,4.4 		"/>
		<polygon class="st1" points="254.1,62.8 254.1,71.8 254.1,71.8 253,71.6 253,71.5 253,62.5 		"/>
		<polygon class="st3" points="253,62.5 253,71.5 253,71.6 250.1,70.9 250.1,61.7 		"/>
		<polygon class="st1" points="252.3,130.6 252.3,132.1 245.4,133 245.4,131.3 		"/>
		<polygon class="st1" points="252.3,119.4 252.3,130.6 245.4,131.3 245.4,119.5 		"/>
		<polygon class="st1" points="252.3,117.6 252.3,119.4 245.4,119.5 245.4,117.6 245.4,117.6 		"/>
		<polygon class="st2" points="245.4,82.9 252.3,84.1 252.2,84.1 252.2,85.5 245.4,84.3 		"/>
		<polygon class="st1" points="252.2,102.4 252.2,104.1 252.2,104.1 245.4,103.6 245.4,103.6 245.4,101.8 		"/>
		<polygon class="st1" points="252.2,90.5 252.2,102.4 245.4,101.8 245.4,89.5 		"/>
		<polygon class="st1" points="252.2,89 252.2,90.5 245.4,89.5 245.4,87.9 		"/>
		<polygon class="st1" points="252.2,87.4 252.2,89 245.4,87.9 245.4,86.3 		"/>
		<polygon class="st1" points="252.2,85.5 252.2,87.4 245.4,86.3 245.4,84.3 		"/>
		<polygon class="st2" points="250.1,77.1 250.1,79.6 247.4,79 247.4,76.6 		"/>
		<polygon class="st1" points="250.1,72.2 250.1,73.2 247.4,72.5 247.4,71.6 		"/>
		<polygon class="st2" points="250.1,70.9 250.1,72.2 247.4,71.6 247.4,70.2 		"/>
		<polygon class="st1" points="250.1,61.7 250.1,70.9 247.4,70.2 247.4,61 		"/>
		<polygon class="st2" points="250.1,60.6 250.1,61.7 247.4,61 247.4,59.9 		"/>
		<polygon class="st1" points="250.1,59.6 250.1,60.6 247.4,59.9 247.4,58.9 		"/>
		<polygon class="st2" points="250.1,49.2 250.1,59.6 247.4,58.9 247.4,48.3 		"/>
		<polygon class="st1" points="250.1,47.9 250.1,49.2 247.4,48.3 247.4,47 		"/>
		<polygon class="st2" points="250.1,38 250.1,47.9 247.4,47 247.4,37 		"/>
		<polygon class="st1" points="250.1,36.8 250.1,38 247.4,37 247.4,35.8 		"/>
		<polygon class="st2" points="250.1,35.5 250.1,36.8 247.4,35.8 247.4,34.5 		"/>
		<polygon class="st2" points="250.1,31.9 250.1,35.5 247.4,34.5 247.4,30.9 		"/>
		<polygon class="st1" points="250.1,30.8 250.1,31.9 247.4,30.9 247.4,29.7 		"/>
		<polygon class="st2" points="250.1,26.4 250.1,30.8 247.4,29.7 247.4,25.2 		"/>
		<polygon class="st1" points="250.1,25.2 250.1,26.4 247.4,25.2 247.4,24 		"/>
		<polygon class="st2" points="250.1,18.2 250.1,25.2 247.4,24 247.4,24 247.5,24 247.5,17 		"/>
		<polygon class="st1" points="250.1,16.7 250.1,18.2 247.5,17 247.5,15.6 		"/>
		<polygon class="st2" points="250.1,12.4 250.1,16.7 247.5,15.6 247.5,11.1 		"/>
		<polygon class="st1" points="250.1,8.6 250.1,12.4 247.5,11.1 247.5,7.4 		"/>
		<polygon class="st2" points="250.1,4.4 250.1,8.6 247.5,7.4 247.5,3.1 		"/>
		<polygon class="st1" points="250.1,2.4 250.1,4.4 247.5,3.1 247.5,1 		"/>
		<polygon class="st0" points="247.5,11.1 247.5,15.6 247.5,17 247.5,24 247.4,24 243.1,22.1 240.4,20.9 234.9,18.5 232.2,17.4 
			232.2,17.4 168.4,33.6 168.4,33.6 168.4,33.7 168.3,33.7 165.7,32.9 165.7,32.9 165.7,23.9 195.8,15.5 209.9,11.5 247.5,1 
			247.5,3.1 247.5,7.4 		"/>
		<polygon class="st2" points="247.4,24 247.4,24 247.4,25.2 243.1,23.3 243.1,22.3 243.1,22.1 		"/>
		<polygon class="st1" points="247.4,71.6 247.4,72.5 234.9,69.6 234.9,68.6 		"/>
		<polygon class="st2" points="238.1,68 239.4,68.3 243.1,69.2 244.4,69.5 247.4,70.2 247.4,71.6 234.9,68.6 234.9,67.2 		"/>
		<polygon class="st3" points="247.4,61 247.4,70.2 244.4,69.5 244.4,60.2 		"/>
		<polygon class="st2" points="239.4,58.8 238.1,58.5 234.9,57.6 234.9,56.5 247.4,59.9 247.4,61 244.4,60.2 243.1,59.8 		"/>
		<polygon class="st1" points="247.4,58.9 247.4,59.9 234.9,56.5 234.9,55.5 		"/>
		<polygon class="st1" points="247.4,48.3 247.4,58.9 234.9,55.5 234.9,44.1 		"/>
		<polygon class="st2" points="247.4,47 247.4,48.3 234.9,44.1 234.9,42.8 240.4,44.6 243.1,45.5 		"/>
		<polygon class="st3" points="247.4,37 247.4,47 243.1,45.5 243.1,45.5 243.1,35.4 		"/>
		<polygon class="st2" points="247.4,35.8 247.4,37 243.1,35.4 243.1,34.2 		"/>
		<polygon class="st1" points="247.4,35.8 243.1,34.2 243.1,32.9 247.4,34.5 		"/>
		<polygon class="st1" points="247.4,30.9 247.4,34.5 243.1,32.9 243.1,29.1 		"/>
		<polygon class="st1" points="247.4,29.7 247.4,30.9 243.1,29.1 243.1,27.9 		"/>
		<polygon class="st2" points="247.4,25.2 247.4,29.7 243.1,27.9 243.1,23.3 		"/>
		<polygon class="st2" points="236.8,132.3 245.4,131.3 245.4,133 220.4,136.5 220.4,134.1 230.1,133.1 		"/>
		<polygon class="st3" points="245.4,119.5 245.4,131.3 236.8,132.3 236.8,119.6 		"/>
		<polygon class="st2" points="230.1,119.8 220.4,119.9 220.4,117.6 220.4,117.5 245.4,117.6 245.4,117.6 245.4,119.5 236.8,119.6 
					"/>
		<polygon class="st2" points="236.8,101 245.4,101.8 245.4,103.6 245.4,103.6 220.4,101.7 220.4,99.4 230.1,100.3 		"/>
		<polygon class="st3" points="245.4,89.5 245.4,101.8 236.8,101 236.8,88.2 236.8,88.2 		"/>
		<polygon class="st2" points="245.4,87.9 245.4,89.5 236.8,88.2 230.1,87.2 220.4,85.7 220.4,83.8 		"/>
		<polygon class="st1" points="245.4,86.3 245.4,87.9 220.4,83.8 220.4,80.1 232.2,82.1 232.2,84.1 234.9,84.6 		"/>
		<polygon class="st1" points="245.4,84.3 245.4,86.3 234.9,84.6 232.2,84.1 234.9,84.6 234.9,82.6 		"/>
		<polygon class="st1" points="245.4,82.9 245.4,84.3 234.9,82.6 234.9,81 		"/>
		<polygon class="st1" points="244.4,60.2 244.4,69.5 243.1,69.2 243.1,59.8 243.1,59.8 		"/>
		<polygon class="st1" points="243.1,22.1 243.1,22.3 243.1,23.3 240.4,22.2 240.4,20.9 		"/>
		<polygon class="st3" points="239.4,58.8 243.1,59.8 243.1,59.8 243.1,69.2 239.4,68.3 		"/>
		<polygon class="st1" points="243.1,35.4 243.1,45.5 243.1,45.5 240.4,44.6 240.4,44.6 240.4,34.4 		"/>
		<polygon class="st2" points="243.1,34.2 243.1,35.4 240.4,34.4 240.4,33.2 		"/>
		<polygon class="st1" points="243.1,32.9 243.1,34.2 240.4,33.2 240.4,31.9 		"/>
		<polygon class="st2" points="243.1,29.1 243.1,32.9 240.4,31.9 240.4,28 		"/>
		<polygon class="st2" points="243.1,27.9 243.1,29.1 240.4,28 240.4,26.8 		"/>
		<polygon class="st2" points="243.1,23.3 243.1,27.9 240.4,26.8 240.4,22.2 		"/>
		<polygon class="st3" points="240.4,34.4 240.4,44.6 240.4,44.6 234.9,42.8 234.9,32.5 		"/>
		<polygon class="st2" points="240.4,33.2 240.4,34.4 234.9,32.5 234.9,31.1 		"/>
		<polygon class="st1" points="240.4,31.9 240.4,33.2 234.9,31.1 234.9,29.8 		"/>
		<polygon class="st1" points="240.4,28 240.4,31.9 234.9,29.8 234.9,25.8 		"/>
		<polygon class="st1" points="240.4,26.8 240.4,28 234.9,25.8 234.9,24.6 		"/>
		<polygon class="st2" points="240.4,22.2 240.4,26.8 234.9,24.6 234.9,19.8 		"/>
		<polygon class="st2" points="240.4,20.9 240.4,22.2 234.9,19.8 234.9,18.6 234.9,18.5 		"/>
		<polygon class="st1" points="239.4,58.8 239.4,68.3 238.1,68 238.1,58.5 238.1,58.5 		"/>
		<polygon class="st3" points="238.1,58.5 238.1,58.5 238.1,68 234.9,67.2 234.9,57.6 		"/>
		<polygon class="st1" points="236.8,88.2 236.8,88.2 236.8,101 230.1,100.3 230.1,100.3 230.1,87.2 230.1,87.2 		"/>
		<polygon class="st1" points="236.8,119.6 236.8,132.3 230.1,133.1 230.1,119.8 		"/>
		<polygon class="st2" points="234.9,108.7 234.9,111.3 232.2,111.2 232.2,108.5 		"/>
		<polygon class="st1" points="234.9,18.5 234.9,18.6 234.9,19.8 232.3,18.7 232.2,18.7 232.2,17.4 		"/>
		<polygon class="st2" points="234.9,82.6 234.9,84.6 232.2,84.1 232.2,82.1 		"/>
		<polygon class="st2" points="234.9,81 234.9,82.6 232.2,82.1 232.2,80.6 		"/>
		<polygon class="st2" points="234.9,69.6 234.9,81 232.2,80.6 232.2,69 		"/>
		<polygon class="st2" points="234.9,68.6 234.9,69.6 232.2,69 232.2,67.9 		"/>
		<polygon class="st1" points="234.9,67.2 234.9,68.6 232.2,67.9 232.2,66.6 		"/>
		<polygon class="st2" points="234.9,57.6 234.9,67.2 232.2,66.6 232.2,56.9 		"/>
		<polygon class="st1" points="234.9,56.5 234.9,57.6 232.2,56.9 232.2,55.8 		"/>
		<polygon class="st2" points="234.9,55.5 234.9,56.5 232.2,55.8 232.2,54.8 		"/>
		<polygon class="st2" points="234.9,44.1 234.9,55.5 232.2,54.8 232.2,43.2 		"/>
		<polygon class="st1" points="234.9,42.8 234.9,44.1 232.2,43.2 232.2,42 232.2,42 232.2,41.9 		"/>
		<polygon class="st2" points="234.9,32.5 234.9,42.8 232.2,41.9 232.2,31.5 232.3,31.5 		"/>
		<polygon class="st1" points="234.9,31.1 234.9,32.5 232.3,31.5 232.2,31.5 232.2,30.2 232.3,30.2 		"/>
		<polygon class="st2" points="234.9,29.8 234.9,31.1 232.3,30.2 232.2,30.2 232.2,28.8 232.4,28.8 		"/>
		<polygon class="st2" points="234.9,25.8 234.9,29.8 232.4,28.8 232.2,28.8 232.2,24.8 232.3,24.8 		"/>
		<polygon class="st1" points="234.9,24.6 234.9,25.8 232.3,24.8 232.2,24.8 232.2,23.6 232.2,23.6 		"/>
		<polygon class="st2" points="234.9,19.8 234.9,24.6 232.2,23.6 232.2,23.6 232.2,18.7 232.3,18.7 		"/>
		<polygon class="st4" points="232.2,41.9 232.2,42 232.2,42 232.2,41.9 		"/>
		<polygon class="st1" points="232.2,31.5 232.2,41.9 232.2,41.9 232.2,17.4 232.2,17.4 232.2,18.7 232.2,23.6 232.2,24.8 
			232.2,28.8 232.2,30.2 		"/>
		<polygon class="st1" points="232.2,80.6 232.2,82.1 220.4,80.1 220.4,78.5 		"/>
		<polygon class="st1" points="217.7,65.6 232.2,69 232.2,80.6 220.4,78.5 214.8,77.5 214.8,72.2 217.7,72.8 217.7,70.2 214.8,69.6 
			214.8,64.9 		"/>
		<polygon class="st1" points="232.2,67.9 232.2,69 217.7,65.6 217.7,64.5 		"/>
		<polygon class="st2" points="228.4,65.6 232.2,66.6 232.2,67.9 217.7,64.5 217.7,63.1 221.6,64 223.1,64.4 226.9,65.3 		"/>
		<polygon class="st3" points="232.2,56.9 232.2,66.6 228.4,65.6 228.4,55.9 		"/>
		<polygon class="st2" points="228.4,55.9 226.9,55.5 223.1,54.5 221.6,54 217.7,53 217.7,51.9 232.2,55.8 232.2,56.9 		"/>
		<polygon class="st1" points="232.2,54.8 232.2,55.8 217.7,51.9 217.7,50.9 		"/>
		<polygon class="st1" points="232.2,43.2 232.2,54.8 217.7,50.9 217.7,38.4 		"/>
		<polygon class="st2" points="232.2,42 232.2,43.2 217.7,38.4 217.7,37 218,37.1 		"/>
		<polygon class="st1" points="232.2,41.9 232.2,42 218,37.1 		"/>
		<polygon class="st0" points="217.7,37 214.8,36 214.8,36 176.4,44.5 176.4,44.5 176.4,44.5 168.4,42.3 168.4,33.7 168.4,33.6 
			168.4,33.6 232.2,17.4 232.2,41.9 218,37.1 217.7,37 		"/>
		<polygon class="st3" points="230.1,119.8 230.1,133.1 220.4,134.1 220.4,119.9 		"/>
		<polygon class="st3" points="230.1,87.2 230.1,100.3 230.1,100.3 220.4,99.4 220.4,85.7 230.1,87.2 		"/>
		<polygon class="st1" points="228.4,55.9 228.4,65.6 226.9,65.3 226.9,65.2 226.9,55.5 226.9,55.5 		"/>
		<polygon class="st3" points="226.9,55.5 226.9,55.5 226.9,65.2 226.9,65.3 223.1,64.4 223.1,54.5 223.1,54.5 		"/>
		<polygon class="st1" points="223.1,54.5 223.1,54.5 223.1,64.4 221.6,64 221.6,63.9 221.6,54.1 221.6,54 		"/>
		<polygon class="st3" points="217.7,53 221.6,54 221.6,54.1 221.6,63.9 221.6,64 217.7,63.1 		"/>
		<polygon class="st1" points="220.4,134.1 220.4,136.5 214.8,137.3 214.8,134.8 		"/>
		<polygon class="st1" points="220.4,119.9 220.4,134.1 214.8,134.8 214.8,120 		"/>
		<polygon class="st1" points="220.4,117.6 220.4,119.9 214.8,120 214.8,117.5 220.4,117.5 		"/>
		<polygon class="st1" points="220.4,99.4 220.4,101.7 214.8,101.2 214.8,98.9 		"/>
		<polygon class="st1" points="220.4,85.7 220.4,99.4 214.8,98.9 214.8,84.9 		"/>
		<polygon class="st1" points="220.4,83.8 220.4,85.7 214.8,84.9 214.8,83.1 216.4,83.1 		"/>
		<polygon class="st1" points="220.4,80.1 220.4,83.8 216.4,83.1 214.8,83.1 214.8,79.2 		"/>
		<polygon class="st2" points="220.4,78.5 220.4,80.1 214.8,79.2 214.8,77.5 		"/>
		<polygon class="st2" points="217.7,70.2 217.7,72.8 214.8,72.2 214.8,69.6 		"/>
		<polygon class="st1" points="217.7,64.5 217.7,65.6 214.8,64.9 214.8,63.8 		"/>
		<polygon class="st2" points="217.7,63.1 217.7,64.5 214.8,63.8 214.8,62.5 214.8,62.4 		"/>
		<polygon class="st1" points="217.7,53 217.7,63.1 214.8,62.4 214.8,52.3 214.9,52.3 		"/>
		<polygon class="st2" points="217.7,51.9 217.7,53 214.9,52.3 214.8,52.3 214.8,51.1 214.9,51.1 		"/>
		<polygon class="st1" points="217.7,50.9 217.7,51.9 214.9,51.1 214.8,51.1 214.8,50.1 		"/>
		<polygon class="st2" points="217.7,38.4 217.7,50.9 214.8,50.1 214.8,37.4 		"/>
		<polygon class="st1" points="217.7,37 217.7,38.4 214.8,37.4 214.8,36 		"/>
		<polygon class="st1" points="217.7,37 217.7,37 214.8,36 214.8,36 		"/>
		<polygon class="st5" points="214.8,120 214.8,134.8 214.8,137.3 214.8,145.8 183.4,151.6 183.4,98.8 214.8,101.7 214.8,117.5 		
			"/>
		<polygon class="st5" points="214.8,101.2 214.8,101.7 183.4,98.8 183.7,54.8 214.8,62.5 214.8,63.8 214.8,64.9 214.8,69.6 
			214.8,69.6 214.8,72.2 214.8,72.2 214.8,77.5 214.8,79.2 214.8,83.1 214.8,84.9 214.8,98.9 		"/>
		<polygon class="st1" points="214.8,69.6 214.8,72.2 214.8,72.2 214.8,69.6 		"/>
		<polygon class="st0" points="214.8,50.1 214.8,51.1 214.8,52.3 214.8,62.4 214.8,62.5 183.7,54.8 176.4,53 176.4,44.5 176.4,44.5 
			214.8,36 214.8,36 214.8,37.4 		"/>
		<polygon class="st0" points="214.8,36 214.8,36 214.8,36 		"/>
		<polygon class="st1" points="209.9,11.4 209.9,11.5 195.8,15.5 195.8,5.1 		"/>
		<polygon class="st0" points="165.7,23.9 165.6,23.9 165.6,23.9 160.8,22.4 160.8,16.8 195.8,5.1 195.8,15.5 		"/>
		<polygon class="st5" points="176.4,53 183.7,54.8 183.4,98.8 144.3,95.1 144.3,45.4 144.3,45.3 		"/>
		<polygon class="st6" points="183.4,98.8 183.4,151.6 143.1,151.6 166.7,151.6 166.7,151.5 169.3,151.5 169.3,116.7 151.7,116.7 
			137.1,116.7 119.4,116.7 119.4,151.5 122,151.5 122,151.5 113.8,151.5 104.9,151.5 104.9,98.7 		"/>
		<polygon class="st0" points="183.4,98.8 104.9,98.7 144.3,95.1 		"/>
		<polygon class="st5" points="168.4,42.3 176.4,44.5 176.4,44.5 176.4,53 144.3,45.3 144.3,45.4 144.3,35.9 144.3,35.9 		"/>
		<polygon class="st7" points="169.3,116.7 169.3,151.5 166.7,151.5 166.7,127 166.3,127 166.3,123 151.7,123 151.7,118 
			151.7,116.7 		"/>
		<polygon class="st5" points="168.4,33.7 168.4,42.3 144.3,35.9 144.3,35.9 144.3,26.6 144.3,26.6 165.7,32.9 168.3,33.7 		"/>
		<polygon class="st7" points="166.7,151.5 166.7,151.6 143.1,151.6 122,151.5 122,151.5 122.5,151.5 137.1,151.5 151.7,151.5 
			166.3,151.5 		"/>
		<rect x="166.3" y="127" class="st7" width="0.4" height="24.5"/>
		<path class="st7" d="M166.3,127v24.5h-14.6V127H166.3z M164.2,147.9v-18.5h-10.3v18.5H164.2z"/>
		<rect x="151.7" y="123" class="st6" width="14.6" height="3.9"/>
		<polygon class="st5" points="165.6,23.9 165.6,23.9 165.7,23.9 165.7,32.9 165.7,32.9 144.3,26.6 144.3,26.6 144.3,17 144.3,17 
			160.8,22.4 		"/>
		<rect x="153.8" y="129.3" class="st6" width="10.4" height="18.6"/>
		<polygon class="st5" points="160.8,16.8 160.8,22.4 144.3,17 144.3,10.6 		"/>
		<path class="st7" d="M151.7,151.4L151.7,151.4l-14.6,0.1V127h14.6V151.4z M149.6,147.9v-18.5h-10.4v18.5H149.6z"/>
		<rect x="137.1" y="123" class="st6" width="14.6" height="3.9"/>
		<polygon class="st7" points="151.7,118 151.7,123 137.1,123 137.1,118 137.1,116.7 151.7,116.7 		"/>
		<rect x="139.2" y="129.3" class="st6" width="10.4" height="18.6"/>
		<polygon class="st4" points="144.3,10.6 144.3,17 144.3,17 144.3,17 127.3,22.5 127.3,16.8 		"/>
		<polygon class="st4" points="144.3,45.4 144.3,95.1 104.9,98.7 104.9,54.8 104.9,54.8 105.9,54.5 112.9,52.9 		"/>
		<polygon class="st4" points="144.3,35.9 144.3,45.4 112.9,52.9 112.9,44.4 112.9,44.3 112.9,44.3 120.7,42.2 		"/>
		<polygon class="st4" points="144.3,26.6 144.3,35.9 120.7,42.2 120.7,42.2 120.7,33.6 120.7,33.6 122.9,32.9 		"/>
		<polygon class="st4" points="123,23.9 127.3,22.5 144.3,17 144.3,17 144.3,26.6 122.9,32.9 122.9,23.9 123,23.9 		"/>
		<polygon class="st7" points="143.1,151.6 122,151.6 122,151.5 		"/>
		<path class="st7" d="M137.1,151.4L137.1,151.4l-14.6,0.1V127h14.6V151.4z M135,147.9v-18.5h-10.3v18.5H135z"/>
		<rect x="122.5" y="123" class="st6" width="14.6" height="3.9"/>
		<polygon class="st7" points="137.1,118 137.1,123 122.5,123 122.5,127 122,127 122,151.5 119.4,151.5 119.4,116.7 137.1,116.7 		
			"/>
		<rect x="124.6" y="129.3" class="st6" width="10.4" height="18.6"/>
		<polygon class="st1" points="122.9,23.9 93.5,15.6 93.3,5 127.3,16.8 127.3,22.5 123,23.9 123,23.9 		"/>
		<polygon class="st1" points="41.2,3 41.2,1 41.2,1 78.4,11.4 93.5,15.6 122.9,23.9 122.9,32.9 120.7,33.6 120.7,33.6 120.7,33.6 
			56.5,17.3 53.7,18.5 48.3,20.9 45.5,22.1 41.2,24 41.2,17 41.2,15.5 41.2,11.1 41.2,7.3 		"/>
		<rect x="122" y="127" class="st7" width="0.5" height="24.5"/>
		<polygon class="st1" points="73.9,35.8 73.8,36 71,37 56.5,41.8 56.5,18.7 56.5,17.3 120.7,33.6 120.7,33.6 120.7,42.2 
			120.7,42.2 112.9,44.3 112.9,44.3 112.9,44.4 		"/>
		<polygon class="st1" points="73.8,37.4 73.8,36 73.9,35.8 112.9,44.4 112.9,52.9 105.9,54.5 104.9,54.8 103.9,55 73.8,62.2 
			73.8,52.2 73.8,51.1 73.8,50.1 		"/>
		<polygon class="st4" points="73.8,134.7 73.8,120.2 73.8,117.9 73.8,101.6 104.9,98.7 104.9,151.5 73.8,145.9 73.8,137.2 		"/>
		<polygon class="st4" points="73.8,64.9 73.8,63.7 73.8,62.2 103.9,55 104.9,54.8 104.9,98.7 73.8,101.6 73.8,101.2 73.8,98.9 
			73.8,79.1 73.8,77.5 73.8,69.6 		"/>
		<polygon class="st4" points="104.9,54.8 104.9,54.8 103.9,55 		"/>
		<polygon class="st0" points="93.3,5 93.5,15.6 78.4,11.4 		"/>
		<polygon class="st1" points="73.8,37.4 73.8,50.1 71,50.8 71,38.3 		"/>
		<polygon class="st0" points="73.8,36 73.8,37.4 71,38.3 71,37 		"/>
		<polygon class="st0" points="73.8,50.1 73.8,51.1 73.7,51.1 71,51.8 71,50.8 		"/>
		<polygon class="st1" points="73.8,51.1 73.8,52.2 73.7,52.2 71,53 71,51.8 73.7,51.1 		"/>
		<polygon class="st0" points="73.8,52.2 73.8,62.2 73.8,62.3 73.8,62.4 73.6,62.4 71,63 71,53 73.7,52.2 		"/>
		<polygon class="st0" points="73.8,134.7 73.8,137.2 68.2,136.4 68.2,134.1 		"/>
		<polygon class="st0" points="68.2,136.4 73.8,137.2 73.8,145.9 0,130.6 0,127 8.4,128.2 14.6,129 36.4,132 43.2,133 		"/>
		<polygon class="st0" points="73.8,120.2 73.8,134.7 68.2,134.1 68.2,120.1 		"/>
		<polygon class="st0" points="73.8,117.9 73.8,120.2 68.2,120.1 68.2,117.9 		"/>
		<path class="st0" d="M68.3,101.6l5.6-0.4v16.7h-5.6h-25h-6.9H14.6H0v-11.1l8.4-0.6l6.2-0.5l21.8-1.7l6.8-0.5L68.3,101.6z
			 M56.4,111.2v-2.7l-2.7,0.2v2.6L56.4,111.2z M26.7,112v-2.1l-2.6,0.1v2L26.7,112z"/>
		<polygon class="st0" points="73.8,98.9 73.8,101.2 68.2,101.6 68.2,99.4 		"/>
		<polygon class="st0" points="73.8,84.9 73.8,98.9 68.2,99.4 68.2,85.7 73.5,84.9 		"/>
		<polygon class="st0" points="73.8,82.9 73.8,84.9 73.5,84.9 68.2,85.7 68.2,83.7 73.5,82.9 		"/>
		<polygon class="st0" points="73.8,79.1 73.8,82.9 73.5,82.9 68.2,83.7 68.2,80.1 		"/>
		<polygon class="st1" points="73.8,77.5 73.8,79.1 68.2,80.1 68.2,78.4 		"/>
		<polygon class="st0" points="71,65.6 73.8,64.9 73.8,69.6 71,70.2 71,72.8 73.8,72.2 73.8,77.5 68.2,78.4 56.5,80.5 56.5,68.9 		
			"/>
		<polygon class="st1" points="73.8,69.6 73.8,72.2 71,72.8 71,70.2 		"/>
		<polygon class="st0" points="73.8,63.8 73.8,64.9 71,65.6 71,64.4 		"/>
		<polygon class="st1" points="73.8,62.4 73.8,63.8 71,64.4 71,63 73.6,62.4 		"/>
		<polygon class="st0" points="71,64.4 71,65.6 56.5,68.9 56.5,67.9 		"/>
		<polygon class="st1" points="60.2,65.6 61.8,65.2 65.6,64.3 67.1,64 71,63 71,64.4 56.5,67.9 56.5,66.5 		"/>
		<polygon class="st6" points="71,53 71,63 67.1,64 67.1,63.9 67.1,54 67.1,54 		"/>
		<polygon class="st1" points="60.2,55.8 56.5,56.8 56.5,55.7 71,51.8 71,53 67.1,54 65.6,54.4 61.7,55.4 		"/>
		<polygon class="st0" points="71,50.8 71,51.8 56.5,55.7 56.5,54.8 		"/>
		<polygon class="st0" points="71,38.3 71,50.8 56.5,54.8 56.5,43.2 		"/>
		<polygon class="st1" points="71,37 71,38.3 56.5,43.2 56.5,41.9 		"/>
		<polygon class="st1" points="71,37 56.5,41.9 56.5,41.8 		"/>
		<polygon class="st1" points="51.9,132.3 58.6,133 68.2,134.1 68.2,136.4 43.2,133 43.2,131.3 		"/>
		<polygon class="st6" points="68.2,120.1 68.2,134.1 58.6,133 58.6,119.9 		"/>
		<polygon class="st1" points="51.9,119.8 43.2,119.7 43.2,118 68.2,117.9 68.2,120.1 58.6,119.9 		"/>
		<polygon class="st1" points="51.9,100.9 58.6,100.3 68.2,99.4 68.2,101.6 43.2,103.6 43.2,103.5 43.2,101.8 		"/>
		<polygon class="st6" points="68.2,85.7 68.2,99.4 58.6,100.3 58.6,100.3 58.6,87.2 58.6,87.2 		"/>
		<polygon class="st1" points="68.2,83.7 68.2,85.7 58.6,87.2 51.9,88.2 43.2,89.5 43.2,87.8 		"/>
		<polygon class="st0" points="68.2,80.1 68.2,83.7 43.2,87.8 43.2,86.3 53.8,84.6 56.5,84.1 56.5,82.1 		"/>
		<polygon class="st0" points="68.2,78.4 68.2,80.1 56.5,82.1 56.5,80.5 		"/>
		<polygon class="st0" points="67.1,63.9 67.1,64 65.6,64.3 65.6,54.4 65.6,54.4 67.1,54 67.1,54 		"/>
		<polygon class="st6" points="65.6,54.4 65.6,64.3 61.8,65.2 61.8,65.2 61.8,55.5 61.7,55.4 65.6,54.4 		"/>
		<polygon class="st0" points="61.8,65.2 61.8,65.2 60.2,65.6 60.2,55.8 61.7,55.4 61.8,55.5 		"/>
		<polygon class="st6" points="60.2,55.8 60.2,65.6 56.5,66.5 56.5,56.8 		"/>
		<polygon class="st0" points="58.6,100.3 58.6,100.3 51.9,100.9 51.9,88.2 51.9,88.2 58.6,87.2 58.6,87.2 		"/>
		<polygon class="st0" points="58.6,119.9 58.6,133 51.9,132.3 51.9,119.8 		"/>
		<polygon class="st1" points="56.5,82.1 56.5,84.1 53.8,84.5 53.8,82.5 		"/>
		<polygon class="st1" points="56.5,80.5 56.5,82.1 53.8,82.5 53.8,81 		"/>
		<polygon class="st1" points="56.5,68.9 56.5,80.5 53.8,81 53.8,69.6 		"/>
		<polygon class="st1" points="56.5,67.9 56.5,68.9 53.8,69.6 53.8,68.5 		"/>
		<polygon class="st0" points="56.5,66.5 56.5,67.9 53.8,68.5 53.8,67.2 		"/>
		<polygon class="st1" points="56.5,56.8 56.5,66.5 53.8,67.2 53.8,57.6 		"/>
		<polygon class="st0" points="56.5,55.7 56.5,56.8 53.8,57.6 53.8,56.5 		"/>
		<polygon class="st1" points="56.5,54.8 56.5,55.7 53.8,56.5 53.8,55.5 		"/>
		<polygon class="st1" points="56.5,43.2 56.5,54.8 53.8,55.5 53.8,44.1 		"/>
		<polygon class="st0" points="56.5,41.9 56.5,43.2 53.8,44.1 53.8,42.8 56.4,41.9 56.4,41.9 		"/>
		<polygon class="st1" points="56.5,41.8 56.5,41.9 56.4,41.9 56.4,41.9 		"/>
		<polygon class="st1" points="56.5,18.7 56.5,41.8 56.4,41.9 56.4,31.5 56.4,30.2 56.4,28.8 56.5,24.7 56.5,23.5 		"/>
		<polygon class="st0" points="56.5,17.3 56.5,18.7 56.3,18.7 53.8,19.8 53.8,18.6 53.7,18.5 		"/>
		<polygon class="st1" points="56.5,18.7 56.5,23.5 56.4,23.5 53.8,24.6 53.8,19.8 56.3,18.7 		"/>
		<polygon class="st0" points="56.5,84.1 53.8,84.6 43.2,86.3 43.2,84.3 53.8,82.5 53.8,84.5 		"/>
		<polygon class="st0" points="56.5,23.5 56.5,24.7 56.3,24.7 53.8,25.8 53.8,24.6 56.4,23.5 		"/>
		<polygon class="st1" points="56.5,24.7 56.4,28.8 56.3,28.8 53.8,29.7 53.8,25.8 56.3,24.7 		"/>
		<polygon class="st1" points="56.4,28.8 56.4,30.2 56.3,30.2 53.8,31.1 53.8,29.7 56.3,28.8 		"/>
		<polygon class="st0" points="56.4,30.2 56.4,31.5 56.3,31.5 53.8,32.4 53.8,31.1 56.3,30.2 		"/>
		<polygon class="st1" points="56.4,31.5 56.4,41.9 53.8,42.8 53.8,32.4 56.3,31.5 		"/>
		<polygon class="st1" points="56.4,108.5 56.4,111.2 53.7,111.3 53.7,108.7 		"/>
		<polygon class="st0" points="53.8,81 53.8,82.5 43.2,84.3 43.2,82.9 		"/>
		<path class="st0" d="M43.2,82.9l-6.8,1.2l-9.7,1.7v-9.9l11.8-2.8l15.2-3.5V81L43.2,82.9z M41.2,79v-2.5l-2.6,0.6v2.4L41.2,79z"/>
		<polygon class="st0" points="53.8,68.5 53.8,69.6 38.6,73.1 41.2,72.5 41.2,71.5 		"/>
		<polygon class="st1" points="50.5,67.9 53.8,67.2 53.8,68.5 41.2,71.5 41.2,70.2 44.2,69.5 45.5,69.2 49.2,68.3 		"/>
		<polygon class="st6" points="53.8,57.6 53.8,67.2 50.5,67.9 50.5,58.4 50.5,58.4 		"/>
		<polygon class="st1" points="44.2,60.1 41.2,60.9 41.2,59.8 53.8,56.5 53.8,57.6 50.5,58.4 49.2,58.8 45.5,59.8 		"/>
		<polygon class="st0" points="53.8,55.5 53.8,56.5 41.2,59.8 41.2,58.9 		"/>
		<polygon class="st0" points="53.8,44.1 53.8,55.5 41.2,58.9 41.2,48.3 		"/>
		<polygon class="st1" points="53.8,42.8 53.8,44.1 41.2,48.3 41.2,47 45.6,45.5 48.3,44.6 		"/>
		<polygon class="st6" points="53.8,32.4 53.8,42.8 48.3,44.6 48.3,44.6 48.3,34.4 		"/>
		<polygon class="st1" points="53.8,31.1 53.8,32.4 48.3,34.4 48.3,33.1 		"/>
		<polygon class="st0" points="53.8,29.7 53.8,31.1 48.3,33.1 48.3,31.8 		"/>
		<polygon class="st0" points="53.8,25.8 53.8,29.7 48.3,31.8 48.3,28 		"/>
		<polygon class="st0" points="53.8,24.6 53.8,25.8 48.3,28 48.3,26.8 		"/>
		<polygon class="st1" points="53.8,19.8 53.8,24.6 48.3,26.8 48.3,22.1 		"/>
		<polygon class="st1" points="53.8,18.6 53.8,19.8 48.3,22.1 48.3,20.9 53.7,18.5 		"/>
		<polygon class="st6" points="51.9,119.8 51.9,132.3 43.2,131.3 43.2,119.7 		"/>
		<polygon class="st6" points="51.9,88.2 51.9,100.9 43.2,101.8 43.2,89.5 51.9,88.2 		"/>
		<polygon class="st0" points="50.5,58.4 50.5,67.9 49.2,68.3 49.2,58.8 50.5,58.4 		"/>
		<polygon class="st6" points="49.2,58.8 49.2,68.3 45.5,69.2 45.5,59.8 45.5,59.8 		"/>
		<polygon class="st0" points="48.3,44.6 48.3,44.6 45.6,45.5 45.6,45.5 45.6,35.4 48.3,34.4 		"/>
		<polygon class="st1" points="48.3,33.1 48.3,34.4 45.6,35.4 45.6,34.1 		"/>
		<polygon class="st0" points="48.3,31.8 48.3,33.1 45.6,34.1 45.6,32.8 		"/>
		<polygon class="st1" points="48.3,28 48.3,31.8 45.6,32.8 45.6,29.1 		"/>
		<polygon class="st1" points="48.3,26.8 48.3,28 45.6,29.1 45.6,27.9 		"/>
		<polygon class="st1" points="48.3,22.1 48.3,26.8 45.6,27.9 45.6,23.3 		"/>
		<polygon class="st0" points="48.3,20.9 48.3,22.1 45.6,23.3 45.6,22.2 45.5,22.1 		"/>
		<polygon class="st6" points="45.6,45.5 41.2,47 41.2,37 45.6,35.4 45.6,45.5 		"/>
		<polygon class="st1" points="45.6,34.1 45.6,35.4 41.2,37 41.2,35.8 		"/>
		<polygon class="st0" points="45.6,32.8 45.6,34.1 41.2,35.8 41.2,34.5 		"/>
		<polygon class="st0" points="45.6,29.1 45.6,32.8 41.2,34.5 41.2,30.8 		"/>
		<polygon class="st0" points="45.6,27.9 45.6,29.1 41.2,30.8 41.2,29.7 		"/>
		<polygon class="st1" points="45.6,23.3 45.6,27.9 41.2,29.7 41.2,25.2 		"/>
		<polygon class="st1" points="45.6,22.2 45.6,23.3 41.2,25.2 41.2,24 45.5,22.1 		"/>
		<polygon class="st0" points="45.5,59.8 45.5,69.2 44.2,69.5 44.2,60.1 45.5,59.8 		"/>
		<polygon class="st6" points="44.2,60.1 44.2,69.5 41.2,70.2 41.2,60.9 		"/>
		<polygon class="st0" points="43.2,131.3 43.2,133 36.4,132 36.4,130.5 		"/>
		<polygon class="st0" points="43.2,119.7 43.2,131.3 36.4,130.5 36.4,119.6 		"/>
		<polygon class="st0" points="43.2,118 43.2,119.7 36.4,119.6 36.4,118 		"/>
		<polygon class="st0" points="43.2,103.5 43.2,103.6 36.4,104.1 36.4,104 36.4,102.4 43.2,101.8 		"/>
		<polygon class="st0" points="43.2,89.5 43.2,101.8 36.4,102.4 36.4,90.5 		"/>
		<polygon class="st0" points="43.2,87.8 43.2,89.5 36.4,90.5 36.4,89 		"/>
		<polygon class="st0" points="43.2,86.3 43.2,87.8 36.4,89 36.4,87.4 		"/>
		<polygon class="st0" points="43.2,84.3 43.2,86.3 36.4,87.4 36.4,85.5 		"/>
		<polygon class="st1" points="43.2,82.9 43.2,84.3 36.4,85.5 36.4,84.1 36.4,84.1 		"/>
		<polygon class="st1" points="41.2,17 41.2,24 38.6,25.2 38.6,18.2 		"/>
		<polygon class="st0" points="41.2,24 41.2,25.2 38.6,26.3 38.6,25.2 		"/>
		<polygon class="st1" points="41.2,25.2 41.2,29.7 38.6,30.7 38.6,26.3 		"/>
		<polygon class="st0" points="41.2,29.7 41.2,30.8 38.6,31.9 38.6,30.7 		"/>
		<polygon class="st1" points="41.2,30.8 41.2,34.5 38.6,35.5 38.6,31.9 		"/>
		<polygon class="st1" points="41.2,34.5 41.2,35.8 38.6,36.8 38.6,35.5 		"/>
		<polygon class="st0" points="41.2,35.8 41.2,37 38.6,37.9 38.6,36.8 		"/>
		<polygon class="st1" points="41.2,37 41.2,47 38.6,47.9 38.6,37.9 		"/>
		<polygon class="st0" points="41.2,47 41.2,48.3 38.6,49.2 38.6,47.9 		"/>
		<polygon class="st1" points="41.2,48.3 41.2,58.9 38.6,59.6 38.6,49.2 		"/>
		<polygon class="st0" points="41.2,15.5 41.2,17 38.6,18.2 38.6,16.7 		"/>
		<polygon class="st1" points="41.2,76.5 41.2,79 38.6,79.5 38.6,77.1 		"/>
		<polygon class="st0" points="41.2,58.9 41.2,59.8 38.6,60.5 38.6,59.6 		"/>
		<polygon class="st1" points="41.2,59.8 41.2,60.9 38.6,61.6 38.6,60.5 		"/>
		<polygon class="st1" points="41.2,11.1 41.2,15.5 38.6,16.7 38.6,12.3 41.2,11.1 		"/>
		<polygon class="st0" points="41.2,60.9 41.2,70.2 38.6,70.8 38.6,61.6 		"/>
		<polygon class="st1" points="41.2,70.2 41.2,71.5 38.6,72.2 38.6,70.8 		"/>
		<polygon class="st0" points="41.2,7.3 41.2,11.1 41.2,11.1 38.6,12.3 38.6,8.6 		"/>
		<polygon class="st1" points="41.2,3 41.2,7.3 38.6,8.6 38.6,4.3 		"/>
		<polygon class="st0" points="41.2,1 41.2,3 38.6,4.3 38.6,2.4 		"/>
		<polygon class="st0" points="38.6,72.2 38.6,73.1 26.7,75.9 26.7,75 		"/>
		<polygon class="st1" points="30,72.9 31.2,72.6 34.5,71.8 35.6,71.6 38.6,70.8 38.6,72.2 26.7,75 26.7,73.7 		"/>
		<polygon class="st6" points="38.6,61.6 38.6,70.8 35.6,71.6 35.6,71.5 35.6,62.4 		"/>
		<polygon class="st1" points="34.5,62.7 31.2,63.6 30,63.9 26.7,64.8 26.7,63.7 38.6,60.5 38.6,61.6 35.6,62.4 		"/>
		<polygon class="st0" points="38.6,59.6 38.6,60.5 26.7,63.7 26.7,62.8 		"/>
		<polygon class="st0" points="38.6,49.2 38.6,59.6 26.7,62.8 26.7,53.2 		"/>
		<polygon class="st1" points="33.9,49.5 38.6,47.9 38.6,49.2 26.7,53.2 26.7,51.9 31.2,50.4 		"/>
		<polygon class="st6" points="38.6,37.9 38.6,47.9 33.9,49.5 33.9,39.6 		"/>
		<polygon class="st1" points="38.6,36.8 38.6,37.9 33.9,39.6 33.9,38.5 		"/>
		<polygon class="st0" points="38.6,35.5 38.6,36.8 33.9,38.5 33.9,37.3 		"/>
		<polygon class="st0" points="38.6,31.9 38.6,35.5 33.9,37.3 33.9,33.8 		"/>
		<polygon class="st0" points="38.6,30.7 38.6,31.9 33.9,33.8 33.9,32.7 		"/>
		<polygon class="st1" points="38.6,26.3 38.6,30.7 33.9,32.7 33.9,28.4 		"/>
		<polygon class="st1" points="38.6,25.2 38.6,26.3 33.9,28.4 33.9,27.2 		"/>
		<polygon class="st6" points="38.6,18.2 38.6,25.2 33.9,27.2 33.9,20.4 		"/>
		<polygon class="st0" points="38.6,16.7 38.6,18.2 33.9,20.4 33.9,18.9 		"/>
		<polygon class="st1" points="38.6,12.3 38.6,16.7 33.9,18.9 33.9,14.6 		"/>
		<polygon class="st1" points="38.6,8.6 38.6,12.3 33.9,14.6 33.9,10.9 		"/>
		<polygon class="st1" points="38.6,4.3 38.6,8.6 33.9,10.9 33.9,6.7 		"/>
		<polygon class="st0" points="38.6,2.4 38.6,4.3 33.9,6.7 33.9,5.1 33.8,5 		"/>
		<polygon class="st1" points="28.6,103.1 36.4,102.4 36.4,104 36.4,104.1 14.6,105.8 14.6,105.8 14.6,104.5 22,103.8 		"/>
		<polygon class="st6" points="36.4,90.5 36.4,102.4 28.6,103.1 28.6,91.7 28.6,91.7 		"/>
		<polygon class="st1" points="36.4,89 36.4,90.5 28.6,91.7 22,92.7 14.6,93.8 14.6,92.6 		"/>
		<polygon class="st0" points="26.7,88.9 36.4,87.4 36.4,89 14.6,92.6 14.6,90.9 24.1,89.4 		"/>
		<polygon class="st0" points="36.4,85.5 36.4,87.4 26.7,88.9 26.7,87.1 		"/>
		<polygon class="st0" points="36.4,84.1 36.4,85.5 26.7,87.1 26.7,85.8 36.4,84.1 		"/>
		<polygon class="st1" points="22,128.9 28.6,129.7 36.4,130.5 36.4,132 14.6,129 14.6,128.1 		"/>
		<polygon class="st6" points="36.4,119.6 36.4,130.5 28.6,129.7 28.6,119.4 		"/>
		<polygon class="st1" points="22,119.3 14.6,119.2 14.6,118 36.4,118 36.4,119.6 28.6,119.4 		"/>
		<polygon class="st0" points="35.6,71.5 35.6,71.6 34.5,71.8 34.5,71.8 34.5,62.7 35.6,62.4 		"/>
		<polygon class="st6" points="34.5,71.8 34.5,71.8 31.2,72.6 31.2,72.6 31.2,63.6 34.5,62.7 		"/>
		<polygon class="st0" points="33.9,39.6 33.9,49.5 31.2,50.4 31.2,40.6 		"/>
		<polygon class="st1" points="33.9,38.5 33.9,39.6 31.2,40.6 31.2,39.5 		"/>
		<polygon class="st0" points="33.9,37.3 33.9,38.5 31.2,39.5 31.2,38.3 		"/>
		<polygon class="st1" points="33.9,33.8 33.9,37.3 31.2,38.3 31.2,34.9 		"/>
		<polygon class="st1" points="33.9,32.7 33.9,33.8 31.2,34.9 31.2,33.7 		"/>
		<polygon class="st1" points="33.9,28.4 33.9,32.7 31.2,33.7 31.2,29.5 		"/>
		<polygon class="st0" points="33.9,27.2 33.9,28.4 31.2,29.5 31.2,28.4 		"/>
		<polygon class="st1" points="33.9,20.4 33.9,27.2 31.2,28.4 31.2,21.6 		"/>
		<polygon class="st0" points="33.9,18.9 33.9,20.4 31.2,21.6 31.2,20.1 		"/>
		<polygon class="st1" points="33.9,14.6 33.9,18.9 31.2,20.1 31.2,15.8 		"/>
		<polygon class="st0" points="33.9,10.9 33.9,14.6 31.2,15.8 31.2,12.2 		"/>
		<polygon class="st1" points="33.9,6.7 33.9,10.9 31.2,12.2 31.2,8.1 		"/>
		<polygon class="st0" points="33.9,5.1 33.9,6.7 31.2,8.1 31.2,6.4 31.2,6.3 33.8,5 		"/>
		<polygon class="st0" points="31.2,72.6 31.2,72.6 30,72.9 30,63.9 31.2,63.6 		"/>
		<polygon class="st6" points="31.2,40.6 31.2,50.4 26.7,51.9 26.7,42.2 		"/>
		<polygon class="st1" points="31.2,39.5 31.2,40.6 26.7,42.2 26.7,41.2 		"/>
		<polygon class="st0" points="31.2,38.3 31.2,39.5 26.7,41.2 26.7,40 		"/>
		<polygon class="st0" points="31.2,34.9 31.2,38.3 26.7,40 26.7,36.7 		"/>
		<polygon class="st0" points="31.2,33.7 31.2,34.9 26.7,36.7 26.7,35.5 		"/>
		<polygon class="st1" points="31.2,29.5 31.2,33.7 26.7,35.5 26.7,31.4 		"/>
		<polygon class="st1" points="31.2,28.4 31.2,29.5 26.7,31.4 26.7,30.3 		"/>
		<polygon class="st6" points="31.2,21.6 31.2,28.4 26.7,30.3 26.7,23.7 		"/>
		<polygon class="st0" points="31.2,20.1 31.2,21.6 26.7,23.7 26.7,22.2 		"/>
		<polygon class="st1" points="31.2,15.8 31.2,20.1 26.7,22.2 26.7,18 		"/>
		<polygon class="st1" points="31.2,12.2 31.2,15.8 26.7,18 26.7,14.4 		"/>
		<polygon class="st1" points="31.2,8.1 31.2,12.2 26.7,14.4 26.7,10.3 		"/>
		<polygon class="st0" points="31.2,6.4 31.2,8.1 26.7,10.3 26.7,8.9 26.6,8.8 31.2,6.3 		"/>
		<polygon class="st6" points="30,63.9 30,72.9 26.7,73.7 26.7,64.8 		"/>
		<polygon class="st0" points="28.6,91.7 28.6,103.1 22,103.8 22,92.7 22,92.7 28.6,91.7 		"/>
		<polygon class="st0" points="28.6,119.4 28.6,129.7 22,128.9 22,119.3 		"/>
		<polygon class="st1" points="26.7,87.1 26.7,88.9 24.1,89.4 24.1,89.3 24.1,87.6 		"/>
		<polygon class="st1" points="26.7,85.8 26.7,87.1 24.1,87.6 24.1,86.2 		"/>
		<polygon class="st1" points="26.7,75.9 26.7,85.8 24.1,86.2 24.1,76.5 		"/>
		<polygon class="st1" points="26.7,75 26.7,75.9 24.1,76.5 24.1,75.6 		"/>
		<polygon class="st0" points="26.7,73.7 26.7,75 24.1,75.6 24.1,74.3 		"/>
		<polygon class="st1" points="26.7,64.8 26.7,73.7 24.1,74.3 24.1,65.5 		"/>
		<polygon class="st0" points="26.7,63.7 26.7,64.8 24.1,65.5 24.1,64.4 		"/>
		<polygon class="st1" points="26.7,62.8 26.7,63.7 24.1,64.4 24.1,63.5 		"/>
		<polygon class="st1" points="26.7,53.2 26.7,62.8 24.1,63.5 24.1,54.1 		"/>
		<polygon class="st0" points="26.7,51.9 26.7,53.2 24.1,54.1 24.1,52.8 		"/>
		<polygon class="st1" points="26.7,42.2 26.7,51.9 24.1,52.8 24.1,43.2 		"/>
		<polygon class="st0" points="26.7,41.2 26.7,42.2 24.1,43.2 24.1,42.1 		"/>
		<polygon class="st1" points="26.7,40 26.7,41.2 24.1,42.1 24.1,41 		"/>
		<polygon class="st1" points="26.7,36.7 26.7,40 24.1,41 24.1,37.7 		"/>
		<polygon class="st0" points="26.7,35.5 26.7,36.7 24.1,37.7 24.1,36.6 		"/>
		<polygon class="st1" points="26.7,31.4 26.7,35.5 24.1,36.6 24.1,32.6 		"/>
		<polygon class="st0" points="26.7,30.3 26.7,31.4 24.1,32.6 24.1,31.5 		"/>
		<polygon class="st1" points="26.7,23.7 26.7,30.3 24.1,31.5 24.1,24.9 		"/>
		<polygon class="st0" points="26.7,22.2 26.7,23.7 24.1,24.9 24.1,23.4 		"/>
		<polygon class="st1" points="26.7,18 26.7,22.2 24.1,23.4 24.1,19.2 		"/>
		<polygon class="st0" points="26.7,14.4 26.7,18 24.1,19.2 24.1,15.7 		"/>
		<polygon class="st1" points="26.7,10.3 26.7,14.4 24.1,15.7 24.1,11.7 		"/>
		<polygon class="st0" points="26.7,8.9 26.7,10.3 24.1,11.7 24.1,10.2 24.1,10.1 26.6,8.8 		"/>
		<polygon class="st1" points="26.7,109.9 26.7,112 24.1,112.1 24.1,110 		"/>
		<polygon class="st0" points="24.1,89.3 24.1,89.4 14.6,90.9 14.6,89.2 24.1,87.6 		"/>
		<polygon class="st0" points="24.1,86.2 24.1,87.6 14.6,89.2 14.6,87.9 		"/>
		<path class="st0" d="M14.6,87.9L8.4,89L0,90.5v-8.4l10.2-2.4l2.6-0.6l11.2-2.6v9.7L14.6,87.9z M12.9,84.8v-2.2l-2.6,0.6v2.2
			L12.9,84.8z"/>
		<polygon class="st0" points="24.1,75.6 24.1,76.5 12.9,79.1 12.9,78.3 		"/>
		<polygon class="st1" points="16.8,76.1 19.9,75.3 20.9,75.1 24.1,74.3 24.1,75.6 12.9,78.3 12.9,77 15.7,76.3 		"/>
		<polygon class="st6" points="24.1,65.5 24.1,74.3 20.9,75.1 20.9,66.4 20.9,66.3 		"/>
		<polygon class="st1" points="19.9,66.6 16.8,67.4 15.7,67.7 12.9,68.5 12.9,67.4 24.1,64.4 24.1,65.5 20.9,66.3 		"/>
		<polygon class="st0" points="24.1,63.5 24.1,64.4 12.9,67.4 12.9,66.6 		"/>
		<polygon class="st0" points="24.1,54.1 24.1,63.5 12.9,66.6 12.9,57.8 		"/>
		<polygon class="st1" points="16.8,55.2 19.5,54.3 24.1,52.8 24.1,54.1 12.9,57.8 12.9,56.6 		"/>
		<polygon class="st6" points="24.1,43.2 24.1,52.8 19.5,54.3 19.5,44.9 		"/>
		<polygon class="st1" points="24.1,42.1 24.1,43.2 19.5,44.9 19.5,43.8 		"/>
		<polygon class="st0" points="24.1,41 24.1,42.1 19.5,43.8 19.5,42.7 		"/>
		<polygon class="st0" points="24.1,37.7 24.1,41 19.5,42.7 19.5,39.6 		"/>
		<polygon class="st0" points="24.1,36.6 24.1,37.7 19.5,39.6 19.5,38.5 		"/>
		<polygon class="st1" points="24.1,32.6 24.1,36.6 19.5,38.5 19.5,34.5 		"/>
		<polygon class="st1" points="24.1,31.5 24.1,32.6 19.5,34.5 19.5,33.5 		"/>
		<polygon class="st6" points="24.1,24.9 24.1,31.5 19.5,33.5 19.5,27 		"/>
		<polygon class="st0" points="24.1,23.4 24.1,24.9 19.5,27 19.5,25.5 		"/>
		<polygon class="st1" points="24.1,19.2 24.1,23.4 19.5,25.5 19.5,21.4 		"/>
		<polygon class="st1" points="24.1,15.7 24.1,19.2 19.5,21.4 19.5,18 		"/>
		<polygon class="st1" points="24.1,11.7 24.1,15.7 19.5,18 19.5,14 		"/>
		<polygon class="st0" points="24.1,10.2 24.1,11.7 19.5,14 19.5,12.7 19.4,12.6 24.1,10.1 		"/>
		<polygon class="st6" points="22,119.3 22,128.9 14.6,128.1 14.6,119.2 		"/>
		<polygon class="st6" points="22,92.7 22,103.8 14.6,104.5 14.6,93.8 22,92.7 		"/>
		<polygon class="st0" points="20.9,66.4 20.9,75.1 19.9,75.3 19.9,66.6 20.9,66.3 		"/>
		<polygon class="st6" points="19.9,66.6 19.9,75.3 16.8,76.1 16.8,67.5 16.8,67.4 		"/>
		<polygon class="st0" points="19.5,44.9 19.5,54.3 16.8,55.2 16.8,45.8 		"/>
		<polygon class="st1" points="19.5,43.8 19.5,44.9 16.8,45.8 16.8,44.8 		"/>
		<polygon class="st0" points="19.5,42.7 19.5,43.8 16.8,44.8 16.8,43.7 		"/>
		<polygon class="st1" points="19.5,39.6 19.5,42.7 16.8,43.7 16.8,40.7 		"/>
		<polygon class="st1" points="19.5,38.5 19.5,39.6 16.8,40.7 16.8,39.5 		"/>
		<polygon class="st1" points="19.5,34.5 19.5,38.5 16.8,39.5 16.8,35.7 		"/>
		<polygon class="st0" points="19.5,33.5 19.5,34.5 16.8,35.7 16.8,34.6 		"/>
		<polygon class="st1" points="19.5,27 19.5,33.5 16.8,34.6 16.8,28.3 		"/>
		<polygon class="st0" points="19.5,25.5 19.5,27 16.8,28.3 16.8,26.8 		"/>
		<polygon class="st1" points="19.5,21.4 19.5,25.5 16.8,26.8 16.8,22.7 		"/>
		<polygon class="st0" points="19.5,18 19.5,21.4 16.8,22.7 16.8,19.3 		"/>
		<polygon class="st1" points="19.5,14 19.5,18 16.8,19.3 16.8,15.3 		"/>
		<polygon class="st0" points="19.5,12.7 19.5,14 16.8,15.3 16.8,14 16.8,14 19.4,12.6 		"/>
		<polygon class="st6" points="16.8,45.8 16.8,55.2 12.9,56.6 12.9,47.3 		"/>
		<polygon class="st1" points="16.8,44.8 16.8,45.8 12.9,47.3 12.9,46.3 		"/>
		<polygon class="st0" points="16.8,43.7 16.8,44.8 12.9,46.3 12.9,45.2 		"/>
		<polygon class="st0" points="16.8,40.7 16.8,43.7 12.9,45.2 12.9,42.3 		"/>
		<polygon class="st0" points="16.8,39.5 16.8,40.7 12.9,42.3 12.9,41.2 		"/>
		<polygon class="st1" points="16.8,35.7 16.8,39.5 12.9,41.2 12.9,37.4 		"/>
		<polygon class="st1" points="16.8,34.6 16.8,35.7 12.9,37.4 12.9,36.4 		"/>
		<polygon class="st6" points="16.8,28.3 16.8,34.6 12.9,36.4 12.9,30.1 		"/>
		<polygon class="st0" points="16.8,26.8 16.8,28.3 12.9,30.1 12.9,28.6 		"/>
		<polygon class="st1" points="16.8,22.7 16.8,26.8 12.9,28.6 12.9,24.6 		"/>
		<polygon class="st1" points="16.8,19.3 16.8,22.7 12.9,24.6 12.9,21.2 		"/>
		<polygon class="st1" points="16.8,15.3 16.8,19.3 12.9,21.2 12.9,17.3 		"/>
		<polygon class="st0" points="16.8,14 16.8,15.3 12.9,17.3 12.9,16.1 16.8,14 		"/>
		<polygon class="st0" points="16.8,67.5 16.8,76.1 15.7,76.3 15.7,67.8 15.7,67.7 16.8,67.4 		"/>
		<polygon class="st6" points="15.7,67.8 15.7,76.3 12.9,77 12.9,68.5 15.7,67.7 		"/>
		<polygon class="st0" points="14.6,128.1 14.6,129 8.4,128.2 8.4,127.4 		"/>
		<polygon class="st0" points="14.6,119.2 14.6,128.1 8.4,127.4 8.4,119.1 		"/>
		<polygon class="st0" points="14.6,118 14.6,119.2 8.4,119.1 8.4,118 		"/>
		<polygon class="st0" points="14.6,105.8 14.6,105.8 8.4,106.2 8.4,105.1 14.6,104.5 		"/>
		<polygon class="st0" points="14.6,93.8 14.6,104.5 8.4,105.1 8.4,94.8 		"/>
		<polygon class="st0" points="14.6,92.6 14.6,93.8 8.4,94.8 8.4,93.6 		"/>
		<polygon class="st0" points="14.6,90.9 14.6,92.6 8.4,93.6 8.4,91.9 		"/>
		<polygon class="st0" points="14.6,89.2 14.6,90.9 8.4,91.9 8.4,90.2 		"/>
		<polygon class="st1" points="14.6,87.9 14.6,89.2 8.4,90.2 8.4,89 		"/>
		<polygon class="st1" points="12.9,82.5 12.9,84.8 10.2,85.3 10.2,83.1 		"/>
		<polygon class="st0" points="12.9,78.3 12.9,79.1 10.2,79.8 10.2,78.9 		"/>
		<polygon class="st1" points="12.9,77 12.9,78.3 10.2,78.9 10.2,77.7 		"/>
		<polygon class="st0" points="12.9,68.5 12.9,77 10.2,77.7 10.2,69.2 		"/>
		<polygon class="st1" points="12.9,67.4 12.9,68.5 10.2,69.2 10.2,68.2 		"/>
		<polygon class="st0" points="12.9,66.6 12.9,67.4 10.2,68.2 10.2,67.3 		"/>
		<polygon class="st1" points="12.9,57.8 12.9,66.6 10.2,67.3 10.2,58.7 		"/>
		<polygon class="st0" points="12.9,56.6 12.9,57.8 10.2,58.7 10.2,57.5 		"/>
		<polygon class="st1" points="12.9,47.3 12.9,56.6 10.2,57.5 10.2,48.2 		"/>
		<polygon class="st0" points="12.9,46.3 12.9,47.3 10.2,48.2 10.2,47.3 		"/>
		<polygon class="st1" points="12.9,45.2 12.9,46.3 10.2,47.3 10.2,46.2 		"/>
		<polygon class="st1" points="12.9,42.3 12.9,45.2 10.2,46.2 10.2,43.3 		"/>
		<polygon class="st0" points="12.9,41.2 12.9,42.3 10.2,43.3 10.2,42.2 		"/>
		<polygon class="st1" points="12.9,37.4 12.9,41.2 10.2,42.2 10.2,38.5 		"/>
		<polygon class="st0" points="12.9,36.4 12.9,37.4 10.2,38.5 10.2,37.5 10.2,37.5 		"/>
		<polygon class="st1" points="12.9,30.1 12.9,36.4 10.2,37.5 10.2,31.4 		"/>
		<polygon class="st0" points="12.9,28.6 12.9,30.1 10.2,31.4 10.2,29.8 		"/>
		<polygon class="st1" points="12.9,24.6 12.9,28.6 10.2,29.8 10.2,25.8 		"/>
		<polygon class="st0" points="12.9,21.2 12.9,24.6 10.2,25.8 10.2,22.5 		"/>
		<polygon class="st1" points="12.9,17.3 12.9,21.2 10.2,22.5 10.2,18.7 		"/>
		<polygon class="st0" points="12.9,16.1 12.9,17.3 10.2,18.7 10.2,17.5 		"/>
		<polygon class="st0" points="10.2,78.9 10.2,79.8 0,82.1 0,81.3 		"/>
		<polygon class="st1" points="6.4,78.6 7.3,78.4 10.2,77.7 10.2,78.9 0,81.3 0,80.1 2.5,79.5 3.3,79.3 		"/>
		<polygon class="st6" points="10.2,69.2 10.2,77.7 7.3,78.4 7.3,70 		"/>
		<polygon class="st1" points="7.3,70 6.4,70.2 3.3,71.1 2.5,71.3 0,71.9 0,70.9 10.2,68.2 10.2,69.2 		"/>
		<polygon class="st0" points="10.2,67.3 10.2,68.2 0,70.9 0,70 		"/>
		<polygon class="st0" points="10.2,58.7 10.2,67.3 0,70 0,62.2 		"/>
		<polygon class="st1" points="3.3,59.8 6,58.9 10.2,57.5 10.2,58.7 0,62.2 0,60.9 		"/>
		<polygon class="st6" points="10.2,48.2 10.2,57.5 6,58.9 6,58.9 6,49.8 		"/>
		<polygon class="st1" points="10.2,47.3 10.2,48.2 6,49.8 6,48.9 		"/>
		<polygon class="st0" points="10.2,46.2 10.2,47.3 6,48.9 6,47.8 		"/>
		<polygon class="st0" points="10.2,43.3 10.2,46.2 6,47.8 6,45 		"/>
		<polygon class="st0" points="10.2,42.2 10.2,43.3 6,45 6,43.9 		"/>
		<polygon class="st1" points="10.2,38.5 10.2,42.2 6,43.9 6,40.4 		"/>
		<polygon class="st1" points="10.2,37.5 10.2,38.5 6,40.4 6,39.3 		"/>
		<polygon class="st1" points="1.6,126.6 8.4,127.4 8.4,128.2 0,127 0,126.4 		"/>
		<polygon class="st6" points="8.4,119.1 8.4,127.4 1.6,126.6 1.6,119 		"/>
		<polygon class="st1" points="1.6,119 0,118.9 0,118 8.4,118 8.4,119.1 		"/>
		<polygon class="st1" points="1.6,105.7 8.4,105.1 8.4,106.2 0,106.9 0,105.9 		"/>
		<polygon class="st6" points="8.4,94.8 8.4,105.1 1.6,105.7 1.6,95.8 		"/>
		<polygon class="st1" points="1.6,95.8 0,96 0,94.9 8.4,93.6 8.4,94.8 		"/>
		<polygon class="st0" points="8.4,91.9 8.4,93.6 0,94.9 0,93.3 		"/>
		<polygon class="st0" points="8.4,90.2 8.4,91.9 0,93.3 0,91.7 		"/>
		<polygon class="st0" points="8.4,89 8.4,90.2 0,91.7 0,90.5 		"/>
		<polygon class="st0" points="7.3,70 7.3,78.4 6.4,78.6 6.4,70.2 		"/>
		<polygon class="st6" points="6.4,70.2 6.4,78.6 3.3,79.3 3.3,79.3 3.3,71.1 		"/>
		<polygon class="st0" points="6,58.9 6,58.9 3.3,59.8 3.3,50.7 6,49.8 		"/>
		<polygon class="st1" points="6,48.9 6,49.8 3.3,50.7 3.3,49.8 		"/>
		<polygon class="st0" points="6,47.8 6,48.9 3.3,49.8 3.3,48.8 		"/>
		<polygon class="st1" points="6,45 6,47.8 3.3,48.8 3.3,46.1 		"/>
		<polygon class="st1" points="6,43.9 6,45 3.3,46.1 3.3,45 		"/>
		<polygon class="st1" points="6,40.4 6,43.9 3.3,45 3.3,41.5 		"/>
		<polygon class="st0" points="6,39.3 6,40.4 3.3,41.5 3.3,40.5 		"/>
		<polygon class="st6" points="3.3,50.7 3.3,59.8 0,60.9 0,51.9 		"/>
		<polygon class="st1" points="3.3,49.8 3.3,50.7 0,51.9 0,51.1 		"/>
		<polygon class="st0" points="3.3,48.8 3.3,49.8 0,51.1 0,50 		"/>
		<polygon class="st0" points="3.3,46.1 3.3,48.8 0,50 0,47.5 		"/>
		<polygon class="st0" points="3.3,45 3.3,46.1 0,47.5 0,46.3 		"/>
		<polygon class="st1" points="3.3,41.5 3.3,45 0,46.3 0,42.9 		"/>
		<polygon class="st1" points="3.3,40.5 3.3,41.5 0,42.9 0,42 		"/>
		<polygon class="st0" points="3.3,79.3 3.3,79.3 2.5,79.5 2.5,71.3 3.3,71.1 		"/>
		<polygon class="st6" points="2.5,71.3 2.5,79.5 0,80.1 0,71.9 		"/>
		<polygon class="st0" points="1.6,119 1.6,126.6 0,126.4 0,118.9 		"/>
		<polygon class="st0" points="1.6,95.8 1.6,105.7 0,105.9 0,96 		"/>
	</g>
	<g id="_Group_2">
		<line class="st8" x1="214.9" y1="36.3" x2="176.4" y2="44.5"/>
		<line class="st8" x1="232.4" y1="17.6" x2="168.4" y2="33.6"/>
		<polyline class="st8" points="247.5,1 165.7,23.9 165.6,23.9 		"/>
		<line class="st9" x1="73.7" y1="36.3" x2="112.9" y2="44.4"/>
		<line class="st9" x1="56.3" y1="17.6" x2="120.7" y2="33.6"/>
		<polyline class="st9" points="41.2,1 122.9,23.9 123,23.9 		"/>
		<polyline class="st9" points="112.9,52.9 112.9,44.4 112.9,44.3 		"/>
		<line class="st8" x1="176.4" y1="53" x2="176.4" y2="44.5"/>
		<line class="st9" x1="120.7" y1="42.2" x2="120.7" y2="33.5"/>
		<line class="st8" x1="168.4" y1="42.3" x2="168.4" y2="33.6"/>
		<polyline class="st9" points="122.9,32.9 122.9,23.9 122.9,23.9 		"/>
		<polyline class="st8" points="165.7,23.9 165.7,23.9 165.7,32.9 		"/>
	</g>
	<line class="st10" x1="166.4" y1="96.7" x2="166.4" y2="50.7"/>
	<line class="st10" x1="175.7" y1="97.3" x2="175.7" y2="53.5"/>
	<line class="st10" x1="155.7" y1="95.5" x2="155.7" y2="48.6"/>
	<line class="st10" x1="144.7" y1="58" x2="214.2" y2="71.9"/>
	<line class="st10" x1="144.7" y1="70.2" x2="214" y2="81.5"/>
	<line class="st10" x1="144.7" y1="82.7" x2="214.4" y2="91.5"/>
	<line class="st10" x1="192.7" y1="149.5" x2="192.7" y2="57.1"/>
	<line class="st10" x1="200.3" y1="148.7" x2="200.3" y2="58.7"/>
	<line class="st10" x1="207.3" y1="147" x2="207.3" y2="61.2"/>
	<line class="st10" x1="161.5" y1="30.7" x2="161.5" y2="22.8"/>
	<line class="st10" x1="150.2" y1="27.7" x2="150.2" y2="19.4"/>
	<line class="st10" x1="156" y1="29.2" x2="156" y2="21.3"/>
	<line class="st10" x1="151.4" y1="37.3" x2="151.4" y2="29"/>
	<line class="st10" x1="157.1" y1="38.9" x2="157.1" y2="31"/>
	<line class="st10" x1="162.7" y1="40.4" x2="162.7" y2="32.5"/>
	<line class="st10" x1="154.1" y1="47.8" x2="154.1" y2="39"/>
	<line class="st10" x1="161.8" y1="49.9" x2="161.8" y2="41"/>
	<line class="st10" x1="169.2" y1="51.7" x2="169.2" y2="42.9"/>
	<line class="st11" x1="144.8" y1="22.3" x2="164.9" y2="28.2"/>
	<line class="st11" x1="144.7" y1="32.8" x2="168.3" y2="39.3"/>
	<line class="st11" x1="144.6" y1="43" x2="176.4" y2="50.9"/>
	<line class="st12" x1="149" y1="18.5" x2="149" y2="12.7"/>
	<line class="st12" x1="153.4" y1="19.7" x2="153.4" y2="14.2"/>
	<line class="st12" x1="157.4" y1="21.4" x2="157.4" y2="15.6"/>
	<line class="st12" x1="144.7" y1="15.1" x2="160.8" y2="20.7"/>
	<line class="st10" x1="183.8" y1="109.6" x2="213.3" y2="111.2"/>
	<line class="st10" x1="183.3" y1="119.9" x2="214" y2="120.1"/>
	<line class="st10" x1="183.7" y1="130.7" x2="213.5" y2="128.7"/>
	<line class="st10" x1="183.4" y1="141.1" x2="213.3" y2="136.8"/>
	<line class="st11" x1="166.4" y1="96.7" x2="166.4" y2="50.7"/>
	<line class="st11" x1="175.7" y1="97.3" x2="175.7" y2="53.5"/>
	<line class="st11" x1="155.7" y1="95.5" x2="155.7" y2="48.6"/>
	<line class="st11" x1="144.7" y1="58" x2="214.2" y2="71.9"/>
	<line class="st11" x1="144.7" y1="70.2" x2="214" y2="81.5"/>
	<line class="st11" x1="144.7" y1="82.7" x2="214.4" y2="91.5"/>
	<line class="st11" x1="192.7" y1="149.5" x2="192.7" y2="57.1"/>
	<line class="st11" x1="200.3" y1="148.7" x2="200.3" y2="58.7"/>
	<line class="st11" x1="207.3" y1="147" x2="207.3" y2="61.2"/>
	<line class="st11" x1="161.5" y1="30.7" x2="161.5" y2="22.8"/>
	<line class="st11" x1="150.2" y1="27.7" x2="150.2" y2="19.4"/>
	<line class="st11" x1="156" y1="29.2" x2="156" y2="21.3"/>
	<line class="st11" x1="151.4" y1="37.3" x2="151.4" y2="29"/>
	<line class="st11" x1="157.1" y1="38.9" x2="157.1" y2="31"/>
	<line class="st11" x1="162.7" y1="40.4" x2="162.7" y2="32.5"/>
	<line class="st11" x1="154.1" y1="47.8" x2="154.1" y2="39"/>
	<line class="st11" x1="161.8" y1="49.9" x2="161.8" y2="41"/>
	<line class="st11" x1="169.2" y1="51.7" x2="169.2" y2="42.9"/>
	<line class="st11" x1="144.8" y1="22.3" x2="164.9" y2="28.2"/>
	<line class="st11" x1="144.7" y1="32.8" x2="168.3" y2="39.3"/>
	<line class="st11" x1="144.6" y1="43" x2="176.4" y2="50.9"/>
	<line class="st11" x1="149" y1="18.5" x2="149" y2="12.7"/>
	<line class="st11" x1="153.4" y1="19.7" x2="153.4" y2="14.2"/>
	<line class="st11" x1="157.4" y1="21.4" x2="157.4" y2="15.6"/>
	<line class="st11" x1="144.7" y1="15.1" x2="160.8" y2="20.7"/>
	<line class="st11" x1="183.8" y1="109.6" x2="213.3" y2="111.2"/>
	<line class="st11" x1="183.3" y1="119.9" x2="214" y2="120.1"/>
	<line class="st11" x1="183.7" y1="130.7" x2="213.5" y2="128.7"/>
	<line class="st11" x1="183.4" y1="141.1" x2="213.3" y2="136.8"/>
	<line class="st10" x1="122.8" y1="96.7" x2="122.8" y2="50.7"/>
	<line class="st10" x1="113.5" y1="97.3" x2="113.5" y2="53.5"/>
	<line class="st10" x1="133.5" y1="95.5" x2="133.5" y2="48.6"/>
	<line class="st10" x1="144.5" y1="58" x2="75" y2="71.9"/>
	<line class="st10" x1="144.5" y1="70.2" x2="75.2" y2="81.5"/>
	<line class="st10" x1="144.5" y1="82.7" x2="74.8" y2="91.5"/>
	<line class="st10" x1="96.5" y1="149.5" x2="96.5" y2="57.1"/>
	<line class="st10" x1="88.9" y1="148.7" x2="88.9" y2="58.7"/>
	<line class="st10" x1="81.9" y1="147" x2="81.9" y2="61.2"/>
	<line class="st10" x1="104.7" y1="109.5" x2="75.2" y2="111.1"/>
	<line class="st10" x1="105.1" y1="119.8" x2="74.5" y2="120"/>
	<line class="st10" x1="104.7" y1="130.6" x2="75" y2="128.6"/>
	<line class="st10" x1="105.1" y1="140.9" x2="75.2" y2="136.7"/>
	<line class="st10" x1="127.7" y1="30.7" x2="127.7" y2="22.8"/>
	<line class="st10" x1="138.9" y1="27.7" x2="138.9" y2="19.4"/>
	<line class="st10" x1="133.2" y1="29.2" x2="133.2" y2="21.3"/>
	<line class="st10" x1="137.8" y1="37.3" x2="137.8" y2="29"/>
	<line class="st10" x1="132.1" y1="38.9" x2="132.1" y2="31"/>
	<line class="st10" x1="126.5" y1="40.4" x2="126.5" y2="32.5"/>
	<line class="st10" x1="135.1" y1="47.8" x2="135.1" y2="39"/>
	<line class="st10" x1="127.4" y1="49.9" x2="127.4" y2="41"/>
	<line class="st10" x1="120" y1="51.7" x2="120" y2="42.9"/>
	<line class="st12" x1="144.2" y1="22.2" x2="123" y2="28.7"/>
	<line class="st12" x1="144.2" y1="32.7" x2="120.6" y2="39.2"/>
	<line class="st12" x1="144.2" y1="43.1" x2="113" y2="51"/>
	<line class="st12" x1="139.7" y1="18.4" x2="139.7" y2="12.6"/>
	<line class="st12" x1="135.3" y1="19.6" x2="135.3" y2="14.1"/>
	<line class="st12" x1="131.3" y1="21.3" x2="131.3" y2="15.4"/>
	<line class="st12" x1="144" y1="14.9" x2="127.8" y2="20.6"/>
	<line class="st12" x1="122.8" y1="96.7" x2="122.8" y2="50.7"/>
	<line class="st12" x1="113.5" y1="97.3" x2="113.5" y2="53.5"/>
	<line class="st12" x1="133.5" y1="95.5" x2="133.5" y2="48.6"/>
	<line class="st12" x1="144.5" y1="58" x2="75" y2="71.9"/>
	<line class="st12" x1="144.5" y1="70.2" x2="75.2" y2="81.5"/>
	<line class="st12" x1="144.5" y1="82.7" x2="74.8" y2="91.5"/>
	<line class="st12" x1="96.5" y1="149.5" x2="96.5" y2="57.1"/>
	<line class="st12" x1="88.9" y1="148.7" x2="88.9" y2="58.7"/>
	<line class="st12" x1="81.9" y1="147" x2="81.9" y2="61.2"/>
	<line class="st12" x1="104.7" y1="109.5" x2="75.2" y2="111.1"/>
	<line class="st12" x1="105.1" y1="119.8" x2="74.5" y2="120"/>
	<line class="st12" x1="104.7" y1="130.6" x2="75" y2="128.6"/>
	<line class="st12" x1="105.1" y1="140.9" x2="75.2" y2="136.7"/>
	<line class="st12" x1="127.7" y1="30.7" x2="127.7" y2="22.8"/>
	<line class="st12" x1="138.9" y1="27.7" x2="138.9" y2="19.4"/>
	<line class="st12" x1="133.2" y1="29.2" x2="133.2" y2="21.3"/>
	<line class="st12" x1="137.8" y1="37.3" x2="137.8" y2="29"/>
	<line class="st12" x1="132.1" y1="38.9" x2="132.1" y2="31"/>
	<line class="st12" x1="126.5" y1="40.4" x2="126.5" y2="32.5"/>
	<line class="st12" x1="135.1" y1="47.8" x2="135.1" y2="39"/>
	<line class="st12" x1="127.4" y1="49.9" x2="127.4" y2="41"/>
	<line class="st12" x1="120" y1="51.7" x2="120" y2="42.9"/>
	<line class="st12" x1="144.2" y1="22.2" x2="123" y2="28.7"/>
	<line class="st12" x1="144.2" y1="32.7" x2="120.6" y2="39.2"/>
	<line class="st12" x1="144.2" y1="43.1" x2="113" y2="51"/>
	<line class="st12" x1="139.7" y1="18.4" x2="139.7" y2="12.6"/>
	<line class="st12" x1="135.3" y1="19.6" x2="135.3" y2="14.1"/>
	<line class="st12" x1="131.3" y1="21.3" x2="131.3" y2="15.4"/>
	<line class="st12" x1="144" y1="14.9" x2="127.8" y2="20.6"/>
	<rect x="103.4" y="54.8" class="st7" width="3" height="96.7"/>
	<rect x="181.9" y="54.8" class="st7" width="3" height="96.7"/>
	<polygon class="st7" points="213.3,103.1 144.3,96.6 75.4,103.1 75.1,100.1 144.3,93.6 213.6,100.2 	"/>
	<rect x="142.8" y="45.3" class="st7" width="3" height="50.3"/>
	<rect x="104.6" y="98.1" class="st7" width="78.5" height="3"/>
	<path class="st7" d="M184,152.4h-79.3L73,146.7l0.5-85.2l70.9-17.7l0.4,0.1l70.5,17.8l0.2,84.9L184,152.4z M105,149.4h78.7
		l28.8-5.3l-0.2-80l-67.9-17.2l-67.9,17l-0.5,80.3L105,149.4z"/>
	<polygon class="st7" points="177.3,53 175.3,53 175.3,45.3 144.3,37 113.8,45.2 113.8,52.8 111.8,52.8 111.8,43.7 144.3,34.9 
		177.3,43.7 	"/>
	<polygon class="st7" points="121.7,42.3 119.7,42.3 119.7,33 144.3,25.6 169.3,33 169.3,42.1 167.3,42.1 167.3,34.5 144.3,27.7 
		121.7,34.5 	"/>
	<polygon class="st7" points="166.7,33 164.7,33 164.7,24.7 144.3,18.1 124,24.8 124,32.9 122,32.9 122,23.3 144.3,16 166.7,23.2 	
		"/>
	<rect x="143.3" y="10.6" class="st7" width="2" height="34.6"/>
	<polygon class="st7" points="161.7,22.5 159.7,22.5 159.7,17.5 144.3,11.6 128.6,17.5 128.6,22.5 126.6,22.5 126.6,16.1 144.3,9.5 
		161.7,16.1 	"/>
	<line class="st13" x1="119.8" y1="151.1" x2="119.8" y2="99.7"/>
	<line class="st13" x1="169.2" y1="151.1" x2="169.2" y2="99.7"/>
	<line class="st13" x1="144.4" y1="116.6" x2="144.4" y2="99.5"/>
	<line class="st13" x1="105.8" y1="116.5" x2="182.6" y2="116.5"/>
	<line class="st13" x1="106" y1="137.7" x2="121.3" y2="137.7"/>
	<line class="st13" x1="167.7" y1="137.7" x2="183" y2="137.7"/>
	<line class="st13" x1="137.1" y1="127.3" x2="137.1" y2="121.4"/>
	<line class="st13" x1="151.7" y1="127.3" x2="151.7" y2="121.4"/>
	<rect x="123.9" y="138.5" class="st7" width="42.3" height="1.5"/>
</g>
</svg>
