<?xml version="1.0" encoding="utf-8"?>
<!-- Generator: Adobe Illustrator 22.1.0, SVG Export Plug-In . SVG Version: 6.00 Build 0)  -->
<svg version="1.1" id="Layer_7" xmlns="http://www.w3.org/2000/svg" xmlns:xlink="http://www.w3.org/1999/xlink" x="0px" y="0px"
	 viewBox="0 0 1000 1000" style="enable-background:new 0 0 1000 1000;" xml:space="preserve">
<title>YArtboard 1</title>
<path d="M453.3,44.8c-1-0.6-2-1.1-3.1-1.7c-26.4-13.5-61-11.7-87,1.8c-37.7,19.6-64.2,58.9-84,94c-24.6,43.4-39.2,91.2-49.3,139.4
	c-5.1,24.2-9,48.7-12.3,73.2c-3.2,23.6-5.8,45.5,2.8,68.5c3.4,9.3,8.6,18,15.1,25.4c35.5,39.7,105,40.9,146.8,10.2
	c31.8-23.3,51.3-59.4,64.1-94.9c13.2-36.8-12.7-36.2-46-40.3c-5.3-0.6-8.8,1.5-10.7,4.7c-2.8,1.4-5,3.7-6.2,6.6
	c-5.6,13.6-13.1,26.4-22.2,37.9c-6.7,8.5-19.8,26.8-32.1,26c-17.9-1.1-30-17.2-33.6-33c-4.5-19.7,1.8-39.8,6.9-58.8
	c5.4-20.2,11.8-40.2,19.3-59.8c10.9-28.8,21.6-58.8,35.4-86.9c5.4-11,11.5-21.3,25.9-21.3c33.8,0,26.4,37.1,26.3,58.3
	c0,10.4-6.7,31.8,11.2,31.8h37.2c21.6,0,22.4-25.6,24.8-39.8c3-17.4,6.1-34.9,7.3-52.5C492,100.1,486.3,63.5,453.3,44.8z
	 M462.9,130.1c-6.1,5.3-10.3-6.1-10.8-10.5c-0.9-6.3,0-12.7-0.6-19c-0.8-9.3-5.6-17.6-14.5-21.2c-3-1.2-6.6-1.1-9.1-3.2
	c-4-3.3-3.8-8.4,0.1-11.7c8-6.9,19.1,2,24.9,7.7c1.3,1.3,2.6,2.7,3.8,4.2c4.4,5.6,7.6,12,9.3,18.9
	C468.2,104.6,471,123.2,462.9,130.1L462.9,130.1z"/>
<path d="M761,90.2c-6.8-13.6-18.4-24.5-37.2-31c-41.2-14.1-88.4-6.8-120.3,21.8c-27.9,25-43.4,60.6-52,95.5c-2.7,10.9-4.7,21.9-6,33
	c-1.9,15.4-4.5,31.9,0.1,47c5.4,18,20.6,23.3,36.2,31.9c16.1,8.8,29.6,21.5,42.7,33.8c10.8,10.2,25,23,24.8,38.7
	c-0.3,18.1-12.8,46.9-28.1,58.4c-5.2,3.9-12.5,4.2-19.1,3c-8.3-1.6-16.1-5.5-22.3-11.3c-1.9-1.6-3.4-3.7-4.3-6.1
	c-0.8-2.6-0.2-5.5,0.4-8.1c3.7-15.9,9.3-31.1,14.5-46.5c3.6-10.5,7.3-24-6.2-29.6c-13.7-5.7-31.8-8.9-46.7-8.6
	c-21.3,0.4-24.5,39.2-27.8,53.2c-6.2,25.9-10.9,55.4,1.8,80.2c5,9.9,13.1,17.4,22.2,23.7c25.4,23.7,66.8,31.4,105,23.7
	c22.2-4.4,37.5-18.1,52.8-33.2c3.8-3.5,7.3-7.3,10.3-11.4c2.1-3.1,3.9-6.4,5.5-9.8c14.4-28.6,34.7-65.1,25.5-97.6
	c-3.8-13.7-13.3-25.4-24-35.3c-14.3-13.3-30-25.7-45.3-38c-22.3-17.8-38.3-35.1-39.5-63.5c-0.7-15.9,2-32.9,12.9-45.6
	c13.6-15.8,50.7-25.1,55.3,2.6c3,17.8-6.9,37.3-14.3,53.2c-12.8,27.6,51.7,18.6,65,18.6c0.7-0.1,1.4-0.2,2.1-0.4
	c5.2,0.1,9.9-2.6,10.8-9.1C761.6,185.4,779.8,127.8,761,90.2z M749.7,128c-0.1,5.4,0.1,11.6-2.9,16.4c-0.8,1.4-2.3,2.3-3.9,2.4
	c-2.4-0.1-4.8-2.4-5.7-4.4c-1.9-4-1.7-8.4-1.9-12.6c-0.2-6.4-1.4-12.8-3.4-18.9c-2-5.6-5.7-12-11.8-13.6c-2-0.5-4.2-0.4-6.1-1.1
	c-7.2-2.3-2.3-9,2.7-10.2c4.4-0.9,9.1-0.5,13.3,1.1c6.2,2.3,11.4,6.6,14.9,12.3C749.9,107.7,749.8,118.6,749.7,128z"/>
<path d="M460.4,873.1c-2.3-5.8-6.7-9.5-13.9-9.5h-56.7c2.6-42.5,16.4-84.1,24.2-125.9c7.3-38.9,14.5-77.8,20.6-116.9
	c3.1-19.8,5.9-39.8,8.3-59.7c1.7-14,5.6-33.5-6.6-44.2c-14.3-12.5-31.2-4-45.6,3.6c-28,15-54.7,32.2-79.9,51.4
	c-12.9,9.8-25.4,19.9-37.7,30.4c-9.8,8.3-33,24.1-29.6,39.4s10.3,28.2,20.2,40.2c15.6,19,87.9-44,88-43.8c0.3,0.7,0.7,1.4,1.1,2
	c-19.2,74.2-37.4,148.7-54.6,223.5H293c-21.6,0-44.3-6.8-65.9-8.9c-2.4-0.2-5-0.4-7.2,0.6c-8.2,3.7-10.8,14.6-11.3,22.6
	c-1.2,17-2.1,34.1-3.3,51.2c-0.6,8.7,5.9,12.8,12.6,12.7c0.4,0.1,0.9,0.2,1.3,0.3c29.9-0.1,59.8,1.8,89.8,2.6
	c21.2,0.5,42.4-1,63.6-1.3c21-0.4,41.5,5.1,62.4,5.3C458.8,948.9,466.3,887.7,460.4,873.1z M418.2,536c3.2,0.1,5.2,2,6.6,4.8
	c3.7,7.7,3.1,16.7,1.6,24.8c-1.5,7.5-1.9,18.4-8.3,23.7c-2.2,1.8-5.8,2.2-7.1-0.9c-0.5-1.3-0.7-2.6-0.5-4c0.2-5.2,1.5-10.3,2-15.5
	c0.5-5.4,0.9-10.8,1.4-16.2c0.3-3.1-4.9-0.9-6.4-0.8c-2.8,0.3-6-0.4-7.4-3.1C395.9,540.6,412.6,535.9,418.2,536z"/>
<path d="M757,660.6c17.9-46.8,6.2-122.6-51.1-135.2c-8.3-1.8-16.9-2.5-25.4-2.3c-19.5,0.4-38.2,5.3-55.7,13.2
	c-78.9,36-103.4,152.2-46.9,215.9c-39.8,36.3-69.2,86.8-64.5,140c1.8,20.8,10,40.1,26.1,53.9c17.7,15.1,46.5,21.4,69.2,22
	c53.5,1.5,112.2-34.8,119-90.9c5.3-44.2-16.5-89.5-43.6-123C714.6,728.1,742.1,699.6,757,660.6z M655.6,863.3
	c-2,11.7-8.7,22.5-22.3,30.7c-16.6,10-38.2,9.7-51.1-7.9c-24.1-32.6,34.3-73.2,49.9-89C646.6,815.7,659.4,841.3,655.6,863.3z
	 M691.4,633.8c-6.4,21-16.5,40.6-29.9,58c-5.2,6.7-10.9,12.9-17.1,18.7c-7.1-10-13.7-20.1-18.2-30.7c-11.3-26.4-3.1-68.4,19.7-86.8
	c10.1-8.2,28.5-12.1,40.6-6.5C704.9,594.9,695.9,619.6,691.4,633.8L691.4,633.8z M702.5,557.8c-0.3-0.7-0.4-1.4-0.4-2.1
	c-0.1-4.2,3.7-6.6,7.6-7c10.6-1,19.6,8.3,24.4,16.3c5.7,9.5,9.9,21,10.4,32c0.1,2.9,0.8,5.8-1.2,7.9c-3.5,3.6-8.6,0.9-10.7-2.7
	c-2.6-4.5-2.9-10.3-4.3-15.2c-2-6.7-5.6-12.9-10.5-17.9c-2.5-2.5-5.2-4.7-8.2-6.5C707.4,561.3,703.6,560.4,702.5,557.8L702.5,557.8z
	"/>
<path d="M236.4,563c-0.6-0.3-1.2-0.5-1.9-0.6c-21.2-1.8-43.6-3.6-45.5-29.8c-0.8-10.5-0.2-21.2,0.3-31.9c0.7-4.5,1.1-9,1.1-13.5
	c0-4.9-6.9-5.3-8.1-1.2c-0.5,0.7-0.8,1.4-0.8,2.3c-0.1,4.4-0.5,9.3-0.9,14.4c-6.5,33.7-33.7,59-69.6,61.9c-4.7,0.4-5.2,6.9-1.6,8.1
	c0.6,0.5,1.4,0.9,2.2,1c18.6,2.3,37.6,11.5,43.2,30.9c4.1,14.1,2.1,31.2,2.4,45.7c0,0.4,0.1,0.7,0.2,1.1c0.3,3.8,0.3,3.8,2.3,8.5
	c1.4,3.3,7.2,4.5,8,0c10.2-59.3,33-75.7,70.4-88.9C243,569.3,241.1,561.8,236.4,563z M165.6,637.5c0.3-16.6,0.4-34.4-8.8-48
	c-6.8-10.1-16.7-16.4-27.6-20.1c21.5-6.1,39.7-20.6,50.5-40.2c0.5,8.1,2,15.7,5.5,22.2c7.2,13,22,16.5,36.2,18.1
	C192,577.9,172.4,600.4,165.6,637.5z"/>
<path d="M875.8,352.6c-0.5-1.7-2.1-2.8-3.8-2.5c-37.2,2.5-38.5-41.7-37.2-67.7c0.1-1.2-0.4-2.3-1.3-3.1c-1.8-2.7-7.3-1.9-7.7,2.4
	c-3.4,31.5-23.5,60.7-57,63.9c-2.5,0.3-4.2,2.5-4,5c0.1,0.4,0.2,0.9,0.3,1.3c0.2,2,1.9,3.5,3.9,3.5c16.4,0.2,34,10.1,38.7,26.5
	c3.8,13.2,1.4,27.8,2.2,41.3c0.1,0.8,0.3,1.6,0.8,2.2c-0.1,0.5-0.2,1-0.3,1.6c-0.8,5.2,7.2,7.5,8,2.2c4.9-31.7,19.7-65.2,55-70.6
	C876.8,358.1,877.2,354.8,875.8,352.6z M818.1,398.4c-0.3-11.6-1.8-22.9-8.9-32.3c-5.7-7.5-14.2-13-23.4-16.1
	c19.4-7,33.5-22.2,41.4-41.1c2.3,20.2,9.4,40.1,27,47C836.8,364.2,825.2,380.1,818.1,398.4L818.1,398.4z"/>
</svg>
