<?xml version="1.0" encoding="utf-8"?>
<!-- Generator: Adobe Illustrator 24.3.0, SVG Export Plug-In . SVG Version: 6.00 Build 0)  -->
<svg version="1.1" xmlns="http://www.w3.org/2000/svg" xmlns:xlink="http://www.w3.org/1999/xlink" x="0px" y="0px"
	 viewBox="0 0 1000 1000" style="enable-background:new 0 0 1000 1000;" xml:space="preserve">
<style type="text/css">
	.st0{display:none;}
	.st1{display:inline;}
</style>
<g id="original" class="st0">
	<g class="st1">
		<g>
			<path d="M477.2,154.3c-22-17.6-46.8-30.8-74.2-37.6c-27.1-6.7-54.8-7.3-82.2-2.4c-49.8,9-94.1,41.2-121.7,83.1
				c-31.5,47.9-38.1,111.4-19.3,165.4c16.7,48,51.4,89.7,96.5,113.4c57.7,30.3,127.2,30.1,185.4,1.4c11.8-5.8,15.9-23.4,9-34.2
				c-7.8-12-21.6-15.2-34.2-9c-1.5,0.7-3,1.5-4.5,2.2c-0.5,0.2-5.2,2.9-1.6,0.8c3.5-2-1,0.4-1.7,0.7c-1.6,0.6-3.1,1.2-4.7,1.8
				c-5.8,2.1-11.7,3.8-17.7,5.3c-1.4,0.4-16.4,3.6-16.5,3.2c1.1-0.1,2.2-0.3,3.3-0.4c-1.1,0.1-2.2,0.3-3.3,0.4
				c-1.1,0.1-2.2,0.2-3.3,0.3c-3.3,0.3-6.7,0.5-10,0.6c-5.9,0.2-11.7,0.1-17.6-0.2c-3.1-0.2-6.1-0.5-9.2-0.8c-4-0.4,1.7,0,1.7,0.3
				c0,0.1-6.1-1-6.6-1.1c-11.6-2.1-22.8-5.5-33.8-9.7c-5.5-2.1,5,2.4,0.1,0c-0.9-0.4-1.8-0.8-2.7-1.2c-2.3-1.1-4.5-2.2-6.7-3.3
				c-5.1-2.7-10-5.6-14.8-8.7c-2.3-1.5-4.5-3.1-6.8-4.7c-0.6-0.4-1.6-1.4-2.4-1.8c0.9,0.7,1.8,1.4,2.7,2.1c-0.8-0.6-1.6-1.2-2.3-1.9
				c-4.3-3.5-8.4-7.1-12.3-10.9c-3.6-3.5-7-7.1-10.3-10.9c-1.8-2.1-3.5-4.2-5.3-6.3c-2.2-2.7,3.8,5.1,0.7,0.9
				c-1-1.4-2.1-2.8-3.1-4.2c-6.2-8.8-11.6-18.1-16.1-27.8c-0.5-1.1-1-2.3-1.5-3.4c-1.4-3.2,2.4,6,0.5,1.1c-0.9-2.3-1.8-4.7-2.6-7
				c-2-5.8-3.7-11.8-5.1-17.8c-0.7-3.2-1.4-6.4-1.9-9.7c-0.2-1.4-0.8-3-0.7-4.4c-0.2,6.6,0.2,1.3,0-0.5c-0.7-6.5-1-13.1-0.9-19.7
				c0.1-6,0.5-11.9,1.2-17.9c0.6-6.2-1.1,5.7,0.1-0.5c0.2-1.2,0.4-2.4,0.6-3.5c0.6-3.5,1.4-7,2.3-10.5c1.5-5.9,3.3-11.8,5.5-17.5
				c0.4-1.1,1.1-2.3,1.3-3.4c-1.3,6.2-1.2,2.7-0.2,0.6c1.2-2.7,2.5-5.3,3.9-7.9c2.3-4.4,4.7-8.6,7.4-12.7c1.3-2.1,2.7-4.1,4.1-6.1
				c0.9-1.2,1.7-2.4,2.6-3.6c2.8-3.8-3.5,4.3-0.3,0.4c6.8-8.1,14-15.8,22.1-22.6c0.9-0.8,1.9-1.6,2.8-2.4c1.9-1.5,5-2.4-0.4,0.3
				c2.1-1,4-3,6-4.3c4.5-3.1,9.1-5.9,13.8-8.5c4.2-2.3,9.3-3.8,13.2-6.5c-5.1,3.5-2.8,1.2-0.5,0.3c1.1-0.5,2.3-0.9,3.4-1.3
				c2.8-1,5.6-2,8.4-2.8c6-1.8,12-3.3,18.2-4.3c1.3-0.2,2.6-0.4,3.9-0.6c5.1-0.8-6.1,0.7,0.4,0c3.1-0.3,6.3-0.6,9.4-0.7
				c6.3-0.3,12.6-0.2,18.9,0.2c1.3,0.1,2.6,0.2,3.9,0.3c0.9,0.1,7.5,1.1,3,0.3c-4.5-0.9,0.7,0.1,1.4,0.2c1.8,0.3,3.6,0.6,5.4,1
				c6.2,1.2,12.3,2.7,18.4,4.6c3,0.9,6,2,9,3.1c1.2,0.5,2.5,1,3.7,1.4c4.7,1.8-5.2-2.3,0.6,0.3c5.7,2.6,11.3,5.6,16.7,8.8
				c2.7,1.6,5.4,3.3,7.9,5.1c1.1,0.7,2.2,1.5,3.2,2.3c0.9,0.6,1.7,1.2,2.5,1.9c-3-2.3-3.4-2.6-1.3-1c5.4,4.3,10.5,7.3,17.7,7.3
				c6.1,0,13.5-2.7,17.7-7.3C485.5,180.6,488.1,163,477.2,154.3L477.2,154.3z"/>
		</g>
	</g>
	<g class="st1">
		<g>
			<path d="M774.4,156.9c-28.5-22.1-60.3-38.2-96-44.4c-35.2-6.1-72.8-6.3-106.9,5.7c-34.4,12.1-64.3,35.4-75.3,71.3
				c-4.9,15.9-5.3,34.5,0.1,50.3c6.3,18.7,18.5,33.2,34.7,44.2c28.6,19.4,66.1,22.8,99.7,23.6c18.4,0.4,36.8,0.1,55.1,2.1
				c0.9,0.1,1.8,0.2,2.7,0.3c3.5,0.3-4.8-0.8-1.3-0.2c2,0.3,4.1,0.6,6.1,1c4.6,0.8,9.2,1.9,13.7,3.2c2,0.6,3.9,1.2,5.9,1.8
				c1.1,0.4,2.2,0.8,3.3,1.2c0.9,0.3,4.3,1.8,0.7,0.2c-3.7-1.6,1.6,0.8,2.6,1.3c1.8,0.9,3.6,1.8,5.4,2.8c3.3,1.8,6.4,3.9,9.5,6.1
				c4.9,3.5-3-2.6,0.2,0.2c1.7,1.4,3.3,2.9,5,4.4c2.5,2.3,4.8,4.8,7,7.3c0.6,0.7,1.2,1.5,1.8,2.2c1.8,2-1.8-2.4-1.7-2.3
				c1.1,1.8,2.5,3.4,3.7,5.2c1.9,2.9,3.7,6,5.2,9.1c0.5,0.9,2.8,6.2,1,2c-1.8-4.1,0.7,2.2,1.1,3.4c1,3,1.8,6.1,2.4,9.2
				c0.1,0.3,0.5,2.6,0.5,2.7c-0.1,0-0.6-5.8-0.4-3.3c0.2,2.2,0.4,4.3,0.5,6.5c0.1,3.4-0.1,6.8-0.4,10.2c-0.3,4.2,0.2-2,0.3-2.3
				c-0.3,0.7-0.4,2.2-0.5,2.9c-0.4,1.9-0.8,3.8-1.3,5.7c-0.5,1.9-1.1,3.8-1.7,5.6c-0.3,1-2.6,6.5-0.8,2.6c1.7-3.8-0.7,1.4-1.2,2.5
				c-0.9,1.8-1.8,3.6-2.8,5.3c-1.9,3.3-4.1,6.4-6.2,9.6c-1.8,2.7,3.2-3.9,1.1-1.4c-0.5,0.6-1,1.2-1.5,1.8c-1.5,1.8-3.1,3.5-4.7,5.2
				c-2.5,2.7-5.2,5.2-8,7.6c-0.8,0.7-1.6,1.4-2.5,2c-2.5,2.2,4-2.9,1.2-1c-1.7,1.2-3.4,2.5-5.2,3.6c-3.3,2.2-6.7,4.2-10.2,6.1
				c-1.6,0.9-3.3,1.7-5,2.5c-1.7,0.8-8.9,3.2-2.1,1.1c-7.9,2.4-15.4,5.6-23.5,7.5c-3.8,0.9-7.6,1.6-11.4,2.3c0.3,0-3.3,0.5-3.3,0.5
				c0-0.2,6.5-0.7,1.7-0.3c-2.2,0.2-4.5,0.4-6.7,0.6c-8.4,0.6-16.8,0.6-25.2-0.1c-2.2-0.2-4.4-0.4-6.6-0.6c-1.6-0.2-4.4-1.1,1.8,0.3
				c-0.8-0.2-1.6-0.2-2.4-0.4c-4.3-0.7-8.6-1.5-12.8-2.5c-7.9-1.9-15.6-4.3-23.1-7.2c-5.8-2.3,3.4,1.6-0.7-0.2
				c-1.9-0.9-3.9-1.8-5.8-2.7c-3.8-1.8-7.5-3.8-11.1-6c-3.1-1.8-6.2-3.8-9.2-5.9c-1.5-1-3-2.1-4.4-3.1c-0.8-0.6-3.7-2.5-0.5-0.4
				c3.4,2.2-0.3-0.3-1.1-0.9c-5.8-4.8-11.2-10.1-16.2-15.8c-8.6-9.9-26.6-9.5-35.4,0c-9.7,10.5-9.2,24.8,0,35.4
				c47.3,54.2,130.1,73.5,197.8,52c34.9-11.1,67.2-33.1,85.1-65.8c17.8-32.5,19.1-70.4,2-103.4c-16.3-31.6-48-53.9-82.1-62.3
				c-36.3-9-73.6-4.8-110.5-8.3c-2.1-0.2-4.2-0.4-6.3-0.7c-4.5-0.5,5.9,0.9-0.4-0.1c-4.1-0.6-8.2-1.4-12.3-2.3
				c-3.5-0.8-7-1.7-10.4-2.8c-1.7-0.5-3.4-1.1-5-1.7c-0.9-0.3-1.9-0.7-2.8-1c-4.9-1.7,3.9,1.8,1.2,0.5c-3.3-1.6-6.6-3.1-9.7-5
				c-1.4-0.9-2.8-1.8-4.2-2.7c-0.6-0.4-1.1-0.9-1.7-1.2c5.6,3.3,2.2,1.8,0.6,0.4c-1.2-1.1-2.4-2.2-3.6-3.4c-1-1-2.1-3-3.3-3.7
				c0.3,0.2,3.6,5.1,1.4,1.7c-0.4-0.6-0.8-1.1-1.1-1.7c-1.1-1.7-2.1-3.5-3-5.3c-0.4-0.8-0.7-1.7-1.1-2.4c0-0.1,1.8,5.3,1.3,2.9
				c-0.3-1.5-1-2.9-1.4-4.4c-0.5-1.7-0.8-3.4-1.1-5.1c-0.2-0.9-0.5-3.4,0.1,0.7c0.6,4.6,0.1,0.5,0.1-0.6c-0.2-3.3,0.2-6.6,0.2-9.9
				c0.1-2.8-0.4,3.9-0.5,3.4c-0.1-0.7,0.3-1.9,0.5-2.6c0.4-1.8,0.8-3.5,1.3-5.2c0.5-1.7,1.1-3.4,1.7-5.1c1.4-4-2.6,5.6-0.1,0.3
				c1.6-3.3,3.4-6.5,5.5-9.6c0.4-0.6,0.8-1.1,1.2-1.7c2.3-3.3-1,1.5-1.4,1.7c1.2-0.9,2.2-2.6,3.2-3.7c2.6-2.8,5.5-5.4,8.5-7.9
				c2.4-2.1-4.2,3-1.5,1.2c0.6-0.4,1.2-0.9,1.8-1.3c1.6-1.1,3.3-2.2,5-3.3c3.5-2.1,7-4,10.7-5.8c0.7-0.3,1.4-0.6,2.1-1
				c2.9-1.4-4.8,1.9-1.7,0.7c1.7-0.6,3.4-1.3,5.1-1.9c3.9-1.4,8-2.6,12-3.7c3.6-0.9,7.2-1.7,10.9-2.4c2.1-0.4,4.2-0.7,6.3-1.1
				c0.8-0.1,3.6-0.6-0.1,0c-4.2,0.6,0.6,0,1.5-0.1c8.1-0.8,16.2-1.1,24.4-1c4.1,0.1,8.1,0.3,12.1,0.6c1.9,0.2,3.9,0.3,5.8,0.5
				c1.1,0.1,2.2,0.3,3.3,0.4c4.7,0.5-4.1-0.6-0.9-0.1c8,1.3,15.9,2.8,23.7,4.9c3.8,1,7.6,2.2,11.3,3.4c1.7,0.6,3.4,1.2,5.2,1.8
				c1.7,0.6,8.8,4,2,0.7c7.1,3.5,14.2,6.7,21,10.7c3.2,1.9,6.4,3.9,9.5,6c1.8,1.2,3.6,2.5,5.4,3.8c1.3,0.9,7.2,5.4,1.6,1.1
				c5.5,4.3,10.4,7.3,17.7,7.3c6.1,0,13.5-2.7,17.7-7.3C782.6,183.4,785.4,165.5,774.4,156.9L774.4,156.9z"/>
		</g>
	</g>
	<g class="st1">
		<g>
			<g>
				<path d="M241.9,620.7c45.5-12.9,89.7-29.9,132.3-50.3c11.8-5.7,15.9-23.5,9-34.2c-7.8-12.1-21.6-15-34.2-9
					c-9.9,4.7-19.8,9.3-29.9,13.6c-0.9,0.4-1.7,0.7-2.6,1.1c0.8-0.4,1.7-0.7,2.5-1.1c-1,0.6-2.4,1-3.5,1.4c-2.6,1.1-5.2,2.1-7.8,3.2
					c-5.2,2.1-10.5,4.1-15.8,6.1c-20.8,7.8-41.9,14.8-63.3,20.8c-12.6,3.6-21.6,17.8-17.5,30.8C215.3,616.1,228.4,624.6,241.9,620.7
					L241.9,620.7z"/>
			</g>
		</g>
		<g>
			<g>
				<path d="M337.2,549c0.8,79.2,1.7,158.3,2.5,237.5c0.2,22.6,0.5,45.2,0.7,67.9c0.1,13.1,11.4,25.6,25,25c13.4-0.6,25.1-11,25-25
					c-0.8-79.2-1.7-158.3-2.5-237.5c-0.2-22.6-0.5-45.2-0.7-67.9c-0.1-13.1-11.4-25.6-25-25C348.8,524.6,337,535,337.2,549
					L337.2,549z"/>
			</g>
		</g>
		<g>
			<g>
				<path d="M222,887.3c70.6,0.1,141.2,0.2,211.7,0.2c20,0,40,0,59.9,0.1c13.1,0,25.6-11.5,25-25c-0.6-13.6-11-25-25-25
					c-70.6-0.1-141.2-0.2-211.7-0.2c-20,0-40,0-59.9-0.1c-13.1,0-25.6,11.5-25,25C197.6,875.9,208,887.3,222,887.3L222,887.3z"/>
			</g>
		</g>
	</g>
	<g class="st1">
		<g>
			<g>
				<path d="M507,579.3c75.8,0,151.6,0,227.4,0c21.5,0,43,0,64.6,0c13.1,0,25.6-11.5,25-25c-0.6-13.5-11-25-25-25
					c-75.8,0-151.6,0-227.4,0c-21.5,0-43,0-64.6,0c-13.1,0-25.6,11.5-25,25C482.6,567.9,493,579.3,507,579.3L507,579.3z"/>
			</g>
		</g>
		<g>
			<g>
				<path d="M773.9,540.2C716.4,623.4,659,706.6,601.6,789.9c-16.2,23.5-32.5,47.1-48.7,70.6c-7.4,10.8-2.4,28.2,9,34.2
					c12.7,6.7,26.3,2.6,34.2-9c57.4-83.2,114.9-166.5,172.3-249.7c16.2-23.5,32.5-47.1,48.7-70.6c7.4-10.8,2.4-28.2-9-34.2
					C795.3,524.5,781.8,528.7,773.9,540.2L773.9,540.2z"/>
			</g>
		</g>
		<g>
			<g>
				<path d="M599.5,731.9c0.1-0.6,0.4-1.1,0.5-1.7c0.6-2.8-2.8,5-1.1,2.7c0.6-0.8,3.1-4.5,0.4-1c-2.7,3.5,0.6-0.3,1.4-1.2
					c0.6-0.6,2.6-2-0.5,0.3c-3.3,2.5-0.6,0.5,0.2,0c1.3-0.9,2.7-1.7,4.2-2.5c0.6-0.3,1.3-0.6,1.9-0.9c2.3-1.2-2.8,1.1-2.7,1.1
					c3.6-0.7,7.1-2.4,10.7-3.1c0.7-0.1,1.5-0.2,2.2-0.4c0.1,0-5.6,0.5-2.9,0.4c1.8-0.1,3.5-0.3,5.2-0.3c1.9,0,3.7,0,5.6,0.1
					c0.9,0,1.9,0.1,2.8,0.2c0.9,0.1,1.9,0.2,2.8,0.3c-1-0.1-2-0.3-3-0.4c3.3,1.5,8.3,1.5,11.8,2.3c4.2,1,8.3,2.2,12.5,3.5
					c33.1,10.4,69,25.9,103.7,12.1c21.6-8.6,38.3-24.1,40.2-48.3c1-13.1-12.2-25.6-25-25c-14.4,0.6-23.9,11-25,25
					c0-0.1,1.5-5.5,0.5-3.7c-0.2,0.4-0.4,1.3-0.4,1.7c-0.8,4.1,1-3.1,1.2-2.6c0.1,0.3-0.9,1.3-0.9,1.6c0,0.5-0.9,1.1-1,1.6
					c0.1-0.2,3.6-3.8,1.9-2.6c-0.7,0.5-5.5,4.8-1.9,2.1c3.4-2.6-0.6,0.3-1.5,0.8c-1.5,0.9-3,1.6-4.5,2.4c-3.9,2,4.7-1.5,0.4-0.3
					c-2,0.6-3.9,1.2-5.9,1.7c-1.5,0.3-3.1,0.4-4.5,0.9c0,0,5.5-0.4,2.8-0.4c-1.2,0-2.4,0.2-3.6,0.2c-4.4,0.2-8.6-0.2-13-0.5
					c-2.9-0.2,2,0.2,2.1,0.3c-0.3-0.3-2.3-0.4-2.7-0.5c-2.1-0.4-4.3-0.8-6.4-1.3c-4.2-1-8.4-2.1-12.5-3.4
					c-32.9-10-66.6-25.1-101.4-13.9c-19.2,6.1-37.3,19.1-42.6,39.5c-3.3,12.6,4.2,27.7,17.5,30.8C581.8,752.4,596,745.5,599.5,731.9
					L599.5,731.9z"/>
			</g>
		</g>
	</g>
</g>
<g id="outlined" class="st0">
	<path class="st1" d="M431.1,436.9c7.8-5.4,31.1-10,39.6,6.5c7,10.8,2.8,28.4-9,34.2C163.3,602.3,36.9,137.5,361.7,110.5
		c39.5,0,79.9,13.3,115.6,43.8c25.2,32-19.9,53.9-34,36.3c-67.8-50.3-149.3-33.8-195.1,23.8c-49.9,68.4-31.7,155.4,30.8,204.2
		c-0.4-0.3-0.8-0.6-1.2-0.9c0.9,0.7,1.8,1.4,2.7,2.1c-0.5-0.4-1-0.8-1.4-1.2C323.3,452.1,379.2,458.6,431.1,436.9"/>
	<path class="st1" d="M278.9,418.7c0.5,0.4,1,0.8,1.4,1.2c-0.9-0.7-1.8-1.4-2.7-2.1C278.1,418.2,278.5,418.5,278.9,418.7z"/>
	<path class="st1" d="M392.2,448c0.3,0,0.7-0.1,1-0.1c-1.8,0.3-2.6,0.4-2.9,0.5C390.5,448.3,391.2,448.2,392.2,448z"/>
	<path class="st1" d="M430.3,437.4c0.2-0.2,0.4-0.3,0.7-0.5c0,0,0,0,0,0C431.8,436.5,432.1,436.4,430.3,437.4z"/>
	<path class="st1" d="M635.8,453.8c-27.8-3.5-53.4-15.5-70.2-28.4c-9.7-8.2-31.5-38.1-52.6-16.7c-34,73.4,147.8,114.5,197.8,87.4
		c123.6-32.8,135.2-199.6,5.1-231.6c-59.5-16.2-143.2,9.5-171.5-37.9c-0.6-1.9-1.4-5.5-1.9-7.7c-0.2-13.7,1.4-18.7,9.7-31
		c45-47.4,139.7-33.3,187.3,4.7c22.5,22.5,58.3-13.9,34.9-35.8C697.7,92.7,538,80.3,496.1,189.4c-11.7,35.2,3.6,74.9,34.8,94.5
		c76.3,51.6,226.3-15.6,229.6,97.8c-10.5,57.7-71.1,76-119.8,72.4 M670.9,453.9c0,0,0.8-0.2,1.7-0.3
		C671.7,453.8,670.9,453.9,670.9,453.9z"/>
	<g class="st1">
		<path d="M493.7,887.7c-90.6-0.1-181.1-0.2-271.7-0.3c-14,0-24.4-11.4-25-25c-0.6-13.5,11.9-25,25-25c39.4,0.1,78.8,0.1,118.3,0.1
			c-0.9-83.5-1.8-167-2.7-250.5c-31.2,13.2-63.1,24.5-95.7,33.8c-13.5,3.8-26.6-4.7-30.8-17.5c-4.2-12.9,4.9-27.2,17.5-30.8
			c30.7-8.7,61-19.2,90.4-31.6c-0.8,0.3-1.7,0.7-2.5,1.1c14.2-5.1,27.5-14.4,42.2-17.6c14.7-3.1,28.4,10.3,28.5,24.6
			c1,96.2,2,192.4,3.1,288.5c34.5,0,68.9,0.1,103.4,0.1c14,0,24.4,11.4,25,25C519.3,876.1,506.7,887.7,493.7,887.7z"/>
	</g>
	<g class="st1">
		<path d="M809,577.1c-27.9,40.5-55.9,81-83.8,121.4c7.2-0.1,15.6-1.5,20.6-7.1c23.7-59.6,92.3,16.2,9.3,51.9
			c-20.3,8.1-41,6.1-61.4,1c-32.5,47.2-65.1,94.3-97.6,141.5c-8,11.5-21.5,15.7-34.2,9c-11.3-6-16.4-23.4-9-34.2
			c30.3-43.9,60.5-87.8,90.8-131.6c-14.2-3.5-32.1-7.2-44.2,3c-8.5,31.2-57,17.8-48.2-13.3c16.4-50.6,81.1-49.1,122-32.6
			c24.6-35.6,49.1-71.1,73.6-106.7H507c-14,0-24.4-11.4-25-25c-0.6-13.5,11.9-25,25-25h280.6C816.4,518.7,840.2,563.6,809,577.1z"/>
	</g>
</g>
<g id="v1">
	<g>
		<path d="M431.8,437.9c2.9-2,9-2.4,14.7-3.6c4.9-1,9.9-2.4,14.6-1.1c4.6,1.3,7.5,4.8,10.1,9.9c2.4,3.7,3.7,7.7,3.4,12.5
			c-0.3,4.5-1.8,8.6-4,12.6c-2.3,4.2-4.4,8.6-8.4,10.6c-5.6,2.3-11.4,3.8-16.9,5.4c-5.8,1.8-11.7,2.6-17.2,4.2
			c-5.8,1.7-11.5,2.5-17.2,3.5c-5.9,1-11.7,1.9-17.4,2.7c-6,0.8-11.5,3.8-17.3,4.4c-6,0.7-11.9-0.4-17.7-0.6c-6-0.2-12.1,1-17.8,0.3
			c-5.9-0.8-11.7-2.4-17.4-3.6c-5.8-1.2-11.4-3.8-17.1-5.1c-5.9-1.3-11.9-2-17.2-4.3c-5.5-2.4-11.4-4.4-16.2-8
			c-4.8-3.6-8.2-9.1-13-12.4c-4.9-3.3-10.8-5.1-15.8-8.3c-5-3.3-9.3-7.6-13.4-11.8c-4.2-4.2-8.4-8.4-11.9-13.3
			c-3.5-4.8-6.2-10.2-9.6-15c-3.4-4.9-5.4-10.3-7.9-15.7c-2.5-5.3-5.4-10.4-7.9-15.8c-2.5-5.3-3.2-11.3-5.3-16.8
			c-2.1-5.4-7.1-9.9-8.7-15.5c-1.6-5.7-3.1-11.4-4.3-17.1c-1.2-5.7-2-11.6-2.6-17.5c-0.7-5.9-0.7-11.8-1.2-17.6
			c-0.5-5.9-0.2-11.8,0.1-17.7c0.4-5.9,2.3-11.6,3-17.5c0.7-5.9-0.2-12,1.3-17.7c1.4-5.7,3.4-11.4,5-17.2c1.6-5.8,4.6-10.9,7.2-16.2
			c2.5-5.3,4-11.3,7-16.5c3-5.2,7.6-9.3,11.2-14c3.6-4.6,7.4-9,11.9-13c4.4-3.9,9.5-7.3,14-11.1c4.4-3.8,7.8-9,12.9-12.3
			c4.9-3.1,11-4.4,16.3-7.3c5.1-2.8,9.9-6.2,15.6-8c5.5-1.7,11.4-2.6,17.1-4.6c5.4-1.9,10.8-4.4,16.4-6.6c5.3-2.1,10.6-5.4,16.5-6.6
			c5.6-1.1,12-0.1,17.9-1.5c5.7-1.4,11.2-3,17.2-3.5c5.3,0,10.6-0.2,15.8,1.5c5.1,1.7,9.9,4.6,15.1,5.5c5.1,0.9,10.5,0.8,15.9,1.1
			c5.3,0.3,11.1-0.3,16.1,1.6c4.9,1.9,9.9,4.1,14.6,6.8c4.6,2.6,8,7.3,12.5,10.1c4.4,2.7,8.4,5.9,12.3,9.4
			c3.8,3.4,6.9,7.6,10.9,11.1c3,3.8,6.7,6.1,8.1,9.5c1.8,4.5,0.8,8.7,0.2,12.4c-0.6,4.3-2.1,7.6-5.3,10.6c-3.1,3-6,7.3-10.2,8.6
			c-4.2,1.3-9.5,1.3-13.6,0.6c-4.4-0.8-6.9-5.6-9.6-9c-3.3-2.5-8.4-2.9-11.6-5.3c-3.4-2.4-6.1-5.6-9.5-7.7
			c-3.5-2.2-7.5-3.3-11.2-4.9c-3.8-1.6-7.1-4.4-11.1-5.4c-4-1-8.3-0.3-12.3-1c-4.1-0.6-8.3,0-12.3-0.6c-4-0.6-7.6-4.2-11.7-4.6
			c-4.1-0.5-8.2-0.4-12.3-0.5c-4.1-0.1-8,2.1-12,2.6c-4,0.5-8.6-1.5-12.5-0.4c-3.9,1.1-6.8,5.4-10.6,6.8c-3.8,1.4-8.4,0.9-12.1,2.4
			c-3.7,1.5-7.4,3.3-10.9,5.4c-3.4,2-6.2,5.1-9.5,7.5c-3.2,2.3-7.8,2.9-11,5.4c-4.8,3.7-7.6,9.6-12,13.8c-4.3,4.1-8.5,8.1-12.4,12.9
			c-2.5,3.5-5.3,6.7-7.6,10.1c-2.4,3.6-5.8,6.4-7.9,10.1c-2.1,3.7-2.8,8.1-4.4,12c-1.6,4-4.8,7.4-6,11.5c-1.3,4.1-0.3,8.8-1.2,12.9
			c-0.9,4.2-2.6,8.2-3.1,12.4c-0.5,4.2,0.3,8.6,0.3,12.8c-0.1,4.3,0.9,8.4,1.2,12.6c0.3,4.2,0.6,8.4,1.3,12.6
			c0.7,4.2,1.6,8.2,2.8,12.2c1.2,4,1.6,8.3,3.2,12.3c1.6,3.9,2.1,8.3,3.9,12.1c1.7,3.9,5.2,6.9,7,10.8c1.8,3.8,3.1,7.9,5.2,11.6
			c2.1,3.6,3.8,7.7,6.5,11c2.6,3.3,6.9,5.3,9.8,8.4c2.9,3,4.7,7.3,7.9,10.1c3.1,2.8,7.4,4.4,10.8,7c-0.4-0.3-0.8-0.5-1.3-0.8
			c0.9,0.7,0.9,2.6,1.8,3.3c-0.5-0.4-2.5,1.2-3,0.8c3.6,2.7,7.2,5.9,11.2,7.9c4,2,9.5,0.8,13.7,2.5c4.3,1.7,7.1,6.7,11.2,8.4
			c4.2,1.7,9.6-0.3,13.8,0.9c4.3,1.3,8,4.6,12.4,5.5c4.4,0.9,8.9,1,13.3,1.6c4.4,0.5,8.8,2.3,13.2,2.6c4.5,0.3,9-1.1,13.5-1.2
			c4.4-0.1,9.1,0.9,13.5,0.2c4.4-0.7,8.6-2.8,12.8-4.2c4.2-1.4,8.1-3.7,12.2-5.5c4.1-1.7,8.5-2.6,12.7-4.4"/>
	</g>
	<g>
		<path d="M278.9,418.8c0.5,0.4,1,0.8,1.5,1.2c-0.9-0.7-1.8-1.4-2.7-2.1C278.1,418.1,278.5,418.5,278.9,418.8z"/>
	</g>
	<g>
		<path d="M392.2,448c0.3,0,0.7-0.1,1-0.1c-1.8,0.3-2.6,0.4-2.9,0.5C390.5,448.3,391.2,448.2,392.2,448z"/>
	</g>
	<g>
		<path d="M430.3,437.4c0.2-0.2,0.4-0.4,0.7-0.5c0,0,0,0,0,0C431.9,436.5,432.1,436.4,430.3,437.4z"/>
	</g>
	<g>
		<path d="M636.1,451.8c-4.2-0.5-8.2-2.3-12.4-3c-4.2-0.6-9,1.5-13,0.6c-4.2-1-7.6-4.4-11.5-6c-4-1.6-8.4-2.3-12-4.3
			c-3.8-2.1-7.9-3.7-11.3-6c-3.7-2.5-6.2-6.2-9.4-8.7c-2.8-2.4-8-5.5-12.5-9.9c-3.7-3.7-7.3-7.6-11.8-10.2
			c-4.7-2.6-9.9-3.4-15.9-2.8c-5.2,0.5-11.1,0.7-15.7,5.4c-1.9,4-1.2,8.7-1.8,12.8c-0.6,4.3-2.3,8.5-1.7,12.6c0.6,4.4,1.2,9,3,12.7
			c1.7,3.5,6.2,5.4,9.1,8.8c2.6,3,4.6,6.7,7.8,9.4c3.1,2.6,5.3,6.7,8.7,9c3.2,2.2,7.2,3.6,10.9,5.8c3.4,2,7.4,3.2,11.2,5
			c3.6,1.8,6.8,4.7,10.6,6.2c3.7,1.5,7.6,2.9,11.5,4.2c3.8,1.2,7.9,1.9,11.8,3c3.9,1.1,7.9,1.9,11.8,2.8c3.9,0.9,8.1,1.3,12.1,1.4
			c4,0.1,8.1,0.3,12.2,0.3c4.1,0,8.2-1.2,12.2-0.8c4.1,0.4,8.1,1.5,12.1,2.5c4,1,7.7,3.7,11.5,4.5c4.2,0.9,8.5,0.6,12.4,0.4
			c4.3-0.3,8.3-1.1,12.1-2.1c4.2-1.1,7.6-3.6,11.1-5.1c4.1-1.7,8.4-2.3,11.6-4c3.9-1,7.7-2.7,11.5-3.7c4-1,8.3-0.7,12.1-2
			c3.9-1.3,7.9-2.8,11.3-4.8c3.6-2,7.4-4,10.5-6.6c3.1-2.6,4-7.7,6.8-10.6c2.9-2.9,7.9-3.7,10.7-6.5c2.8-2.9,3.2-8.2,6.1-11
			c2.9-2.9,6.9-4.6,9.5-7.7c2.6-3.2,5.6-6.1,7.5-9.6c1.9-3.6,1.4-8,2.4-12c1-3.9,3.8-7.5,4.4-11.5c0.6-4-0.4-8.3,0.4-12.2
			c1.2-5.9,4.5-11.4,5.3-17.3c0.8-5.9-0.4-12.1-1.1-18.1c-0.4-4-2.9-7.6-3.7-11.5c-0.8-3.9-0.9-7.9-2.1-11.7
			c-1.2-3.8-2-7.7-3.7-11.4c-2.5-5.4-5.4-10.7-9.5-15.1c-4-4.3-10.1-6.7-14.3-11.1c-4.1-4.2-7.3-9.5-11.5-13.8
			c-4.1-4.2-7-10.5-12.5-13.5c-3.5-1.9-8.2-1.3-12.2-2.4c-3.8-1-7.6-2.2-11.6-3c-3.8-0.8-8.1-0.2-12.1-1.1c-3.8-1-7.3-3.9-11.2-5.2
			c-3.8-1.3-8.1-1-12-2.1c-3.9-1-7.7-1.5-11.7-1.8c-4-0.3-8-1.1-12-1c-4,0-8.1-0.3-12.1-0.2c-4.1,0.1-8.1,0.7-12.2,0.6
			c-4.1-0.1-8.2,0.6-12.2,0.4c-4.1-0.3-7.9-2.5-11.9-2.9c-4.1-0.4-8-1.4-12-1.8c-6.2-0.5-12-1.4-17.5-2.7c-6-1.3-11.7-2.6-17.1-4.8
			c-3.8-1.5-8.4-1-12.1-2.7c-3.7-1.7-6.4-5.4-9.6-7.9c-3.1-2.4-7.6-4.3-9.8-8c-0.6-1.9,0.5-6.9-0.1-9.1c-0.1-7.1,1.3-11.7,3.2-16.2
			c1.7-4.1,3.5-9,7.4-14.9c3.9-4.1,8.1-8.3,12.6-11.4c4.4-3.2,11-2.8,16.1-5.2c5-2.3,8.7-8.1,14-10.4c5.2-2.2,11.4-1.3,17.1-2.1
			c5.5-0.8,11.2-3.8,16.9-3.4c5.6,0.4,11.1,4.5,16.7,4.9c5.6,0.4,11.1,0.5,16.6,1.6c5.5,1.1,11,2,16.4,3.4
			c5.5,1.4,10.6,3.7,15.8,5.6c5.3,1.9,11.3,2,16.4,4.3c5.2,2.4,9.7,5.9,14.1,8.9c4.7,3.2,9.9,5.7,14.1,9.1c3.6,3.6,6.4,6.8,10.3,7.2
			c4.3,0.4,8-2.2,12-4.3c3.9-2,7.1-4.5,10.1-7.5c4.6-4.7,6.9-9.2,7.3-14.8c0.4-5.1,0.8-11.1-4.8-16.3c-4.5-3.8-10.8-5-15.9-8.2
			c-4.9-3-9.9-5.9-15.2-8.8c-5.2-2.9-10.3-5.6-15.6-8.2c-5.2-2.6-9.9-6.6-15.5-8.6c-5.6-2-11.2-4-16.9-5.7
			c-5.6-1.7-11.7-1.9-17.5-3.1c-3.9-0.8-7.3-3.8-11.2-5c-3.9-1.2-8-1.5-11.8-2.5c-3.9-1-8-0.3-12-0.5c-4-0.2-8-1.2-12-0.8
			c-4,0.4-8,0.8-12,1.4c-4,0.6-7.8,3.1-11.7,3.6c-6,0.8-11.8,0.9-17.5,2.5c-5.8,1.7-11.4,3.4-17,5.4c-5.7,2-11.2,4.2-16.7,6.5
			c-5.5,2.3-10.3,5.5-15.3,8.9c-4.9,3.4-9.3,7-13.5,11.3c-4.1,4.3-8.9,8-12.6,12.7c-3.6,4.6-8,9.1-10.5,14.5
			c-2.4,5.1-1.9,11.8-4.1,17.5c-1.3,3.8-2.7,7.6-4,11.4c-1.3,3.9-4.5,7.2-5.3,11.1c-0.8,4,1.1,8,1.7,12.1c0.6,4-1.3,8.7-0.1,12.7
			c1.1,4,2.4,8.2,4,12c1.7,3.9,3.5,7.9,5.7,11.3c2.2,3.4,7.1,5,9.9,8.1c2.8,3,5.8,5.7,9,8.3c3.2,2.7,6,5.8,9.4,8
			c4.7,3.2,9.1,7.9,14.5,10.2c5.3,2.3,11.5,2.8,17.1,4.4c5.4,1.6,11.5,0,17.3,0.6c5.7,0.6,11.4,1.3,17.2,2
			c5.6,0.7,11.2,1.9,16.9,2.2c5.7,0.3,11.5-0.6,17.2-0.4c5.7,0.3,11.4,2.6,17.1,2.4c5.8-0.2,11.7-2.7,17.3-2.4
			c5.8,0.4,11.4,3.3,16.9,4.4c5.8,1.2,11.2,3.8,16.6,4.8c5.8,1.1,12.2-0.6,17.6,0.8c5.9,1.5,10.2,6.2,15,9c5.1,2.9,10.3,5.2,13.7,10
			c3.2,4.5,6.3,9.5,8.9,14.9c2.2,4.8,2.9,10.8,5,16.7c1.8,5.1,5.5,10.4,5.6,16.7c-0.8,4.4-4.5,7.9-6.2,11.8c-1.8,4-3.6,7.8-5.9,11.4
			c-2.4,3.7-5.5,6.8-8,10.1c-2.6,3.4-3.1,8.7-6.2,11.6c-3.1,2.9-8.1,3.5-11.6,5.9c-3.5,2.4-6.3,5.9-10.1,7.8
			c-3.8,1.9-8.1,3.1-12,5.1c-3.8,2-8.1,2.9-12.1,4.5c-4,1.6-7.8,3.4-12,4.1c-4.2,0.7-8.6,0.6-12.9,1c-4.4,0.3-8.6,0.7-12.9,0.7
			c-4.4,0-8.7,0.1-13-0.2 M673,453.9c0,0-2.7,0.3-1.8,0.2C670.3,454.3,673,453.9,673,453.9z"/>
	</g>
	<g>
		<g>
			<g>
				<path d="M493.7,884.5c-5.7,0-11.3,2.3-16.9,3.3c-5.7,0.9-11.4-0.3-17-0.3s-11.5,1.5-17.1,0.4s-11.2-2.4-16.8-2.4
					s-11.3,0.3-17,1.1c-5.7,0.8-11.3,1.8-17,1.8c-5.7,0-11.3,0.5-17,0.3c-5.7-0.1-11.3-1.2-17-1.2c-5.7,0-11.3-1.2-16.9-1.7
					c-5.7-0.5-11.4-1.3-17-1.3c-5.7,0-11.2,2.6-16.9,3.4s-11.4,1.6-17.1,1.6c-5.7,0-11.2-2.1-16.9-2.6c-5.7-0.5-11.4,0.8-17.1,0.7
					s-11.4-0.3-17.1-0.8c-5.7-0.5-11.2-0.1-16.9-0.2c-4.5,0-8.4-3.3-12.1-5c-4-1.9-6.9-4.4-9.3-7.9c-2.3-3.4-5.4-6.9-5.6-11.5
					c-0.2-4.5,2.5-8.8,4.9-12.5c2.4-3.7,4.7-8.5,8.5-10.7c3.9-2.3,9.2-2.3,13.6-2.3c4.4,0,8.7,1,13.1,1.2c4.4,0.2,8.8-0.6,13.2-0.4
					c4.4,0.2,8.7,2.4,13.1,2.4c4.4,0,8.9-0.5,13.3-0.9c4.4-0.4,8.7-1.4,13.1-1.8c4.4-0.4,8.7-0.4,13.1-0.4c4.4,0,8.8,0.8,13.4,1.2
					c4.5,0.4,9,1.1,13.5,1.5c4.6,0.4,8.3-2,12.7-2c0-4-0.3-7.2-0.2-11.3c0.1-4.1,1.4-8.2,1.5-12.3c0.1-4.2-1.5-8.3-1.6-12.3
					c-0.1-6,0.9-11.9,0.3-17.9c-0.6-6,0.1-12,0-17.9c-0.1-6-1.4-12-1.2-17.9c0.2-6-0.6-11.9-0.7-17.8c-0.1-6,0-11.9-0.2-17.9
					c-0.3-6-0.8-12-0.9-17.9c-0.1-6,1-12,1.2-17.9c0.2-6,0.7-11.9,0.6-17.9c-0.1-6,0.7-12,0.2-17.9c-0.5-6-2.1-11.9-2.1-17.8
					c-0.1-6,0.7-11.8,0.6-17.5c-0.1-5.8,0-12.6,0-18.5c-5.2,2.2-11.4,4-16.6,5.8c-5.2,1.7-10.6,3-15.8,5c-5.3,2-9.7,6.5-15,8.2
					c-5.4,1.7-11.3,1.7-16.7,3.4c-5.4,1.8-10.3,4.8-15.5,7.1c-5.2,2.3-10.1,5.9-15.5,7.4c-4.5,1.3-8.7-2.2-12.6-3.7
					c-4-1.5-8.8-1.9-11.7-5.2c-2.8-3.2-5.7-7.2-7.1-11.4c-1.4-4.2,1.8-8.4,2.7-12.3c1-4,1.9-7.6,4.8-10.5c2.8-2.8,6.1-4.9,10.3-6.1
					c5.1-1.5,10.6-2.3,15.6-4.3c5-2,9.5-4.9,14.6-6.5c5.1-1.7,10.1-3.4,15.2-5c5.1-1.6,10.3-2.9,15.3-4.8c5-1.9,9.7-4.6,14.7-6.4
					c5-1.8,10.7-2,15.6-4.1c-0.8,0.3-3.7-4.7-4.6-4.3c4.7-1.7,10.3-1.2,15.1-2.9c4.8-1.7,8.8-5.6,13.6-7.1
					c4.8-1.5,10.1-1.3,15.1-2.4c4.8-1,9.1-0.4,13.5,1.4c4.4,1.8,8.1,4.4,10.9,8.2c2.8,3.8,3.4,8,3.4,12.9c0,4,1.5,8,1.6,12
					c0.1,4,0.1,8,0.2,12c0.1,4,1.5,8,1.6,12c0,4-1.9,8-2.4,12c-0.5,4-0.9,8-1.4,12c-0.5,4,0.5,8.1,0.6,12.1c0,4-1.7,8.1-1.6,12.1
					c0.1,4,2,8,2.2,12c0.1,4-1.4,8-1.4,12.1c0,4,2.2,7.9,2.6,11.9c0.4,4-0.9,8.2-0.5,12.2c0.4,4,0.3,8,0.3,12c0,4-0.9,7.8-1.4,11.8
					c-0.5,4-0.4,8.1-0.8,12.1c-0.5,4,0.8,8.2,0.9,12.2c0,4-1.4,8.1-1.1,12.1c0.3,4,0.3,8,0.6,12c0.3,4,2.8,7.9,2.8,11.9
					c0,4-0.6,8-0.6,12c0,4,0.4,8,0.3,12c0,4-1.9,8-1.8,12c0.1,6,2.8,11.7,3.3,17.6c0.6,5.8-0.1,12-0.1,18c5.7,0,11.5-0.5,17.1-0.5
					c5.6,0,11.2,0.2,16.9,0.2c5.7,0,11.5-0.8,17.2-1.1c5.7-0.3,11.5-1.1,17.3-1.1c5.7,0,11.7,1.4,17.4,2.5
					c5.7,1.1,11.3,1.5,17.1,1.5c4.5,0,9.2,1.4,12.8,3.1c4,1.8,6.9,5.6,9.3,9c2.3,3.3,4.3,7.4,4.5,11.9c0.2,4.6-2,8.6-4.5,12
					c-2.4,3.4-5.2,7.4-9.2,9.3C502.8,885.7,497.9,884.5,493.7,884.5z"/>
			</g>
		</g>
	</g>
	<g>
		<g>
			<g>
				<path d="M808.4,576.3c-2.3,3.4-2.8,8-4.8,11.7c-2,3.6-4.1,7.2-6.1,10.8c-2,3.6-6.7,5.6-9,9c-2.3,3.4-3.2,7.9-5.9,11
					c-2.7,3.1-6.6,5.2-9.3,8.3c-2.7,3.1-3.9,7.4-6.3,10.7c-2.3,3.4-5,6.5-7.1,10c-2.1,3.6-5.2,6.5-7.3,10c-2.1,3.6-2.4,8.2-4.7,11.6
					c-2.3,3.4-4.3,7.1-6.8,10.4c-2.5,3.3-7.5,4.7-10,8c-2.5,3.3-4.1,7.5-6.4,10.8c3.6,0,7.5-0.5,10.9-1.8c3.4-1.2,5.1-4,7.6-6.8
					c2.6-6.6,7.8-9.9,11.5-12.9c5.2-4.1,10.6-4.1,15.8-4.1c5.7,0,10.6,1.2,15.2,4.9c4.2,3.4,6.6,7.6,7.9,13.8
					c0.7,3.7,1.2,7.2,0.5,11.4c-0.6,3.7-0.2,7.9-2.1,11.7c-1.7,3.4-4.4,6.3-7.3,9.5c-3.5,3.9-8,7.4-13.8,10.9
					c-4.6,2.8-10,5.2-15.9,7.8c-5,2-9.9,3.1-15,4.2c-5.2,1.1-10.2,4.1-15.4,4c-5.2-0.1-10.1-3.1-15.2-4c-5-0.9-10.4-1.4-15.5-2.7
					c-3.3,4.7-5.3,10.3-8.2,15.2c-2.8,4.9-5.2,10.2-8.4,14.9c-3.3,4.7-7.5,9.1-11.8,13.1c-4.3,4-10.6,6.2-13.9,10.9
					c-3.3,4.7-3.3,11.4-6,16.5c-2.7,5.1-7.3,9.2-10.6,13.9c-3.3,4.7-7.6,8.7-10.8,13.5c-3.2,4.8-3.7,11.3-7,16
					c-3.3,4.7-8.1,8.4-11,13.3c-3,4.9-5.2,10.3-8.5,15c-2.7,3.9-5.4,8.3-9.2,10.1c-4,1.9-9.1,0.6-13.6,0.3
					c-4.2-0.3-8.2-1.8-12.2-3.9c-3.8-2-7.9-4.3-10.3-8.3c-2.4-3.8-2.9-8.5-3.4-12.9c-0.5-4.6,0.1-8.8,2.7-12.5
					c2.5-3.7,5.6-7,8.1-10.7c2.5-3.7,3.4-8.4,5.9-12.1c2.5-3.7,6.1-6.6,8.6-10.2c2.5-3.7,4.1-8.2,7.3-11.4c3.1-3.2,7.2-5.5,10.3-8.7
					c3.2-3.2,4.6-7.7,7.1-11.4c2.5-3.7,5.6-6.9,8-10.6c2.5-3.7,5.7-6.9,8.2-10.6c2.5-3.7,5.4-7.1,7.9-10.8c2.5-3.7,4.1-8.3,6.6-12.3
					c2.5-3.9,5.3-7.7,7.8-11.6c2.6-4,7-8.1,9.5-11.8c-4.8-1.2-11.5-1.8-17.1-2.4c-5.4-0.6-10.8,0.3-16,1.1
					c-5.5,0.9-11.1,1.7-15.3,5.2c-1.3,4.7-4.1,7.7-6.8,10.5c-3.1,3.3-5.6,7.6-9.7,8.6c-4.2,1-8.5-2-12.7-3.1c-4.2-1.2-8.3-2-11.4-5
					c-3.1-2.9-4.7-6.6-5.8-11c-0.9-3.8-3.2-8.3-1.9-13c2-6,5-11.5,8.5-15.7c3.8-4.5,9.5-7,14.1-10.5c4.7-3.5,9.7-6.2,14.9-8.6
					c5.1-2.4,10.2-4.9,16.2-5.8c5.7-0.9,11.6-3.2,17.5-3.6c5.9-0.4,12,0.7,17.9,1.5c4,0.5,7.6,3.1,11.5,4.5c3.9,1.4,7.5,3.4,11.2,5
					c4,1.8,8.8,2.9,12.4,4.3c3.1-4.4,7.2-9.5,10.1-14.6c2.9-5.1,3.3-11.7,6.4-16.1c3.1-4.4,6.7-8.5,9.9-12.9
					c3.2-4.3,6.4-8.7,9.5-13.1c3.1-4.4,7.9-7.6,11.2-11.8c3.4-4.2,6.9-8.5,10-12.9c3.1-4.4,3.6-10.7,6.2-15.6
					c2.6-4.9,7-9.8,10.1-14.3c-8.3-2.6-13.7-3.7-18.2-3c-4.4,0.7-8.6,3.9-17,3.9c-8.6,0-12.9,1.1-17.2,1c-4.3-0.1-8.5-0.7-17.1-0.7
					c-8.6,0-12.7,0.7-17,1.4c-4.3,0.7-8.7,1.7-17.3,1.7c-8.6,0-12.9-1.6-17.2-2.4s-8.5-2.9-17.1-2.9c-8.6,0-12.8,1.5-17.1,1.6
					c-4.3,0.1-8.6-0.4-17.1-0.4c-8.6,0-12.8,1.4-17.1,1.7c-4.3,0.4-8.6-0.8-17.2-0.8c-8.6,0-12.7-0.6-17-1.5s-8.7-1.7-17.3-1.7
					c-4.5,0-8.4-0.8-11.9-2.4c-3.9-1.8-8.3-3.5-10.5-6.9c-2.1-3.3-3.6-7.9-3.8-12.4c-0.2-4.5,1.3-9.3,3.5-12.7
					c2.3-3.5,7-4.8,10.9-6.7c3.7-1.9,7.5-3.3,11.8-3.3c8.8,0,13.1-1.7,17.5-2.2c4.4-0.6,8.8-2.3,17.6-2.3c8.8,0,13.1,3.4,17.5,3.6
					c4.4,0.2,8.8,0.1,17.6,0.1c8.8,0,13.2,0.2,17.6,0.1c4.4-0.1,8.7-0.6,17.5-0.6c8.8,0,13.3-0.3,17.7-0.9c4.4-0.6,8.6-1.8,17.4-1.8
					c8.8,0,12.9,1.5,17.3,2.6c4.4,1.2,9,2,17.8,2c8.8,0,13.3,0.6,17.7,0.2c4.4-0.5,8.6-4.2,17.4-4.2c8.8,0,13.2,1.8,17.5,1.8
					s8.8,0.6,17.5,0.6c8.7,0,13.2-0.2,17.6,0c4.4,0.3,9,1.4,17.8,0.5c4.5-1.7,8.2-1.4,11.9-0.6c4.2,0.8,8.3,1.2,11.4,4.1
					c3,2.8,4.6,6.8,6.5,10.6c1.9,4,2.8,7.8,3,11.8c0.3,4.3,1.2,8.8-1.4,12.3C817.2,572.6,813,574.3,808.4,576.3z"/>
			</g>
		</g>
	</g>
</g>
<g id="v2" class="st0">
	<g class="st1">
		<path d="M430.3,435.7c3.1-2.1,7.8-5.4,13.5-5.4c4.7-0.1,10.2,1.2,14.7,3.5c4.1,2.1,6.3,6.8,8.8,11.7c2.3,3.5,2.8,7.1,3.1,11.1
			c0.3,4.2,2.2,8.6,0.4,12.2c-1.8,3.5-4.8,7.6-8.7,9.5c-5.6,2.3-11.4,3.9-16.9,5.5c-5.7,1.7-11.3,3.7-16.8,5.3
			c-5.8,1.6-11.4,3.2-16.9,5.2c-5.7,2.1-11.8,2.7-17.5,3.5c-6,0.8-11.8,2.5-17.6,3.1c-6.1,0.6-12.1-0.6-17.9-0.7
			c-6-0.2-12.2,1.2-18,0c-5.9-1.2-11.3-4.8-17-6c-5.8-1.2-12-1.1-17.6-2.8c-5.7-1.8-11.2-4.2-16.6-6.5c-5.5-2.3-11.3-4.1-16.5-6.7
			c-5.3-2.7-10.6-5.8-15.5-9.1c-4.9-3.3-9.5-7.3-14.2-11c-4.7-3.7-9.1-7.8-13.3-12c-4.2-4.2-7.9-9-11.4-13.7
			c-3.5-4.8-7.5-9.3-10.9-14.1c-3.4-4.8-5.1-10.8-8.4-15.8c-3.3-5-7.5-9.4-10-14.8c-2.5-5.3-6-10.4-8.4-15.9
			c-2.4-5.5-2.2-12-3.8-17.7c-1.6-5.7-4.5-11.2-5.3-17.1c-0.8-5.9-0.8-12-1.5-17.8c-0.7-5.9,0.8-11.9,0.7-17.8
			c-0.1-6-3.3-12-2.9-17.9c0.4-5.9,4.3-11.4,5.5-17.2c1.2-5.8,3-11.4,4.5-17.1c1.4-5.7-0.3-12.3,1.1-18.1c1.3-5.9,5.1-10.9,7.7-16.3
			c2.6-5.3,4.1-11.7,8.3-16.1c4.1-4.3,9.9-7.2,13.5-11.9c3.6-4.6,6.4-9.9,10.1-14.4c3.7-4.5,7.7-8.9,12.3-12.8
			c4.4-3.8,9.8-6.4,14.8-9.7c4.8-3.2,9-7.6,14.3-10.5c5-2.8,10.2-5.9,15.7-8.3c5.3-2.3,10.9-4.2,16.6-6.2c5.4-1.9,11.5-2.5,17.2-4.4
			c5.5-1.8,10.9-4.7,16.8-5.8c5.6-1.1,11.6-1.5,17.6-2.6c5.7-1.1,11.6-2.6,17.6-3.1c5.3,0,10.8,0.7,16,1.9
			c5.1,1.2,10.2,2.9,15.3,3.8c5.1,0.9,10.5,0.2,15.9,0.5c5.4,0.3,10,4.2,15,6.1c4.9,1.9,10,3.1,14.5,6.2c4.4,3,8.6,6.4,13.1,9.2
			c4.4,2.7,8.1,6.4,12.4,9.6c4.1,3.1,10.1,4.2,14.2,7.7c3.1,3.9,4.3,8.7,5.7,12.4c1.8,4.6,4,9.4,3.5,13.3c-0.6,4.6-4.6,8.3-7.8,11.3
			c-3.1,3-6.9,7-11.6,8.4c-4.5,1.3-9.9,0.8-14.4,0.3c-5-0.6-10.6-1.9-13.3-5.4c-3.3-2.4-4-7.6-7-10.2c-3.1-2.7-8-3.1-11.1-5.5
			c-3.2-2.5-6.6-4-10.3-5.6c-3.8-1.6-6.8-4.9-10.7-6.1c-3.9-1.2-7.8-2.8-11.7-3.7c-4-0.9-8.3-0.7-12.2-1.3c-4-0.6-8.2-0.3-12.3-0.8
			c-4.1-0.5-8-3.7-12.1-3.9c-4.2-0.2-8.4,1.2-12.4,1.7c-4.1,0.5-8.4,0.7-12.3,2c-3.9,1.2-6.7,5.5-10.5,7.1
			c-3.8,1.6-7.6,3.2-11.3,4.8c-3.7,1.5-8.8,0.3-12.4,2.2c-3.6,1.8-6.8,4.6-10.2,6.8c-3.4,2.2-7.4,3.7-10.6,6.2
			c-3.2,2.4-5.6,6.1-8.4,9c-2.8,2.9-6.4,5.1-9.1,8.3c-2.6,3.1-2.4,8.4-4.9,11.6c-2.5,3.5-6.3,5.9-8.7,9.4c-2.4,3.6-4.4,7.3-6.5,10.9
			c-2.1,3.7-5.5,6.9-7,10.8c-1.6,4-3.1,8-4.5,12.1c-1.4,4.1-2.4,8.3-3.4,12.4c-1.1,4.2,0.4,8.8-0.1,13c-0.5,4.2-2,8.4-2.1,12.7
			c0,4.3,1.3,8.5,1.7,12.7c0.4,4.3-1.4,8.8-0.8,13c0.7,4.2,4.1,7.7,5.6,11.7c1.5,4,1.1,8.7,3,12.6c1.8,3.8,3.9,7.6,5.6,11.4
			c1.7,3.9,3.1,7.9,5,11.7c1.9,3.8,6.5,6,8.7,9.6c2.2,3.5,2,8.8,4.7,12.1c2.6,3.3,6.4,5.8,9,9.2c2.6,3.4,6.1,6,8.9,9.1
			c2.9,3.1,5.9,5.9,9.2,8.5c-0.4-0.3-1.8,0.6-2.3,0.3c0.9,0.7,4.9-2.7,5.8-2c-0.5-0.4-1.6,0.2-2-0.2c3.6,2.7,6,7,9.7,9.3
			c3.8,2.3,7.7,4.7,11.6,6.7c4,2,9,1.7,13.1,3.3c4.1,1.7,7.4,5.8,11.5,7.2c4.2,1.5,8.7,2.4,13,3.4c4.3,1.1,8.9,1.1,13.3,1.6
			c4.4,0.5,8.9,1.1,13.3,1.1c4.4,0,8.9-0.5,13.4-0.9c4.4-0.4,8.6-2.6,13-3.2c4.4-0.7,9.1,0.2,13.6-0.3c4.5-0.5,8.9-1.3,13.3-2.2
			c4.4-0.9,8.4-2.9,12.5-4.7"/>
	</g>
	<g class="st1">
		<path d="M278.9,418.7c0.5,0.4,1,0.8,1.4,1.2c-0.9-0.7-1.8-1.4-2.7-2.1C278.1,418.1,278.5,418.5,278.9,418.7z"/>
	</g>
	<g class="st1">
		<path d="M392.2,448c0.3,0,0.7,0,1-0.1c-1.8,0.3-2.6,0.4-2.9,0.4C390.5,448.3,391.2,448.2,392.2,448z"/>
	</g>
	<g class="st1">
		<path d="M430.3,437.4c0.2-0.2,0.5-0.3,0.7-0.5c0,0,0,0,0,0C431.8,436.5,432.1,436.4,430.3,437.4z"/>
	</g>
	<g class="st1">
		<path d="M635.7,454.8c-4.3-0.5-8.7-0.1-12.8-1.4c-4.1-1.3-7.1-5.3-11.1-6.9c-4-1.7-8.7-1.7-12.6-3.2c-4-1.6-7.9-3.3-11.5-5.3
			c-3.8-2.1-6.8-5.2-10.2-7.5c-3.6-2.4-7.1-4.7-10.3-7.1c-2.9-2.4-7.5-5.8-12.6-9.4c-4.1-2.9-8.4-6.5-13-9
			c-4.8-2.7-9.7-2.4-14.4-1.6c-3.9,0.7-8,2.3-12.4,6.8c-2.8,6-5.5,11.3-5.5,16.2c0.1,5.5,5,9.7,7.7,15.2c2.5,5.1,2.2,12.2,5.8,17.3
			c3.3,4.7,8,8.9,13.3,12.5c3.2,2.2,7.5,3,11.4,4.5c3.7,1.4,8,1.1,11.9,2.4c3.8,1.2,6.4,6,10.1,7.5c5.5,2.2,11.4,3.6,17.1,5.6
			c5.6,2,11.5,3.3,17.4,4.7c3.9,0.9,8,1.3,11.9,2.3c3.9,1,8.1,0.7,12,1.6c4,0.9,7.8,1.3,11.7,1.8c4.1,0.4,7.9,2.5,11.8,2.6
			c4.1,0,8.1-0.1,12.1-0.3c4.1-0.2,8.1-1.1,12-1.3c6.5-0.4,12.5-0.4,17.8-1.9c6.4-1.8,11.1-6.3,15.7-8.8c3.9-1,8.2-1.8,12-2.8
			c4-1,8.8,1.1,12.5-0.1c3.9-1.3,7.3-3.9,10.8-5.8c5.4-3,10.8-6.1,15.1-10c4.5-4.1,8.5-8.6,12.6-12.8c2.8-2.9,5.4-5.9,8.5-8.6
			c3.1-2.7,6.5-5.1,9.3-8c2.8-3,5.3-6.6,7.2-10.1c1.9-3.6,1.1-8.4,2.5-12.2c1.4-3.8,3.8-7.2,4.9-11.1c1.1-4,2.8-7.8,3.6-11.7
			c0.8-4,1.6-8,1.7-12.1c0.1-4-0.4-8.1-0.7-12.1c-0.3-4-2.9-7.8-3.3-11.8c-0.4-4,2.2-8.4,1.6-12.4c-0.6-4-4-7.5-5-11.4
			c-1-3.9,1-8.9-0.7-12.6c-1.7-3.6-7.1-5.2-9.4-8.6c-2.2-3.3-3.4-7.4-6-10.5c-2.6-3.1-4.4-7-7.2-9.9c-2.7-2.8-6.4-4.9-9.6-7.3
			c-3.1-2.4-7.4-3.2-10.8-5.3c-3.3-2.1-6.2-5.1-9.7-7c-5.1-2.8-10.8-4.1-16.7-5.9c-5.5-1.7-11.2-2.9-17.3-4.4
			c-3.8-1-7.6-1.7-11.6-2.3c-3.9-0.7-7.6-2.6-11.6-3c-3.9-0.4-7.9-0.2-12-0.5c-4-0.3-7.9-2.4-11.9-3.2c-4-0.8-8.1-0.9-12.1-1.6
			c-4-0.7-8-1.3-12.1-1.3c-4.1-0.1-8,1.2-12,1.5c-4.1,0.3-8.1,1-12.1,1.3c-4.1,0.3-8.2-1.4-12.2-1.7c-4.1-0.4-8.2-0.5-12.1-1.1
			c-4.1-0.7-7.7-2.8-11.5-3.8c-4-1-7.9-1.7-11.6-3.2c-5.8-2.3-10.7-5.2-15.1-9.1c-4.2-3.9-8.1-8.3-11.3-13.7c-0.6-1.9-1.2-4.7-1.7-7
			c-0.1-6.9-2.1-12.1-1.6-17c0.4-4.8,2.4-10.2,6.5-16.3c3.9-4.1,10.1-6.2,15-9.6c4.9-3.3,9.1-7.9,14.2-10.3c5.1-2.3,11.2-2.6,17-2.9
			c5.6-0.3,11.6,0.8,17.2,0c5.5-0.8,10.7-4.1,16.2-4.9c5.5-0.8,11.4-0.7,17-0.3c5.6,0.4,10.8,3.4,16.3,4.6
			c5.5,1.2,10.8,3.1,16.2,4.5c5.5,1.4,11.7,0,17,1.6c5.4,1.6,10.3,4.9,15.3,7.3c5.2,2.4,9.1,6.6,13.6,9.6c4.7,3.2,9,6.5,13.2,9.9
			c3.5,3.5,8.4,6.1,12.7,7.1c4.6,1.1,9.9-0.1,14.3-1.3c4.6-1.3,8-4.9,11.1-8c3.1-3.2,6.6-6.6,7.6-11.1c1-4.3,1.6-9.6,0.2-14
			c-1.3-4-4.9-7.8-8.5-11.1c-3-2.5-7.3-3.7-10.4-6.4c-3-2.6-4.5-7.1-7.7-9.6c-3.2-2.4-7.8-2.6-11.4-4.6c-3.5-1.9-6.9-3.5-10.8-4.5
			c-3.9-1-7.7-2.4-11.7-3.2c-4-0.8-8.5-0.3-12.3-1.6c-5.6-2-10-7.1-15.6-9.3c-5.5-2.2-11.4-4-17.2-5.2c-5.9-1.2-12,0.3-18,0.1
			c-5.9-0.2-11.8-1.6-17.8-1.9c-4-0.2-8.2,0.8-12.2,0.1c-4-0.7-7.8-2-11.8-2.5c-4.1-0.5-8.2-2.4-12.1-1.9c-4,0.5-7.3,3.9-11.1,5.2
			c-3.8,1.3-7.7,2.3-11.4,3.8c-3.7,1.6-7.3,3.8-11,5.2c-5.7,2-11.2,4-16.6,6.3c-5.5,2.3-11.6,3.4-16.5,6.8
			c-3.3,2.3-7.1,3.9-10.3,6.3c-3.2,2.4-6.2,5.3-9.1,8.1c-2.9,2.7-6.4,5.3-8.9,8.5c-2.4,3.1-3.3,7.6-5.6,11
			c-2.2,3.3-2.6,7.7-4.5,11.3c-1.9,3.5-4.8,6.5-6.2,10.3c-1.3,3.9-0.9,7.9-1.4,12c-0.4,4.1-3.6,8.1-3.4,12.1
			c0.2,4.1,3.8,7.9,4.3,11.9c0.8,6-0.6,12.7,2,18.2c2.6,5.4,6.8,10.1,10,15.2c3.2,5.1,7.6,9.2,11.9,13.2c4.2,3.9,10.1,5.7,15.2,8.9
			c4.7,3.2,8.8,7,13.8,9.7c4.9,2.6,10.1,4.1,15.6,5.7c5.4,1.6,10.4,5.8,16.1,6.4c5.6,0.6,11.6-2.3,17.3-1.6c5.6,0.7,11.4,2.2,17,3.6
			c5.6,1.4,10.9,3.5,16.7,3.8c5.7,0.3,11.4-0.8,17.1-1.4c5.8-0.6,11.8-0.8,17.4-0.5c5.8,0.4,11.5,2.1,17,3.4
			c5.8,1.4,11,4.9,16.4,5.9c5.8,1.1,11.9,0.4,17.5,1.2c6.1,0.9,11.1,3.2,15.9,6c5,2.9,11.2,4.7,15.4,9.2c4,4.3,8.7,9.1,11.3,14.5
			c2.3,4.8,1.9,11.4,1.9,17.8c0.1,5.4,0.9,11.3,1.1,17.5c-0.8,4.3-5.2,7.8-6.4,11.7c-1.3,4.2-0.1,9.1-1.9,12.8
			c-1.9,3.8-6.5,5.8-9.1,9.1c-2.6,3.4-4.2,7.6-7.1,10.9c-2.9,3.2-4.9,7.6-8.2,10.3c-3.3,2.8-8.3,3.3-12.1,5.2
			c-3.8,1.9-7.3,4.6-11.5,6.2c-4,1.5-8,3.7-12.2,4.8c-4.2,1.1-8.4,3.1-12.7,3.8c-4.3,0.7-8.9-1.9-13.2-2.2c-4.3-0.3-8.8,0.6-13-0.1
			c-4.3-0.7-8.6-0.9-12.8-1.2 M670,453.9c0,0,1.4-0.1,2.3-0.2C671.4,453.9,670,453.9,670,453.9z"/>
	</g>
	<g class="st1">
		<g>
			<g>
				<path d="M493.7,886.1c-5.7,0-11.5,2.3-17.1,1.7c-5.7-0.6-11.2-3.3-16.8-3.3c-5.7,0-11.3-0.4-17-0.3c-5.7,0.1-11.3,1.3-17,1.3
					c-5.7,0-11.2,1.9-16.9,2.6c-5.7,0.7-11.4-0.9-17.1-0.9c-5.7,0-11.4,0-17.1,0.4c-5.7,0.4-11.2,1.9-16.9,1.9s-11-2.1-16.6-3.4
					c-5.7-1.3-11.7,0.5-17.3,0.5c-5.7,0-11.3-1.7-17-1.8c-5.7-0.1-11.3,1.6-17,1.6c-5.7,0-11.3-3.1-17-3c-5.7,0.1-11.3,2.3-17,2.3
					c-5.7,0-11.4,0.3-17,1.5s-11.3,3.3-16.9,3.3c-4.7,0-8.7-3-12.5-5.6c-3.8-2.5-6.8-5.8-9.1-9.8c-2.3-4-4.8-8.2-5-12.7
					c-0.2-4.6,3-7.8,5.5-11.4c2.5-3.5,4.4-7.6,8.4-9.6c3.9-2,8.4-1.7,12.8-1.7c4.4,0,8.7-1.8,13.1-2c4.4-0.2,8.8-0.2,13.1-0.4
					c4.4-0.2,8.8-1.7,13.2-1.7c4.4,0,8.7,0.6,13.1,0.3c4.4-0.3,8.9,1,13.3,0.7c4.4-0.3,8.7-3,13.1-2.9c4.4,0,8.9,2.8,13.6,3.4
					c4.5,0.6,9.1,1.6,13.6,2.2c4.7,0.6,9.2-0.3,13.6-0.3c0-4,0.9-8.2,0.3-12.5c-0.6-4.1-3.3-8-3.9-12.2c-0.6-4.3-1.2-8.6-1.2-12.7
					c0-4,2.8-7.8,3.3-11.8c0.6-4-0.3-8.1,0.3-12.1c0.6-4-0.8-8-0.8-11.9c-0.1-6,2.9-12,2.8-17.9c-0.1-6-2.8-11.9-2.8-17.9
					c0-4,0.9-8,0.3-12c-0.7-3.9-0.5-8.1-1.2-12c-0.7-4-1-7.8-1.1-11.8c-0.1-6-2.7-11.9-2.8-17.9c-0.1-6,2.2-12,2.2-17.9
					c-0.1-6-1.8-12-1.5-17.9c0.4-6,0.2-11.9,0.2-17.8c-0.1-6,1.1-11.7,1.1-17.4c0-5.7,0.5-12.1,0.5-18c-5.2,2.2-10.7,4.8-15.8,6.6
					c-5.1,1.8-10.7,2.1-16,4.1c-5.3,2-9.5,6.6-14.6,9.1c-5.1,2.5-10.1,5.7-15.4,7.5c-5.4,1.8-11.3,1.7-16.8,3.2
					c-5.5,1.5-10.8,3.3-16.3,4.8c-4.5,1.3-9.6,1.8-14.1,0.4c-4.4-1.3-8.9-4-12.3-7c-3.5-3.2-4.2-8.2-5.6-12.5
					c-1.4-4.4-3.9-9.1-2.3-13.6c1.5-4.3,6.2-7.1,9.4-10.5c3.4-3.5,6.1-8.7,10.3-9.9c5.1-1.5,11.2,0.6,16.3-0.5
					c5.2-1.2,9.8-4.6,14.9-6.3c5.1-1.7,10.1-3.5,15.1-5.1c5.1-1.6,10.9-1.1,15.9-3c5-1.9,9.3-5.7,14.4-7.3c5.1-1.6,9.8-3.9,14.7-5.9
					c-0.8,0.3-1.3,1.7-2.2,2.1c4.7-1.7,8.5-5.7,13-8.1c4.5-2.4,10.3-2.5,14.8-4.7c4.7-2.3,9.2-3.9,14.1-5c4.9-1,9.9-2.1,14.5-0.1
					c4.5,2,9.6,4.8,12.6,8.7c3.1,4.1,2.6,9.8,2.6,14.7c0,4-0.6,7.8-1.2,11.9c-0.6,4-0.9,8.1-1.5,12c-0.6,4-1.1,8.2-1.1,12.2
					c0,4,0,8,0.1,12c0,4-0.5,8-0.5,12c0,4,2.7,8,2.7,12c0,4-2.6,8.1-2.4,12.1c0.2,4,0.9,8,1,12c0.2,4,2.1,8,2.1,12c0,4,1.3,8,1.3,12
					c0,4-3.2,8-3.1,12c0,4,2.5,8,2.5,12s0.2,8,0.3,12s-0.4,8-0.4,12c0.1,4-0.3,8-0.3,12c0,4,1.7,7.9,2,11.9c0.2,4-0.5,8.1-0.2,12.1
					c0.2,4-0.5,8.1-0.4,12.1c0,4,1.8,8.2,1.5,12.2c-0.3,4-1.7,7.9-2.1,11.9c-0.3,4-0.8,8-0.7,12c0,4,0.3,8,0.7,12
					c0.3,4,0.8,8,1.2,12c0.3,4-0.4,8.5-0.4,12.5c5.7,0,11.7-2.2,17.5-2.5c5.8-0.4,11.7,1.6,17.4,1.6c5.7,0,11.5-2.1,17.2-2.1
					c5.7,0,11.5,0,17.2,0c5.7,0,11.7,0.4,17.5,1.2c5.7,0.8,11.2,4.4,17,4.4c4.5,0,9.3-1.1,13.2,0.6c4.1,1.9,5.8,6.6,8.3,10.1
					c2.5,3.4,6.7,6.5,6.9,11.1c0.2,4.6-4.1,8-6.7,11.8c-2.5,3.7-4.3,8.5-8.3,10.7C503,887.3,498,886.1,493.7,886.1z"/>
			</g>
		</g>
	</g>
	<g class="st1">
		<g>
			<g>
				<path d="M808.6,576.6c-2.3,3.4-3.9,7.7-6.4,10.9c-2.5,3.2-4.7,6.7-7.3,9.9c-2.5,3.2-6,5.7-8.3,9.1c-2.3,3.4-3.5,7.5-5.6,11
					c-2.1,3.5-5.9,6-8,9.5c-2.1,3.5-3.5,7.5-5.8,10.9c-2.3,3.4-3.8,7.4-6.3,10.7c-2.5,3.2-5.6,6-8.1,9.3c-2.5,3.2-3.9,7.2-6.2,10.6
					c-2.3,3.4-7.3,5-9.2,8.5c-1.9,3.5-3.5,7.2-5.5,10.7c-1.9,3.5-2,6.5-4.3,9.8c7.2-0.1,13.1-0.5,18.1-6.1c2.6-6.5,5.6-11.7,9-15.3
					c4.9-5.1,10.6-6.4,15.8-6.4c5.9,0,12.1,1.1,16,5.7c3.5,4.1,3.9,10.6,5.1,16.6c1.1,5.3,1.1,10.7-0.2,16.8
					c-1.1,5.1-1.4,11.2-5.9,16.2c-3.5,3.9-9.5,5.6-15.4,8.8c-4.7,2.6-10,4.8-15.9,7.4c-5,2-9.6,3-14.5,3.7c-5.1,0.7-10,1.4-15.1,1.4
					c-5.2-0.1-10.2,1.3-15.3,1.2c-5-0.2-10.6-2.2-15.7-3.5c-3.3,4.7-4.8,11.4-7.8,16.1c-3,4.7-7.6,8.3-10.9,13
					c-3.3,4.7-5.5,10.5-9.6,14.6c-4.1,4.1-10.4,6.4-13.6,11.2s-5.3,10.3-8,15.5c-2.7,5.1-5,10.4-8.3,15.1c-3.3,4.7-8,8.4-11.2,13.2
					c-3.2,4.7-3.8,11.3-7.1,16c-3.3,4.7-8.4,8.1-12.3,12.4c-3.9,4.3-7.7,8.6-11,13.4c-2.5,3.7-4.6,7.7-7.8,9.9
					c-3.5,2.5-8,3.3-12.2,3.5c-3.8,0.2-7.2-2.1-11.4-4.3c-3.8-2-8.1-3.7-10.2-7.5c-2-3.7-1.6-8.4-1.5-12.7c0.1-4.3-0.6-9.3,1.9-12.8
					c2.5-3.7,5.8-6.8,8-10.6c2.2-3.9,3.7-8.2,5.9-12c2.2-3.9,6.7-6.2,9.3-9.9c2.5-3.7,3.5-8.4,5.9-12.1c2.4-3.7,5.2-7.2,7.6-11
					c2.4-3.7,3.3-8.5,5.8-12.2c2.5-3.7,6.5-6.3,9.1-9.9c2.6-3.6,4.8-7.5,7.4-11.1c2.6-3.6,5.9-6.7,8.4-10.4
					c2.5-3.6,5.8-6.6,8.4-10.1c2.6-3.5,3.6-8.2,6.1-11.7c2.6-3.5,5.9-6.5,8.4-10.2c-4.7-1.2-9.9-3.9-15.3-4.9
					c-5.3-0.9-10.9,0.7-16,1.2c-5.4,0.5-9.1,2.3-13.3,5.8c-1.2,4.6-5.7,6.5-8.1,9.5c-2.9,3.5-4.9,7.8-8.8,9c-3.9,1.2-9,2-13.3,0.8
					c-4.2-1.2-7.4-5.3-10.5-8.3c-3.1-2.9-7.4-6-8.4-10.4c-0.9-3.8,0.5-8.7,1.8-13.4c1.9-6,4-11.7,7-16.4c3.3-5.1,7.3-9.9,12-13.5
					c3.1-2.4,6.8-4.3,10.4-6.3c3.5-2,6.8-4.8,10.6-6.2c3.7-1.4,8.4,0.4,12.4-0.3c5.8-0.9,11.6-0.9,17.7-0.7c6,0.2,12.3-1.4,18.1-0.6
					c5.9,0.8,11.6,3.6,17.2,5.5c5.9,2,11.5,4.3,16.8,6.4c3.1-4.4,5.6-9.4,8.8-13.9c3.2-4.4,5.8-9.4,8.8-13.8
					c3.1-4.4,7.9-7.7,10.8-12.3c2.9-4.6,4-10.3,7.1-14.8c3.1-4.4,6.6-8.7,10-12.9c3.4-4.2,9-6.8,12-11.2c3.1-4.4,5.9-9.3,8.7-14.1
					c2.8-4.8,3.3-9.5,6.4-13.9c-8.3-2.6-11.7-3.8-16.2-3c-4.4,0.7-8.8,4.2-17.2,4.2c-8.6,0-12.8-1-17.1-0.3s-8.6-0.3-17.1-0.3
					c-8.6,0-12.9,1.7-17.1,1.5c-4.3-0.1-8.6-2.1-17.1-2.1c-8.6,0-12.7-0.3-17-0.6c-4.3-0.3-8.7,3-17.2,3c-8.6,0-12.8-2.7-17.1-3.1
					c-4.3-0.4-8.6,0.7-17.2,0.7c-8.6,0-12.8,0-17.1,0.2c-4.3,0.2-8.6,0.5-17.2,0.5c-8.6,0-12.9-0.7-17.2-0.2s-8.5,2.2-17.1,2.2
					c-4.7,0-9.1-2.4-12.8-4.9c-3.7-2.5-6.7-6.2-8.9-10.2c-2.2-4-3-8.5-3.2-13c-0.2-4.5,0-9.1,2.3-12.5c2.3-3.4,7.1-4.3,11-6.2
					c3.8-1.8,7.3-4.5,11.6-4.5c8.8,0,13-2,17.3-2.5c4.4-0.5,9,1.5,17.7,1.5c8.8,0,13.2,0.2,17.6,0c4.4-0.2,8.7-1.1,17.5-1.1
					c8.8,0,13.1,1,17.5,1c4.4,0,8.8-2.2,17.6-2.2c8.8,0,13,2.1,17.4,2.7c4.4,0.6,8.9-0.5,17.7-0.5c8.8,0,12.8-1.8,17.2-2.7
					c4.4-0.9,9.1,1.4,17.9,1.4c8.8,0,13.4-1.8,17.7-0.9c4.4,0.9,8.6,4.5,17.3,4.5c8.8,0,13.1-0.5,17.5-0.3c4.4,0.2,8.8-0.3,17.6-0.3
					c8.8,0,13.2-0.1,17.6,0c4.4,0.1,9.2,1.7,18,0.7c4.5-1.7,8.6-5.3,12.4-4.8c4.3,0.7,7,5.1,10.3,7.9c3.2,2.7,6.6,5.1,8.5,9
					c2,4,2.5,8.3,2.7,12.5c0.2,4.4-0.2,8.5-2.8,12.2C817.1,572.5,813.3,574.6,808.6,576.6z"/>
			</g>
		</g>
	</g>
</g>
<g id="v3" class="st0">
	<g class="st1">
		<path d="M431.3,437.2c3-2.1,7.9-4,13.4-4.5c4.6-0.5,9.4,0.4,13.9,2.4c4.1,1.8,7.1,4.9,9.6,9.7c2.3,3.6,2.5,7.4,2.7,11.6
			c0.2,4.3,2.4,9,0.6,12.7c-1.9,3.8-6.4,5.2-10.3,7.2c-5.6,2.3-10.8,4.8-16.4,6.1c-5.9,1.4-11.4,3.5-16.9,5c-5.8,1.7-11.5,3-17,4.6
			c-5.8,1.6-11.4,3.5-17.1,4.3c-6,0.8-11.9,1.4-17.6,2.1c-6,0.7-11.9-0.2-17.7-0.3c-6-0.2-12.1,2.3-17.9,2.1
			c-6.1-0.2-12.1-1.5-17.8-2.7c-5.9-1.3-11.4-4-16.7-6.7c-5.4-2.7-10.2-6.6-15.5-8.9c-5.5-2.3-11-4.3-16.2-6.8
			c-5.3-2.5-11.2-4.2-16-7.5c-4.9-3.3-9.5-7.2-14-10.9c-4.5-3.8-8.5-8.3-12.6-12.4c-4.2-4.2-7.1-9.7-11.2-13.9
			c-4.2-4.3-9.6-7.3-13-12.2c-3.4-4.9-7.2-9.7-9.6-15.2c-2.3-5.5-4.7-10.8-7.2-16.2c-2.5-5.3-3.6-11.3-5.9-16.7
			c-2.3-5.4-4.2-11-5.8-16.7c-1.6-5.7-3.1-11.4-4.6-17.2c-1.5-5.8-2.6-11.6-3.2-17.4c-0.7-5.9,0-11.9-0.5-17.9
			c-0.4-6-0.5-11.7-0.1-17.6c0.4-5.9-1.9-12.2-0.9-18.1c1-5.9,5-11.2,6.4-16.9c1.4-5.7,3-11.4,5.1-17c2.1-5.6,3.6-11.4,6.2-16.7
			c2.5-5.3,5-10.8,8-16c2.9-5.2,5.3-10.9,9-15.6c3.6-4.6,8.8-8,13.5-11.9c4.5-3.8,10.1-6.5,14.7-10.3c4.4-3.8,9.1-7.2,13.9-10.7
			c4.7-3.4,9.2-7.1,14.4-10c5-2.8,9.5-7.1,15.1-9.5c5.3-2.2,11.4-2.9,17.1-4.9c5.4-1.9,10.8-4.9,16.7-6.1c5.6-1.1,11.8-0.4,17.7-1.6
			c5.6-1.1,11.1-4.1,16.9-5.9c5.6-1.8,11.6-1.7,17.6-2.2c5.2,0,10.6-2,16-1.6c5.4,0.4,10.5,2.4,15.8,3.4c5.2,0.9,9.3,4.2,14.1,6.9
			c4.6,2.6,10.5,2.9,15.4,4.8c4.8,1.9,9.5,4.7,14.6,6.1c5.1,1.4,11.2,1.1,15.8,3.9c4.4,2.7,8.8,6.1,13.1,9.4
			c4.2,3.1,7.1,8.1,11.1,11.6c3.1,3.9,6,7.1,6.9,10.6c1.3,4.6,1.4,9.3,0.1,13c-1.4,4.1-5.7,6.5-8.7,9.4c-3,2.9-6.2,5-9.9,6.4
			c-4,1.5-7.8,2.2-11.6,1.6c-4-0.6-6.7-2.9-9.4-6.3c-3.3-2.5-7.4-4.4-11-6.3c-3.7-1.9-8.3-1.6-12-3.2c-3.8-1.6-6.8-4.9-10.5-6.5
			c-3.7-1.6-7.5-3.1-11.2-4.6c-3.8-1.5-8.2-1-12-2.1c-3.9-1.1-7.4-3.6-11.4-4.2c-4-0.6-8.1-1.5-12.1-1.7c-4.1-0.3-8.2-1.2-12.2-1.1
			c-4,0.1-8.1,1.8-12.1,2.3c-4,0.5-8.1,0.7-12.2,1.3c-4.1,0.5-8.1,1.5-12.1,2.4c-4,0.9-8.2,1.5-12,3c-3.8,1.6-5.9,6.1-9.4,8.3
			c-3.4,2.1-7.4,3.4-10.7,5.8c-3.3,2.4-5.7,6-8.9,8.5c-3.2,2.4-8.5,2.4-11.5,5.1c-3,2.7-3.9,7.5-6.6,10.5c-2.7,2.9-5.1,6.1-7.6,9.3
			c-2.5,3.5-4.3,7.1-6.4,10.7c-2.1,3.7-4.7,7-6.5,10.8c-1.8,3.9-4.1,7.4-5.7,11.3c-1.6,4-3.9,7.7-4.9,11.7c-1,4.1-1.5,8.3-2.1,12.5
			c-0.6,4.1-2.2,8.2-2.7,12.4c-0.5,4.2-0.7,8.5-0.9,12.6c-0.3,4.2,0.7,8.5,0.9,12.6c0.1,4.1,0.2,8.4,0.9,12.6
			c0.7,4.2,0.9,8.5,1.7,12.6c0.8,4.2,3.7,7.8,4.9,11.9c1.2,4,2,8.1,3.7,12c1.7,3.9,4.4,7.1,6.7,10.6c2.4,3.5,3.9,7.6,6.5,10.9
			c2.6,3.3,4.6,7.1,7.2,10.4c2.6,3.3,5.7,6.2,8.4,9.4c2.7,3.2,7.1,4.7,10.1,7.7c2.9,2.9,5.1,6.6,8.5,9.2c-0.4-0.3-3.3,2.5-3.7,2.2
			c0.9,0.7,1.4,2.3,2.3,3c-0.5-0.4-0.7-1.3-1.2-1.7c3.6,2.7,8.6,3.4,12.4,5.8c3.8,2.5,7.4,5.1,11.3,7.3c4,2.2,6.8,7,10.9,8.7
			c4.2,1.7,9.5-0.8,14-0.1c4.4,0.7,8.6,4.3,13.1,4.6c4.5,0.3,9.1-0.7,13.5-0.1c4.4,0.5,8.9-0.7,13.2-0.6c4.4,0.1,8.9,2.9,13.3,2.6
			c4.3-0.3,8.5-3.2,12.9-3.8c4.4-0.7,8.9-0.4,13.4-0.9c4.4-0.6,8.8-1.6,13.1-2.5c4.3-0.9,8.2-3.2,12.3-4.9"/>
	</g>
	<g class="st1">
		<path d="M278.9,418.7c0.5,0.4,1,0.8,1.4,1.2c-0.9-0.7-1.8-1.4-2.7-2.1C278.1,418.2,278.5,418.5,278.9,418.7z"/>
	</g>
	<g class="st1">
		<path d="M392.2,448c0.3,0,0.7-0.1,1-0.1c-1.8,0.3-2.7,0.4-2.9,0.5C390.5,448.3,391.2,448.2,392.2,448z"/>
	</g>
	<g class="st1">
		<path d="M430.3,437.4c0.2-0.2,0.5-0.3,0.7-0.5c0,0,0,0,0,0C431.8,436.5,432.1,436.4,430.3,437.4z"/>
	</g>
	<g class="st1">
		<path d="M636,452.8c-4.2-0.5-8.6-0.1-12.8-0.5c-4.3-0.4-8.4-2.6-12.5-3.3c-4.3-0.8-8.7-0.9-12.6-2.5c-4.1-1.6-7.1-5.1-10.8-7.2
			c-3.8-2.2-7-5-10.4-7.4c-3.7-2.6-7.9-4-11.1-6.5c-2.8-2.4-6.8-6.7-11-11.6c-3.5-4.1-7.5-7.7-12.1-10.3c-4.8-2.7-10-4.2-15.7-3.1
			c-4.8,1-9.8,3.3-14.3,7.9c-2.8,6.1-1.8,11.9-1.5,17.4c0.3,6,0.3,11.8,3,17.2c2.5,5.1,5.3,10.5,9.7,15c3.9,4,8.6,7.8,13.9,11.4
			c3.2,2.2,6.9,3.9,10.4,6.3c3.3,2.2,6.1,5.4,9.6,7.5c3.4,2,7,4.4,10.8,5.9c3.7,1.5,8.2,1.2,12,2.7c3.7,1.5,7.1,4.2,11,5.5
			c3.8,1.3,8.2,0.9,12.2,1.9c4,0.9,7.9,2,12,1.9c4.1,0,8.1-1.2,12.2-1.4c4.2-0.2,8.4-0.8,12.4-0.4c6.1,0.7,11.9,3.5,17.6,4.1
			c6.2,0.7,12.4,2,18.1,1.6c6.4-0.4,12-4.2,17.5-5.3c6.6-1.3,13.3,0,18-2.6c3.9-1,6.8-4.9,10.6-6c3.9-1.1,7.5-2.8,11.2-4.2
			c3.8-1.4,7.6-2.4,11-4.3c3.5-2,7.4-3.3,10.7-5.5c3.4-2.3,7.9-3.1,11-5.6c3.1-2.6,4.6-7.1,7.4-10c2.9-2.9,5.4-5.9,7.7-9.1
			c2.4-3.3,3.6-7.1,5.6-10.6c2-3.5,6.4-5.6,8.3-9.1c2.9-5.3,3.3-11.8,5.6-17.3c2.3-5.6,6.4-10.6,7.6-16.5c1.2-5.9-0.7-12.1-1-18.1
			c-0.3-6-0.4-11.9-1.1-17.9c-0.4-4-0.9-8-1.2-12.1c-0.2-4.1,1.4-8.4,0.8-12.3c-0.6-4-4.5-7-6.3-10.7c-1.7-3.7-2.1-8-4.9-11.1
			c-2.7-2.9-5.5-5.9-8.6-8.7c-3-2.7-5.6-5.8-8.4-8.7c-4.1-4.2-9-7.6-13.7-11.4c-4.4-3.6-8.6-8.2-14.1-11.1
			c-5.1-2.8-11.9-1.9-17.7-3.7c-5.4-1.7-10.5-5.3-16.5-6.8c-5.7-1.6-11.9-0.7-17.9-1.6c-5.8-0.8-11.5-3-17.6-3.4
			c-4-0.3-8.1,0.9-12.2,0.6c-4-0.3-7.9-3.1-11.9-3.3c-4-0.2-8.1,0.3-12.1,0.2c-4.1-0.1-8.1,1.3-12.2,1.3c-4.1-0.1-8.1-1.8-12.1-2
			c-4.1-0.1-8.2,0.4-12.1,0.1c-4.1-0.4-8.2-0.6-12.2-1.2c-4.1-0.7-7.9-2.4-11.8-3.4c-4.1-1.1-8-2.1-11.7-3.5
			c-3.9-1.5-7.7-3.1-11.3-5.3c-3.6-2.2-5.8-5.8-8.8-8.6c-3-2.9-7.1-4.7-9.2-8.3c-0.6-1.9,2.1-6.7,1.6-9c-0.1-7-0.1-11.2,1.5-15.9
			c1.5-4.4,3-8.9,6.9-14.8c3.9-4.1,8.5-7.1,13.1-10.5c4.6-3.4,8.1-8.6,13.2-11c5.1-2.3,10.5-4.5,16-6.3c5.4-1.8,11.1-3.5,16.8-4.3
			c5.5-0.8,11.4,0.8,17.2,0.9c5.7,0.1,11.5-1,17.1-0.6c5.6,0.4,11.2,2.2,16.7,3.6c5.4,1.5,10.8,3.5,16.2,4.9
			c5.5,1.4,10.8,3.3,16.1,4.9c5.4,1.7,10.3,4.4,15.3,6.8c5.2,2.4,11.3,2.9,16,5.8c4.9,3,9.1,7,13.4,10.4c3.5,3.5,6.5,7.8,10.3,8.6
			c4.3,0.9,8.5-3,12.6-4.5c4-1.5,7-3.8,10.1-6.9c3-3.1,7.8-5.2,9.1-9.1c1.4-4,2.1-9.1,0.9-13.4c-1-3.7-4.4-7.3-7.9-10.6
			c-4.5-3.8-9.8-6.7-15.1-9.6c-5.1-2.8-10.4-5.6-15.6-8.5c-5.2-2.8-10-6.3-15.1-9.5c-5-3.2-10-7.3-15.7-9.4
			c-5.6-2-12.3-0.4-18.2-1.6c-5.8-1.2-11.6-3.1-17.4-4.2c-5.9-1.2-11.7-2.5-17.6-3.7c-5.9-1.2-11.7-2.2-17.7-2.5
			c-6-0.3-12.1-2.4-18.1-1.8c-6,0.5-12,2-17.8,2.8c-6,0.8-11.7,2.9-17.4,4.5c-5.8,1.6-11.6,3-17.2,5c-5.7,2-10.6,5.4-15.7,8.2
			c-5.2,2.8-11,4.7-15.9,8.1c-4.9,3.4-9.8,6.9-14.1,10.9c-4.2,4-7.3,9.2-11,14c-3.6,4.6-7.6,9.1-11.1,14.1
			c-3.3,4.8-7.2,9.7-9.4,15.5c-1.9,5.8-0.6,12.2-0.4,18.1c0.2,5.9,1.3,11.8,2.1,17.7c0.8,5.9,2.5,11.6,3.9,17.3
			c1.4,5.8,1,12.4,4.2,17.5c3.3,5.1,8.4,8.7,13,12.6c4.5,3.9,9.8,6.7,14.9,9.9c4.7,3.2,8.6,7.8,13.6,10.4c5,2.6,10.6,4,16.2,5.6
			c5.4,1.6,11.1,2.5,16.7,4c5.5,1.5,10.8,4.5,16.6,5.1c5.6,0.7,11.5-1,17.3-1.1c5.7-0.1,11.6-1.4,17.3-1.1c5.7,0.3,11.3,3.3,16.9,4
			c5.8,0.6,11.5,0.8,17.1,1.2c5.8,0.4,11.6,0.8,17.2,0.9c5.9,0.1,11.8-1.1,17.3-0.1c5.9,1.1,11.1,3.7,16.1,6
			c5.4,2.4,10.1,5.8,14.9,8.5c5,2.9,10.9,4.5,14.8,8.5c3.7,3.8,6,9.3,8.5,14.8c2.3,4.8,4,10.1,4.7,16.1c0.6,5-1.8,10.5-1.6,16.6
			c-0.8,4.3,1.8,8.9,1.1,12.9c-0.8,4.3-2.2,8.6-3.5,12.4c-1.4,4.1-3.1,8.5-5.7,11.8c-2.7,3.4-6.9,5.6-10.2,8.4
			c-3.3,2.7-6.4,6.1-10.1,8.4c-3.7,2.2-8.3,2.9-12.2,4.9c-3.8,1.9-7.9,3.2-11.9,4.8c-4,1.6-7.3,5.1-11.4,6.3
			c-4.1,1.2-8.7,0.7-12.9,1.4c-4.2,0.7-8.6-0.2-12.9,0.2c-4.3,0.5-8.4,1.5-12.7,1.6c-4.4,0.1-8.6,0.4-12.8,0.1 M672,453.9
			c0,0,2.9-1.2,3.8-1.3C674.9,452.7,672,453.9,672,453.9z"/>
	</g>
	<g class="st1">
		<g>
			<g>
				<path d="M493.7,887.6c-5.7,0-11.3-0.8-17-0.3s-11.3,1.7-17,1.7s-11.4,0.3-17.1-0.1c-5.7-0.4-11.2-3.9-16.9-3.9
					c-5.7,0-11.3,0.5-16.9,0.1c-5.7-0.4-11.4,0.2-17,0.2c-5.7,0-11.3,0.9-16.9,1.8c-5.7,0.9-11.4,2.6-17,2.6c-5.7,0-11.5-0.4-17.1-1
					s-11.2-2-16.8-2c-5.7,0-11.3,0.2-17,1.1c-5.7,0.9-11.3,1.4-17,1.4c-5.7,0-11.5,0.4-17.2-0.5s-11.1-2.6-16.8-2.7
					c-5.7,0-11.2,1.2-16.9,2.1c-5.7,0.9-11.4-0.1-17.1-0.1c-4.7,0-9.2,0-12.9-2.5c-3.7-2.5-5.2-7-7.4-11c-2.2-4-6.4-7.6-6.6-12.1
					c-0.2-4.5,2.3-8.9,4.7-12.4c2.4-3.5,6.8-4.7,10.7-6.7c3.8-1.9,7.4-3.7,11.7-3.7c4.4,0,8.8-1.3,13.2-1.2c4.4,0.2,8.7,2.8,13,2.9
					c4.4,0.2,8.8-0.9,13.2-0.9c4.4,0,8.6-2.6,13-3.2c4.4-0.5,8.8-0.2,13.2-0.7c4.4-0.5,8.9,0.7,13.3,0.7c4.4,0,9.1-1.6,13.7-1.3
					c4.5,0.3,9,1.3,13.5,1.6c4.6,0.4,8.6,0.7,13.1,0.7c0-4,1.5-7.7,1.4-11.9c-0.1-4.1-2-8.3-2.1-12.4c-0.1-4.2-0.4-8.4-0.4-12.4
					c-0.1-6,1.6-12,1.4-17.9c-0.2-6-0.7-11.9-0.7-17.9c-0.1-6,0.4-11.8,1-17.8c0.5-6-1.3-12-1.4-18c-0.1-6,2.1-12,1.6-18
					c-0.5-6-1.7-11.8-1.7-17.8c-0.1-6,0.5-11.9,0.6-17.9c0-6-2-11.9-2-17.9c-0.1-6,2.3-11.9,2.5-17.9c0.2-6-1.3-12-1.3-17.9
					c-0.1-6-0.4-11.8-1.2-17.6c-0.8-5.8-1.2-11.9-1.3-17.9c-5.2,2.2-9.9,5.9-15,8c-5.1,2.1-11.1,1.8-16.4,3.7
					c-5.3,2-10.1,5.3-15.4,7.2c-5.3,1.9-10.4,4.6-15.7,6.4c-5.4,1.8-11,2.8-16.6,4c-5.5,1.2-11.7-0.1-17.1,1.5
					c-4.4,1.2-8.5,4.4-12.3,3.4c-4-1-8.2-3.9-11.1-7c-2.7-2.9-2.5-7.9-3.8-12.1c-1.4-4.2-3.5-8.3-2.6-12.4c0.9-4.2,2.5-9,5.3-12.2
					c2.8-3.2,7.9-3.8,12.1-5c5.1-1.5,10.1-3.6,15.4-4.6c5.3-1,11.1-0.2,16.1-1.9c5.1-1.7,9.4-5.5,14.4-7.4c5-1.9,10-3.9,14.9-5.7
					c5-1.9,10.8-1.7,15.7-3.8c4.9-2.1,9-6.1,13.9-8.2c-0.8,0.3-2.3-1-3.1-0.6c4.7-1.7,10.4-1.6,15-4c4.5-2.4,8-7,12.6-9.1
					c4.7-2.2,9.7-3.9,14.6-5c4.9-1,9.8,0.9,14.2,3.2c4.3,2.2,8,5.5,10.7,9.6c2.8,4.2,4.2,8.8,4.2,13.7c0,4-0.5,8.1-0.2,12.1
					c0.3,4,1.1,8,1.3,12c0.3,4,2.1,8,2.2,12c0,4-2.3,7.9-2.6,12c-0.3,4,2,8.2,1.7,12.2c-0.3,4,0,7.9,0,11.9c0,4,0,8.1-0.2,12.1
					c-0.2,4-2.5,7.9-2.7,11.9c-0.2,4-0.6,8-0.5,12.1c0,4,2.2,8,2.3,12c0.1,4-1.4,8.1-1.2,12.1c0.1,4,1.7,8,1.7,12c0,4-1.7,8-1.8,12
					c-0.1,4,0.7,8,0.6,12c-0.1,4,0.6,8,0.6,12c0,4-1.1,8-1.1,12c0,4-0.3,8-0.3,12c0,4-1,8-0.9,12c0,4,1.1,8,1.4,12.1
					c0.3,4,2.7,7.9,3,11.9c0.3,4,0.6,8.1,0.6,12.1c0.1,6-0.1,11.9,0.1,17.7c0.2,5.9-1.3,12.5-1.2,18.5c5.7,0,12.2,0.2,17.8-0.3
					c5.6-0.5,11.1-4,16.8-4c5.7,0,11.4,3,17.2,4.1c5.7,1,11.6,0.9,17.3,0.9c5.7,0,11.5,1,17.3,0.6c5.7-0.4,11.4-1.3,17.2-1.3
					c4.6,0,8.5,1.6,12.2,3.8c3.8,2.2,7.6,4.7,9.8,8.5c2.2,3.7,2.8,8.2,3,12.7c0.2,4.5,0.1,9.2-2.3,12.7c-2.3,3.5-5.8,7.2-9.7,9.2
					C503,886.5,498,887.6,493.7,887.6z"/>
			</g>
		</g>
	</g>
	<g class="st1">
		<g>
			<g>
				<path d="M809.9,578.3c-2.3,3.4-5.8,5.5-8.4,8.6c-2.6,3.1-4.3,7.1-6.9,10.3c-2.6,3.1-5.2,6.2-7.5,9.6c-2.3,3.4-4.8,6.6-6.8,10.2
					c-1.9,3.6-3.9,7.3-5.8,10.9c-1.9,3.6-4.9,6.7-7.2,10c-2.3,3.4-4.5,6.8-7.2,9.9c-2.7,3.1-4.8,6.8-7.5,9.9
					c-2.7,3.1-4.8,6.5-7.2,9.9c-3.5,5.1-6.2,10.1-8.7,15.4c-2.5,5.4-7.2,10.3-10.7,15.4c3.6,0,8.7-0.9,12.3-1.6
					c3.7-0.7,6.5-1.8,9-4.7c2.5-6.3,4.8-11.8,7.7-15.7c4.2-5.7,10-6.9,15.3-6.9c5.8,0,10.2,2.8,14.4,7.3c3.7,4.1,6.8,8.7,8.1,14.8
					c1.1,5.3,0.7,11.1-0.6,17.4c-1.1,5.4-3.3,10-7.8,15c-3.5,3.9-6.6,9.6-12.5,12.9c-4.8,2.7-10.9,3.9-16.9,6.4
					c-5,2-9.8,4.6-14.8,5.5c-5.2,0.9-10.6,0.9-15.8,0.8c-5.2-0.1-10.2-1.4-15.2-1.9c-5-0.5-9.9-0.6-15-1.9
					c-3.3,4.7-5.8,9.8-9.4,13.9c-3.7,4.2-8.6,7.3-11.8,12c-3.3,4.7-6.1,9.8-9.5,14.4c-3.4,4.6-6.5,9.4-9.7,14.2
					c-3.3,4.7-8.5,8.2-11.5,13.1s-5.8,9.8-9,14.6c-3.3,4.7-4.6,10.7-7.4,15.7s-7.7,8.7-11,13.4c-3.3,4.7-4.5,10.9-8,15.5
					c-3.5,4.6-7.5,8.7-10.7,13.4c-2.6,3.8-6.1,6.5-9.6,8.6c-3.8,2.2-8,3.1-12.4,3.1c-4.1,0-9,0.5-13.1-1.7c-3.8-2-6.7-6.5-9-10.4
					c-2.2-3.8-4.4-8.5-4.7-12.8c-0.3-4.5,3-8.4,5.5-12c2.5-3.7,3-8.7,5.4-12.4c2.4-3.8,4.8-7.5,7.2-11.2c2.4-3.8,5.7-6.9,8.2-10.6
					c2.5-3.7,5.8-6.7,8.7-10.1c2.9-3.4,4.8-7.6,7.7-11c2.9-3.4,6.8-6,9.3-9.7c2.5-3.7,4.7-7.6,6.9-11.5c2.2-3.9,3-8.5,5.2-12.4
					c2.2-3.9,3.6-8.4,6.1-12.1c2.5-3.7,6.3-6.5,9.1-10c2.8-3.5,4.9-7.5,7.6-11c2.8-3.5,6.1-5.7,8.6-9.4c-4.7-1.2-9.3-4-14.8-4.9
					c-5.3-0.8-11.1-0.9-16.2-0.3c-5.4,0.6-9.5,3.8-13.6,7.3c-1.3,4.6-3,8.9-5.6,12.1c-2.9,3.7-7.3,6.4-11.2,7.9
					c-4.1,1.6-9,0.9-13.3-0.3c-4.3-1.2-8-4.2-11.4-7.7c-3.3-3.3-7.3-6.5-8.7-11.1c-1.3-4.3,0.1-9.1,1.5-14c1.3-4,1.7-8.2,3.9-11.5
					c2.3-3.4,5.5-6.1,8.3-8.9c3-2.9,7.2-4.1,10.3-6.4c4.7-3.6,8.7-8.6,14.4-10.1c5.5-1.4,11.4-2.4,17.3-3.3
					c5.7-0.9,11.9,1.6,17.7,1.1c5.8-0.4,11.4-1.2,17.2-0.4c3.9,0.5,7.9,1,11.8,1.9c3.9,1,8.4,0.3,12.1,1.5c3.9,1.3,7.4,4.3,11,5.8
					c3.1-4.4,6.3-9.4,8.9-14.5c2.6-5.1,3-11.5,6.1-16c3.1-4.4,8.5-7.3,11.5-11.8c2.9-4.5,5.4-9.4,8.4-13.8c3.1-4.4,5.8-9.2,9.6-13.1
					c3.8-3.9,7-8.2,10.1-12.6c3.1-4.4,7.8-7.2,10.5-11.4c2.7-4.2,5-9.6,8.1-14c-8.3-2.6-13-0.7-17.3,0c-4.2,0.8-8.7,2.4-17.1,2.4
					c-8.6,0-12.8-2.6-17.1-3.2s-8.6,0-17.2,0c-8.6,0-12.7,1.3-17,1.7c-4.3,0.4-8.7-2.6-17.3-2.6c-8.6,0-12.9,2.3-17.1,2.3
					c-4.3,0-8.6-1.4-17.1-1.4c-8.6,0-12.9,0.4-17.1,0.1c-4.3-0.3-8.6-2.4-17.1-2.4c-8.6,0-12.8,1.2-17.1,0.8c-4.3-0.3-8.6-1-17.2-1
					c-8.6,0-12.9,2-17.2,1.8c-4.3-0.2-8.5-3.2-17.1-3.2c-4.5,0-8.6,0.2-12.1-1.6c-3.8-1.9-8.2-4-10.3-7.6c-2-3.4-0.9-8.3-1.2-12.7
					c-0.2-4.5,1-8.1,3.2-11.8c2.2-3.7,5.1-6.2,8.8-8.4c3.7-2.2,7.2-4.2,11.6-4.2c8.8,0,13.1-1.5,17.5-1.7c4.4-0.2,8.8,1,17.6,1
					c8.8,0,13.1-0.1,17.5,0.1c4.4,0.3,8.8-1.3,17.6-1.3c8.8,0,13.1,2.1,17.5,2.3c4.4,0.2,8.8,0.4,17.6,0.4c8.8,0,13,1.6,17.4,2.1
					c4.4,0.4,8.9-0.1,17.7-0.1c8.8,0,13-2.4,17.4-3.8c4.4-1.3,8.9-2.4,17.7-2.4c8.8,0,13.2,0.5,17.5,0.9c4.4,0.4,8.8-0.2,17.5-0.2
					c8.8,0,13.2-0.5,17.5-0.5c4.4,0,8.8,1.3,17.5,1.3c8.7,0,13.5-0.1,17.9,0.9c4.5,0.9,8.5,2.5,17.2,1.5c4.4-1.6,8.9-1.5,13-1.1
					c4.5,0.4,8.2,2.7,11.7,5.2c3.6,2.5,5.6,5.9,7.6,9.9c2,4.1,3.8,7.9,3.6,12.4c-0.2,4.4-0.2,9.4-3,13.2
					C818.2,573.2,814.6,576.3,809.9,578.3z"/>
			</g>
		</g>
	</g>
</g>
</svg>
