<svg id="Layer_1" data-name="Layer 1" xmlns="http://www.w3.org/2000/svg" viewBox="0 0 1080 1080"><defs><style>.cls-1{fill:#fff;}.cls-2{fill:#ff8c96;}.cls-3{fill:#404041;}.cls-4{fill:#3e3e3f;}.cls-5{fill:#c0b382;}.cls-6{fill:#292627;}.cls-7{fill:#4e4f51;}.cls-8{fill:#46c7f4;}.cls-9{fill:#3dabd1;}.cls-10{fill:#3ca9cf;}.cls-11{fill:#3291b3;}.cls-12,.cls-13,.cls-14{fill:none;stroke:#3ca9cf;stroke-miterlimit:10;stroke-width:2px;}.cls-13{stroke-dasharray:3.05 3.05;}.cls-14{stroke-dasharray:3;}.cls-15{fill:#323031;}</style></defs><title>cs18blueno</title><path class="cls-1" d="M765.09,607l.86-1c-20.83-33.55-48.59-49.75-86.77-52.06,0,0,28.71-59.62-4.84-94.32s-161.75-100-161.75-100l4.63-16.19c.2-1.07,38.13-2,41.5-2.23,23.47-1.84,49.9-11.31,64.09-31.16,11.77-16.44,11.69-38,10.31-57.43-3-42.72-17-86.23-38.49-123.23C582.27,108,565.77,85.47,542.67,75c-38.18-17.35-32.39-39.33-59-40.49h-1.43l-.75.44,0-.39c0-22.14,3.77-31.2-17.62-32-12.09-.43-26.1-.06-37.9-1.83-23.12-3.47-52.54,5.49-62,14.16C350.5,27.29,364,39,358.93,40c-22.27,4.67-67.21,75.73-67.21,75.73-36.92-4.73-71,22.72-71,22.72-24.79-11.57-51.57-6.42-74.78,6.31-38.42,21.08-68.44,52-77,96.08-5.3,27.22-6.27,61.17,10.55,84.85,0,0-81.57,25.41-78.9,140.42S8.59,594.51,22,626.6s57.5,52.16,78.9,48.14c-4.73.89-7.33,26.43-7.58,30.88-1.76,31.62,11.06,65.53,36.91,84.64,25,18.46,57.27,19,87,16.88,113.67-8,149.78-34.77,163.15-45.47,0,0,89.6,12,144.43-14.71,0,0,127,26.74,199.25-6.69C785.2,712,782.09,638.58,765.09,607Z"/><path class="cls-1" d="M290.89,839.14a427.64,427.64,0,0,0-22.54,64.78c-10.29,39.67-15.82,94,7,130.48,37.38,59.7,132.43,50.9,182.23,13.25,2.35-1.77,8.9-6.13,9.3-9.37,11.29,19.44,32.19,30.08,45.7,34.36,42.56,13.51,90.29,8.23,125.69-20.09,0,0,1.44,19,56.23,20.22s148.07,14.07,170.12-15.67c.65,12.25,28.83,16.89,37.54,18.8,31.28,6.86,64.53,4.64,94.24-7.5,34.06-13.91,56.54-41.61,63-78,5.15-29.21-.59-65.19-23-86.34,3.79,3.57,31.08-44.91,32.28-48.1,13.3-35.33,11.62-76.41-8.4-108-17.37-27.42-63.53-48.35-100.07-39.36-27.46,6.76-46.88,14.74-66.9,33.17-3.72,3.43-17.52,20-18,25.86,0,0,1-82.67-72.92-57-30.67,10.66-94.82,64.11-94.82,64.11-8.49.79-1.22-60.16-60.4-71.31-57.57-10.85-85.94,0-130.64,43.55,4.11-4-24.83-26.25-27.63-28.49C441.27,680.33,387,706.36,350.35,745.92,326,772.2,306,804.86,290.89,839.14Z"/><path class="cls-2" d="M462.84,750.05c-.67-.37-1.35-.74-2-1.09-17.49-8.93-40.37-7.72-57.55,1.22-25,13-42.5,39-55.62,62.19C331.4,841.09,321.7,872.75,315,904.6c-3.36,16-6,32.22-8.16,48.43-2.13,15.65-3.86,30.1,1.86,45.34a53.24,53.24,0,0,0,10,16.84c23.47,26.29,69.51,27,97.14,6.78,21-15.41,34-39.3,42.4-62.77,8.76-24.32-8.4-23.94-30.45-26.65-3.51-.43-5.79,1-7.1,3.08a8.62,8.62,0,0,0-4.12,4.36A107.88,107.88,0,0,1,402,965.11c-4.43,5.63-13.09,17.71-21.26,17.19-11.88-.75-19.82-11.4-22.22-21.86-3-13,1.2-26.35,4.54-38.94A407.19,407.19,0,0,1,375.77,882c7.21-19.05,14.3-38.92,23.4-57.54,3.55-7.26,7.64-14.1,17.15-14.11,22.37,0,17.47,24.56,17.4,38.56,0,6.85-4.42,21,7.41,21h24.62c14.31,0,14.8-16.95,16.4-26.34,2-11.53,4-23.08,4.8-34.75C488.43,786.66,484.65,762.41,462.84,750.05Zm6.34,56.48c-4.05,3.5-6.79-4.06-7.17-6.92-.56-4.19,0-8.39-.37-12.56-.54-6.14-3.7-11.64-9.57-14-2-.8-4.36-.71-6-2.09-2.66-2.2-2.5-5.56,0-7.76,5.28-4.56,12.67,1.32,16.5,5.11a32.86,32.86,0,0,1,8.65,15.28C472.7,789.6,474.53,801.9,469.18,806.53Z"/><path class="cls-3" d="M472.66,242.3a43.75,43.75,0,0,0-16.49,2.53c-12.94,4.62-23.53,14.09-24,28.91-.44,13.33,8.17,26.25,21.33,29.59a31.81,31.81,0,0,0,3.32.63c10.52,1.35,21-2.83,28.48-9.93s10-16.15,10.86-25.82C497.4,254.21,487.42,242.92,472.66,242.3Z"/><path class="cls-4" d="M517.8,694c-2.84-4.76-8.49-8.45-12.53-12.1-5-4.48-9.83-9.15-15.2-13.16a51.75,51.75,0,0,0-13.2-7.09,5.92,5.92,0,0,0-1.61-1.1c-15.34-7.13-35.1-11.8-52.06-9-19.89,3.32-39.53,11.45-57.69,20.14-3.75-1.45-8.58.27-8,5.27a69.3,69.3,0,0,1-1,23A6,6,0,0,0,357,704a5.11,5.11,0,0,0-1,1.28c-1.38,2.63-.92,6.94,2.18,8.3a34.41,34.41,0,0,0,8,2.46,7.82,7.82,0,0,0,.91.36l.34.09.31.07a7.52,7.52,0,0,0,.85.16c33.41,3.29,66.84,1.48,100.21-1.43C478.76,714.4,530.69,715.5,517.8,694Z"/><path class="cls-5" d="M500.57,223.17c-3.74-13-18.32-15.38-29.74-17a298,298,0,0,0-43.36-2.75c-12.91.07-28.33-.62-40.66,3.6a19.81,19.81,0,0,0-5.15,2.64c-9.37,3.31-13,12.6-11.46,22,4.36,26.89,24.92,38.56,50.37,41.58,22.93,2.72,53.23-1.7,70.07-19.29C497.53,246.72,503.46,233.2,500.57,223.17Z"/><path class="cls-6" d="M568.06,247.64c-20.32-9.06-41.67-20.47-63.66-22-1.51-.1-2.73,1.19-3.65,1.9-2.42.64-.29.84-.63,4.1-1.11,10.85-9.8,22-15.8,27.44,0,0,3.17,9.17,3.77,11.52,1.55,6.08-2.44,18.73-8.54,21.93-6.42,3.38,5.47,6.92-.47,11.56-13.88,10.85,4.74,9.73,9.48,9.93a241.33,241.33,0,0,0,75.24-8.23c8.54-2.37,16.65-8.11,22.5-15.08C602.22,271.81,585,255.21,568.06,247.64Z"/><path class="cls-4" d="M591.65,251.3a344.89,344.89,0,0,0-10.44-53.46q-1.4-5.18-3-10.27a235.47,235.47,0,0,0-15.58-38.15c-6.88-13.22-15.68-25.61-26.76-35.65-12.23-11.09-27.46-17.69-40.67-27.41-14.53-10.69-24.1-27.29-42-33.13a57.17,57.17,0,0,0-6.67-1.71V33.15a5.66,5.66,0,0,0-4.23-5.6c-3-.81-6.51-.69-9.59-1.07a72.1,72.1,0,0,0-21.93,1C407.15,28.17,403.56,29,400,30c-3.21.89-6.75,1.58-9.69,3.18-4,2.16-3.52,6.53-3.15,10.41.42,4.21,1.89,8.17,3.22,12.16-.49-1.46-20.17,9.13-21.82,10.27-6.7,4.66-12,10.77-17.18,17-10.68,13.06-19.79,27.35-31,40-10.63,12-21.45,24.42-27.33,39.59-10.19,26.3-16.15,63.63-18.5,91.79-.56,6.73,4.09,5.34,12.09,1.61,46.19-21.55,92.89-27.17,143.13-27.22,30.53,0,62.39.28,92.41,6.3,26.9,5.39,54.33,17.72,70.51,40.78.25-2.5.08-8.67,0-11.17C592.53,260.25,592.12,255.76,591.65,251.3Z"/><path class="cls-7" d="M280.56,278.59a43.75,43.75,0,0,0-16.49,2.53c-12.94,4.62-23.53,14.09-24,28.91-.43,13.33,8.17,26.25,21.33,29.59a31.81,31.81,0,0,0,3.32.63c10.52,1.35,21-2.83,28.48-9.94s10-16.14,10.86-25.81C305.31,290.5,295.32,279.21,280.56,278.59Z"/><path class="cls-8" d="M726,635.67c-5.8-20.44-15.86-34.44-36.09-42.13s-42.64-9.73-64.13-10c-44.87-.5-100.87,11.42-138.66-20-1.46-1.22-4.57-2.15-5.38-3.77-.92-1.83.12-6.54.23-8.59.1-1.81,2.91-22.5,3.29-22.28,2.37,1.33,4.85,2.53,7.51,3.8,7.17,3.41,12.74,8.87,19,13.7,11.85,9.14,24.5,18.29,37.65,25.5,30.72,16.83,64.09,2.4,81.67-26.1,7.76-12.58,12.77-28.46,11.21-43.29-1.08-10.27-6.71-18.34-14.45-24.85-10.73-9-22.77-16.38-34.14-24.43s-22.91-15.91-35.12-22.88c-18.37-10.49-37.38-19.8-55.82-30.14-9-5-16.71-9.92-24.18-16.87-6.68-6.22-13.45-13.08-22.23-16.22,5.78,2.06,14-28.38,15.09-31.79,1.6-5.11,14.57-39.19,8.1-42.82-.49-.27.45-.25,0,0-2.2,1.25-6.67,1.17-8.91,1.47a21.1,21.1,0,0,1-8.94-1.16c-10.12-3.26-14-10.14-15.57-20,.05.32-17.36.93-18.78.83a67.61,67.61,0,0,1-19.78-4.5c-13.37-5.23-32-19.13-34.95-34.21,0,0-24.19,1.61-29.52,2.59-12,2.23-40.56,9.43-52,13.81-2.19.84-13.12,6.89-13.14,6.83-1.3-6.39,1.18-29.44,3.08-44.09,1.8-13.91,5.14-30,9.95-43.23.74-2,8.79-21.67,8.79-21.67-4-1.52-13.76.93-17.82,1.5-16.62,2.34-31.84,6.52-45.18,17.06a36,36,0,0,0-9.09,10.82c.78-1.38-17.69-7.93-19.45-8.34a61.73,61.73,0,0,0-22.05-1.07c-14.24,1.85-27.59,8.13-37.4,18.7-6.74,7.25-11.94,15.77-17.1,24.22C120.2,231,108.45,250.7,108.24,273.4c-.18,18.68,7.93,36.35,26.08,43.5,9.36,3.7,21.9,6,31.37,1.93,2.88-1.25,5.36-4.53,8.06-5.5l.83-.29c2.65-1,10.54,31.6,12.2,34.77,2.6,4.93,5.09,8,4.58,13.66h-.11c-15.11.81-29.34,1.66-44.34-.06-13.48-1.53-27.79-2.95-40,2.85-7.93,3.74-14.21,10.15-20.32,16.44-19.49,20.06-33.18,43-36.11,71.24-2.88,27.86,2.66,55.71,5.45,83.34,2.15,21.33,2.09,45.07,12,64.61,9.41,18.62,29.87,30.82,50.09,34.43,16.56,2.95,30.9-1.78,43-11.24a120.89,120.89,0,0,0-6.81,11.13C138,664.3,129.65,704,145.7,735.69c18,35.5,57.34,36.49,92.16,32.16,18.76-2.34,37-6.83,55-12.33,15.81-4.82,32.06-10.23,45.57-20,15.16-11,24.06-12.24,26.34-31.15.66-5.53-1.78-22.82-2.57-28.41,9.07-.18,22.62-6.24,30.76-10.46,9.15-4.75,16.41-11.83,27.09-10.61,8.8,1,16,1.35,23-1.56a18.51,18.51,0,0,0,10.26,4,82.6,82.6,0,0,1,59.72,34.51c6.51,9.33,9.28,18.11,22,19.64,43.62,5.25,88.47,7.74,132.17,2.16,19.46-2.49,39.71-5.52,52.14-22.43C731.28,675,731.29,654.28,726,635.67ZM300.23,317.6c-.37.88-.79,1.74-1.24,2.6-5.47,10.38-16.27,18.87-28.09,19.51-17.69,1-32.18-15.84-29.48-33.2,3.52-22.62,33.72-34.54,52.22-22.2C304,291.58,305,306.6,300.23,317.6Z"/><path class="cls-9" d="M191.25,361.48s77,72.27,157.85,59.08,107.26-53.38,107.26-53.38,21,121.76-71.34,155.57-173.15-5.78-193.77-28c0,0,18.72-57.72-9.2-132.76Z"/><path class="cls-3" d="M282.38,278.75l-4.27.64s-.75,26.74-23,56.19c-.29.39-.52.75-.79,1.13a26.81,26.81,0,0,0,7,2.91,31.81,31.81,0,0,0,3.32.63c10.52,1.35,21-2.83,28.48-9.94a31,31,0,0,0,4.68-5.62l6-18.5c.06-.56.14-1.12.19-1.69C305.25,291.09,296.13,280.19,282.38,278.75Z"/><path class="cls-10" d="M479.55,292.57c.45-.25-.49-.27,0,0Z"/><path class="cls-10" d="M449.21,380.62l9.91-14.55c5.35-5.45,11.42-27.79,12.33-30.68,1.6-5.11,14.57-39.19,8.1-42.82-.11-.06-1.79.67-2.05.73-.84.19-1.68.23-2.53.34a38.39,38.39,0,0,1-5.67.48c-6-.12-12.27-2.17-16.58-6.43-3.72-3.68-5.49-8.72-6.41-13.76-.07-.35-.13-.69-.18-1,.05.32-17.36.93-18.78.83a67.61,67.61,0,0,1-19.78-4.5c-13.37-5.23-34.46-22.51-37.37-37.59,0,0-20.47,2.29-25.79,3.28-12,2.23-41.87,12.12-53.3,16.5-2.19.84-13.12,6.89-13.14,6.83a108.37,108.37,0,0,1,.14,21.14,30.25,30.25,0,0,1,15.53,4.92c10.4,7.27,11.31,22.29,6.59,33.29-.37.88-.79,1.74-1.24,2.6-5.47,10.38-16.27,18.87-28.09,19.51a27,27,0,0,1-15.74-4.13c-13,13.7-33,24.2-63.8,25.89h-.11S315.32,505.46,449.21,380.62Z"/><path class="cls-11" d="M456.36,367.18s-26.45,40.19-107.26,53.38-157.85-59.08-157.85-59.08l-9.2.47a248.54,248.54,0,0,1,10,34.38h0s53.51,75.58,153,52.35S458.31,403.9,458.36,401.4A197.53,197.53,0,0,0,456.36,367.18Z"/><path class="cls-10" d="M501.57,525.88c-9.46-4.48-22.91-48.8-22.91-48.8,9.46,30.87,6.6,51.88,6.6,51.88,2.37,1.33,4.85,2.53,7.51,3.8,7.17,3.41,12.74,8.87,19,13.7,11.85,9.14,24.5,18.29,37.65,25.5,27.31,15,56.71,5.21,75.25-17.17,3.26-4.1-26.5,14.15-26.5,14.15C570.26,584.82,511,530.36,501.57,525.88Z"/><path class="cls-10" d="M134.32,316.9c9.36,3.7,21.9,6,31.37,1.93,2.88-1.25,5.36-4.53,8.06-5.5,11.43-15.59,17.5-39,17.5-39-10.85,20-22.07,28.8-49.22,26.88s-30.35-48.4-30.39-48.87a74,74,0,0,0-3.4,21.06C108.06,292.08,116.17,309.75,134.32,316.9Z"/><path class="cls-12" d="M208.25,172.73s-.41.3-1.19.9"/><path class="cls-13" d="M204.68,175.53c-13.93,11.46-64.14,57.88-70.15,135.92"/><path class="cls-12" d="M134.42,313c0,.5-.07,1-.1,1.5"/><path class="cls-9" d="M178.88,565.07c-12.48,34.07-29.75,46.07-59,50.39s-63.37-73.54-63.37-73.54h0c1.64,19.52,2.5,40.44,11.37,58,9.41,18.62,29.87,30.82,50.09,34.43a51.24,51.24,0,0,0,26.27-2c7.18-3.23,13.17-6.42,16.72-9.29C177.05,610.08,178.88,565.07,178.88,565.07Z"/><path class="cls-9" d="M104.44,428.13a312.53,312.53,0,0,0,30.61,34.13c8.41,8.18,44.83,37.74,55.83,31.71a6.6,6.6,0,0,0,1.13-.77c6.21-5.36,8.35-23.33,9.53-31a132.79,132.79,0,0,0,1-30.41A180.83,180.83,0,0,0,191,382c-1-2.64-5.75-19.17-8.95-20-11.78.58-23.22.84-35.14-.53-13.48-1.53-27.79-2.95-40,2.85-7.93,3.74-14,8.55-20.32,16.44-6.44,8.05,0,20.64,4.51,28A229.57,229.57,0,0,0,104.44,428.13Z"/><path class="cls-11" d="M197.71,403.17s11,11.08,7.48-13.1c-1.91-12.94-10.46-22.39-18-28.38-10.22.55-30.23.2-40.29-.27-2.09-.09,13.87,18.08,29.42,30.33C185.74,399.16,197.71,403.17,197.71,403.17Z"/><path class="cls-9" d="M176.46,579.13c-12.5,28.85-15.53,44-15.53,44,20.11-21.62,46.4-21.8,73.09-15.41C208.09,594.92,176.46,579.13,176.46,579.13Z"/><path class="cls-9" d="M482.05,560.28a2.58,2.58,0,0,1-.31-.45s-53.1,71.17-92.23,79.69c-21,4.58-49.39.32-73.45-5,33.89,14,46.17,41.41,46.17,41.41,9.07-.18,22.62-6.24,30.76-10.46,9.15-4.75,16.41-11.83,27.09-10.61,8.8,1,16,1.35,23-1.56C489.6,580.74,483.68,563.07,482.05,560.28Z"/><path class="cls-14" d="M200.62,766.75c11.9-.85,24-2.39,34.19-8.53,20.44-12.31,29.3-36.44,32.62-59,3.28-22.19,5.3-54.76-7.8-74.25-6.56-9.76-19.46-15.26-30.42-18.6-13.49-4.11-27.67-3.33-41.24,0a48.57,48.57,0,0,0-27,16.69"/><path class="cls-9" d="M345.88,716a57,57,0,0,1-13.26,9.24c-20.68,11.06-44.62,16.52-67.47,21-6.12,1.21-13,1.52-18.92,3.32l-.66.24c-3.81,1.53-7.23,4.91-10.74,7.06a125.08,125.08,0,0,1-13.12,7c-2.76,1.27-8.39,4.51-13.11,5.65a201.05,201.05,0,0,0,29.26-1.75c18.76-2.34,37-6.83,55-12.33,15.81-4.82,32.06-10.23,45.57-20,15.16-11,24.06-12.24,26.34-31.15a66.94,66.94,0,0,0-.46-11.49C363.5,696,359.67,702.55,345.88,716Z"/><polygon class="cls-9" points="364.06 690.19 364.06 690.19 364.06 690.19 364.06 690.19"/><path class="cls-14" d="M692.93,706.37c-26.47,9.17-50.34-17.2-44.2-67.59S689.91,596,689.91,596"/><path class="cls-9" d="M655.13,690.19c-98,3.69-196.72-62-196.72-62C434.57,635,434.52,647.29,437.35,655a28,28,0,0,0,5.76-1.68,18.51,18.51,0,0,0,10.26,4,82.6,82.6,0,0,1,59.72,34.51c6.51,9.33,9.28,18.11,22,19.64,43.62,5.25,88.47,7.74,132.17,2.16a180.73,180.73,0,0,0,22.36-3.89l-21.17-4.33Z"/><path class="cls-4" d="M257.71,311.2c-7.81,0-7.82,12.13,0,12.13S265.53,311.2,257.71,311.2Z"/><path class="cls-15" d="M465.2,269.81c-7.81,0-7.82,12.13,0,12.13S473,269.81,465.2,269.81Z"/><path class="cls-15" d="M484.68,260.18c-5.35,2.17-4.58,11.7,2.36,11.7.44,0,1.18.29,1.26-.11C489.05,267.84,485.37,259.91,484.68,260.18Z"/><path class="cls-15" d="M285.12,298.14c-7.81,0-7.82,12.14,0,12.14S292.94,298.14,285.12,298.14Z"/><path class="cls-7" d="M592.69,264.73c-.16-4.48-.57-9-1-13.43a344.89,344.89,0,0,0-10.44-53.46q-1.4-5.18-3-10.27a235.47,235.47,0,0,0-15.58-38.15c-6.88-13.22-15.68-25.61-26.76-35.65-12.23-11.09-27.46-17.69-40.67-27.41-14.53-10.69-24.1-27.29-42-33.13a57.17,57.17,0,0,0-6.67-1.71V33.15c0-4-3.21-5.95-6.33-5.83a6.29,6.29,0,0,0-1.48-.21c-3.21-.07-7.46-1.19-10.66-1,3.65,0,4.09,29.64,4.09,29.64,9.36.58,13.64,8.06,27.2,28.19s17.51,18.41,52.61,39.13S561,248.66,561,248.66A68,68,0,0,1,592.7,275.9C593,273.4,592.78,267.23,592.69,264.73Z"/><path class="cls-2" d="M663.37,768c-4.49-9-12.18-16.23-24.63-20.49-27.25-9.34-58.5-4.53-79.62,14.43-18.43,16.54-28.72,40.13-34.4,63.18a184.4,184.4,0,0,0-4,21.85c-1.24,10.19-3,21.09.08,31.14,3.6,11.88,13.62,15.43,24,21.09,10.68,5.83,19.59,14.2,28.27,22.38,7.15,6.75,16.56,15.23,16.4,25.64-.17,12-8.47,31.05-18.58,38.65-3.46,2.59-8.31,2.81-12.63,2a29.92,29.92,0,0,1-14.75-7.49,9.53,9.53,0,0,1-2.82-4,10.6,10.6,0,0,1,.28-5.38c2.43-10.52,6.14-20.56,9.59-30.78,2.36-7,4.85-15.92-4.07-19.62a81.7,81.7,0,0,0-30.91-5.71c-14.08.29-16.23,26-18.42,35.18-4.08,17.1-7.23,36.67,1.16,53.1,3.35,6.56,8.68,11.54,14.7,15.7,16.81,15.69,44.23,20.75,69.5,15.71,14.7-2.93,24.78-12,35-22a55,55,0,0,0,6.86-7.63,53.27,53.27,0,0,0,3.63-6.47c9.5-18.95,22.93-43.07,16.88-64.6C642.3,924.74,636,917,629,910.42c-9.46-8.83-19.84-17-30-25.14-14.76-11.8-25.33-23.19-26.13-42-.45-10.53,1.3-21.81,8.56-30.19,9-10.43,33.56-16.59,36.59,1.7,2,11.81-4.59,24.71-9.48,35.22-8.48,18.24,34.19,12.3,43.05,12.3a8.55,8.55,0,0,0,1.39-.27c3.42,0,6.55-1.71,7.17-6C663.76,830.94,675.79,792.8,663.37,768Zm-7.49,25c-.06,3.6.07,7.7-1.93,10.86a3.13,3.13,0,0,1-2.59,1.57c-1.56,0-3.14-1.56-3.78-2.9-1.25-2.63-1.09-5.53-1.25-8.36a46,46,0,0,0-2.23-12.53c-1.3-3.7-3.74-7.93-7.78-9-1.33-.35-2.75-.3-4.06-.72-4.8-1.53-1.54-6,1.75-6.75a15.75,15.75,0,0,1,8.8.74,19.67,19.67,0,0,1,9.86,8.12C656,779.49,656,786.7,655.88,792.93Z"/><path class="cls-2" d="M851,982.75c-1.54-3.82-4.42-6.27-9.18-6.27H804.26c1.74-28.14,10.86-55.66,16-83.31,4.82-25.73,9.57-51.49,13.6-77.36,2.05-13.14,3.92-26.31,5.52-39.51,1.12-9.26,3.7-22.18-4.38-29.24-9.45-8.27-20.66-2.66-30.18,2.35a386.87,386.87,0,0,0-52.9,34c-8.53,6.44-16.84,13.18-25,20.12-6.45,5.52-21.85,16-19.59,26.06a62.65,62.65,0,0,0,13.4,26.62c10.35,12.55,58.16-29.15,58.24-29a7.93,7.93,0,0,0,.74,1.3q-19.09,73.72-36.14,147.93h-3.48c-14.28,0-29.32-4.54-43.61-5.88a9.29,9.29,0,0,0-4.75.39c-5.4,2.48-7.13,9.66-7.5,15-.8,11.28-1.39,22.57-2.16,33.86-.4,5.75,3.88,8.48,8.31,8.39a8.38,8.38,0,0,0,.87.18c19.82-.07,39.6,1.2,59.41,1.72,14,.37,28.07-.63,42.11-.88s27.46,3.39,41.28,3.53C849.92,1032.9,854.87,992.35,851,982.75Zm-27.9-223.08a4.91,4.91,0,0,1,4.36,3.16c2.44,5.07,2.07,11.06,1,16.43-1,5-1.24,12.18-5.47,15.67-1.47,1.21-3.83,1.43-4.73-.58a5.93,5.93,0,0,1-.36-2.65c.11-3.47,1-6.84,1.31-10.27s.58-7.16.89-10.74c.17-2.05-3.25-.61-4.21-.52-1.82.19-4-.27-4.86-2C808.32,762.66,819.34,759.56,823.09,759.67Z"/><path class="cls-2" d="M1037.69,833.83c11.82-31,4.08-81.13-33.81-89.47a71.8,71.8,0,0,0-16.8-1.51,93,93,0,0,0-36.83,8.76c-52.21,23.83-68.44,100.71-31,142.86-26.35,24-45.81,57.41-42.7,92.69,1.21,13.79,6.63,26.56,17.27,35.64,11.7,10,30.75,14.16,45.76,14.57,35.39,1,74.28-23,78.77-60.16,3.52-29.23-10.91-59.22-28.83-81.42C1009.66,878.49,1027.85,859.61,1037.69,833.83ZM970.58,968c-1.33,7.77-5.76,14.88-14.75,20.29-11,6.61-25.25,6.42-33.85-5.21-15.92-21.56,22.72-48.45,33-58.87C964.64,936.49,973.08,953.4,970.58,968ZM994.3,816.12a119.6,119.6,0,0,1-19.76,38.4,108.22,108.22,0,0,1-11.31,12.4c-4.7-6.58-9.07-13.29-12.05-20.28-7.46-17.46-2.06-45.27,13.08-57.47,6.7-5.4,18.83-8,26.83-4.34C1003.2,790.38,997.23,806.68,994.3,816.12Zm7.32-50.27a3.51,3.51,0,0,1-.25-1.4c0-2.81,2.41-4.36,5-4.61,7-.68,13,5.51,16.12,10.79,3.75,6.26,6.57,13.94,6.91,21.16.09,1.93.56,3.82-.76,5.21-2.29,2.4-5.68.61-7.11-1.8-1.75-3-1.93-6.82-2.86-10.08a27.9,27.9,0,0,0-6.95-11.82,28.75,28.75,0,0,0-5.42-4.29C1004.86,768.15,1002.36,767.5,1001.62,765.85Z"/></svg>